<svg width="1920" height="608" viewBox="0 0 1920 608" fill="none" xmlns="http://www.w3.org/2000/svg">
<rect width="1920" height="608" fill="#165292"/>
<g opacity="0.131766">
<path fill-rule="evenodd" clip-rule="evenodd" d="M418.774 442.337C418.774 444.04 417.706 445.42 416.386 445.42C415.069 445.42 414 444.04 414 442.337C414 440.634 415.069 439.254 416.386 439.254C417.706 439.254 418.774 440.634 418.774 442.337Z" fill="#1B8BC8"/>
<path fill-rule="evenodd" clip-rule="evenodd" d="M433.097 442.337C433.097 444.04 432.028 445.42 430.709 445.42C429.391 445.42 428.323 444.04 428.323 442.337C428.323 440.634 429.391 439.254 430.709 439.254C432.028 439.254 433.097 440.634 433.097 442.337Z" fill="#1B8BC8"/>
<path fill-rule="evenodd" clip-rule="evenodd" d="M446.226 442.337C446.226 444.04 445.157 445.42 443.839 445.42C442.52 445.42 441.452 444.04 441.452 442.337C441.452 440.634 442.52 439.254 443.839 439.254C445.157 439.254 446.226 440.634 446.226 442.337Z" fill="#1B8BC8"/>
<path fill-rule="evenodd" clip-rule="evenodd" d="M460.548 442.337C460.548 444.04 459.48 445.42 458.16 445.42C456.842 445.42 455.774 444.04 455.774 442.337C455.774 440.634 456.842 439.254 458.16 439.254C459.48 439.254 460.548 440.634 460.548 442.337Z" fill="#1B8BC8"/>
<path fill-rule="evenodd" clip-rule="evenodd" d="M473.677 442.337C473.677 444.04 472.609 445.42 471.29 445.42C469.972 445.42 468.903 444.04 468.903 442.337C468.903 440.634 469.972 439.254 471.29 439.254C472.609 439.254 473.677 440.634 473.677 442.337Z" fill="#1B8BC8"/>
<path fill-rule="evenodd" clip-rule="evenodd" d="M418.774 459.294C418.774 460.997 417.706 462.377 416.386 462.377C415.069 462.377 414 460.997 414 459.294C414 457.592 415.069 456.211 416.386 456.211C417.706 456.211 418.774 457.592 418.774 459.294Z" fill="#1B8BC8"/>
<path fill-rule="evenodd" clip-rule="evenodd" d="M433.097 459.294C433.097 460.997 432.028 462.377 430.709 462.377C429.391 462.377 428.323 460.997 428.323 459.294C428.323 457.592 429.391 456.211 430.709 456.211C432.028 456.211 433.097 457.592 433.097 459.294Z" fill="#1B8BC8"/>
<path fill-rule="evenodd" clip-rule="evenodd" d="M446.226 459.294C446.226 460.997 445.157 462.377 443.839 462.377C442.52 462.377 441.452 460.997 441.452 459.294C441.452 457.592 442.52 456.211 443.839 456.211C445.157 456.211 446.226 457.592 446.226 459.294Z" fill="#1B8BC8"/>
<path fill-rule="evenodd" clip-rule="evenodd" d="M460.549 459.294C460.549 460.997 459.48 462.377 458.16 462.377C456.842 462.377 455.774 460.997 455.774 459.294C455.774 457.592 456.842 456.211 458.16 456.211C459.48 456.211 460.549 457.592 460.549 459.294Z" fill="#1B8BC8"/>
<path fill-rule="evenodd" clip-rule="evenodd" d="M473.678 459.294C473.678 460.997 472.609 462.377 471.29 462.377C469.972 462.377 468.903 460.997 468.903 459.294C468.903 457.592 469.972 456.211 471.29 456.211C472.609 456.211 473.678 457.592 473.678 459.294Z" fill="#1B8BC8"/>
<path fill-rule="evenodd" clip-rule="evenodd" d="M418.774 478.564C418.774 480.691 417.706 482.417 416.386 482.417C415.069 482.417 414 480.691 414 478.564C414 476.435 415.069 474.709 416.386 474.709C417.706 474.709 418.774 476.435 418.774 478.564Z" fill="#1B8BC8"/>
<path fill-rule="evenodd" clip-rule="evenodd" d="M433.097 478.564C433.097 480.691 432.028 482.417 430.709 482.417C429.391 482.417 428.323 480.691 428.323 478.564C428.323 476.435 429.391 474.709 430.709 474.709C432.028 474.709 433.097 476.435 433.097 478.564Z" fill="#1B8BC8"/>
<path fill-rule="evenodd" clip-rule="evenodd" d="M446.226 478.564C446.226 480.691 445.157 482.417 443.839 482.417C442.52 482.417 441.452 480.691 441.452 478.564C441.452 476.435 442.52 474.709 443.839 474.709C445.157 474.709 446.226 476.435 446.226 478.564Z" fill="#1B8BC8"/>
<path fill-rule="evenodd" clip-rule="evenodd" d="M460.549 478.564C460.549 480.691 459.48 482.417 458.16 482.417C456.842 482.417 455.774 480.691 455.774 478.564C455.774 476.435 456.842 474.709 458.16 474.709C459.48 474.709 460.549 476.435 460.549 478.564Z" fill="#1B8BC8"/>
<path fill-rule="evenodd" clip-rule="evenodd" d="M473.678 478.564C473.678 480.691 472.609 482.417 471.29 482.417C469.972 482.417 468.903 480.691 468.903 478.564C468.903 476.435 469.972 474.709 471.29 474.709C472.609 474.709 473.678 476.435 473.678 478.564Z" fill="#1B8BC8"/>
<path fill-rule="evenodd" clip-rule="evenodd" d="M418.774 495.52C418.774 497.648 417.706 499.374 416.386 499.374C415.069 499.374 414 497.648 414 495.52C414 493.392 415.069 491.667 416.386 491.667C417.706 491.667 418.774 493.392 418.774 495.52Z" fill="#1B8BC8"/>
<path fill-rule="evenodd" clip-rule="evenodd" d="M433.097 495.52C433.097 497.648 432.028 499.374 430.709 499.374C429.391 499.374 428.323 497.648 428.323 495.52C428.323 493.392 429.391 491.667 430.709 491.667C432.028 491.667 433.097 493.392 433.097 495.52Z" fill="#1B8BC8"/>
<path fill-rule="evenodd" clip-rule="evenodd" d="M446.226 495.52C446.226 497.648 445.157 499.374 443.839 499.374C442.52 499.374 441.452 497.648 441.452 495.52C441.452 493.392 442.52 491.667 443.839 491.667C445.157 491.667 446.226 493.392 446.226 495.52Z" fill="#1B8BC8"/>
<path fill-rule="evenodd" clip-rule="evenodd" d="M460.549 495.52C460.549 497.648 459.48 499.374 458.16 499.374C456.842 499.374 455.774 497.648 455.774 495.52C455.774 493.392 456.842 491.667 458.16 491.667C459.48 491.667 460.549 493.392 460.549 495.52Z" fill="#1B8BC8"/>
<path fill-rule="evenodd" clip-rule="evenodd" d="M473.678 495.52C473.678 497.648 472.609 499.374 471.29 499.374C469.972 499.374 468.903 497.648 468.903 495.52C468.903 493.392 469.972 491.667 471.29 491.667C472.609 491.667 473.678 493.392 473.678 495.52Z" fill="#1B8BC8"/>
<path fill-rule="evenodd" clip-rule="evenodd" d="M418.774 513.248C418.774 514.95 417.706 516.331 416.386 516.331C415.069 516.331 414 514.95 414 513.248C414 511.545 415.069 510.165 416.386 510.165C417.706 510.165 418.774 511.545 418.774 513.248Z" fill="#1B8BC8"/>
<path fill-rule="evenodd" clip-rule="evenodd" d="M433.097 513.248C433.097 514.95 432.028 516.331 430.709 516.331C429.391 516.331 428.323 514.95 428.323 513.248C428.323 511.545 429.391 510.165 430.709 510.165C432.028 510.165 433.097 511.545 433.097 513.248Z" fill="#1B8BC8"/>
<path fill-rule="evenodd" clip-rule="evenodd" d="M446.226 513.248C446.226 514.95 445.157 516.331 443.839 516.331C442.52 516.331 441.452 514.95 441.452 513.248C441.452 511.545 442.52 510.165 443.839 510.165C445.157 510.165 446.226 511.545 446.226 513.248Z" fill="#1B8BC8"/>
<path fill-rule="evenodd" clip-rule="evenodd" d="M460.549 513.248C460.549 514.95 459.48 516.331 458.16 516.331C456.842 516.331 455.774 514.95 455.774 513.248C455.774 511.545 456.842 510.165 458.16 510.165C459.48 510.165 460.549 511.545 460.549 513.248Z" fill="#1B8BC8"/>
<path fill-rule="evenodd" clip-rule="evenodd" d="M473.678 513.248C473.678 514.95 472.609 516.331 471.29 516.331C469.972 516.331 468.903 514.95 468.903 513.248C468.903 511.545 469.972 510.165 471.29 510.165C472.609 510.165 473.678 511.545 473.678 513.248Z" fill="#1B8BC8"/>
<path fill-rule="evenodd" clip-rule="evenodd" d="M418.774 530.205C418.774 531.908 417.706 533.288 416.386 533.288C415.069 533.288 414 531.908 414 530.205C414 528.502 415.069 527.122 416.386 527.122C417.706 527.122 418.774 528.502 418.774 530.205Z" fill="#1B8BC8"/>
<path fill-rule="evenodd" clip-rule="evenodd" d="M433.097 530.205C433.097 531.908 432.028 533.288 430.709 533.288C429.391 533.288 428.323 531.908 428.323 530.205C428.323 528.502 429.391 527.122 430.709 527.122C432.028 527.122 433.097 528.502 433.097 530.205Z" fill="#1B8BC8"/>
<path fill-rule="evenodd" clip-rule="evenodd" d="M446.226 530.205C446.226 531.908 445.157 533.288 443.839 533.288C442.52 533.288 441.452 531.908 441.452 530.205C441.452 528.502 442.52 527.122 443.839 527.122C445.157 527.122 446.226 528.502 446.226 530.205Z" fill="#1B8BC8"/>
<path fill-rule="evenodd" clip-rule="evenodd" d="M460.549 530.205C460.549 531.908 459.48 533.288 458.16 533.288C456.842 533.288 455.774 531.908 455.774 530.205C455.774 528.502 456.842 527.122 458.16 527.122C459.48 527.122 460.549 528.502 460.549 530.205Z" fill="#1B8BC8"/>
<path fill-rule="evenodd" clip-rule="evenodd" d="M473.678 530.205C473.678 531.908 472.609 533.288 471.29 533.288C469.972 533.288 468.903 531.908 468.903 530.205C468.903 528.502 469.972 527.122 471.29 527.122C472.609 527.122 473.678 528.502 473.678 530.205Z" fill="#1B8BC8"/>
<path fill-rule="evenodd" clip-rule="evenodd" d="M488 442.337C488 444.04 486.932 445.42 485.612 445.42C484.294 445.42 483.226 444.04 483.226 442.337C483.226 440.634 484.294 439.254 485.612 439.254C486.932 439.254 488 440.634 488 442.337Z" fill="#1B8BC8"/>
<path fill-rule="evenodd" clip-rule="evenodd" d="M488 459.294C488 460.997 486.932 462.377 485.612 462.377C484.294 462.377 483.226 460.997 483.226 459.294C483.226 457.592 484.294 456.211 485.612 456.211C486.932 456.211 488 457.592 488 459.294Z" fill="#1B8BC8"/>
<path fill-rule="evenodd" clip-rule="evenodd" d="M488 478.564C488 480.691 486.932 482.417 485.612 482.417C484.294 482.417 483.226 480.691 483.226 478.564C483.226 476.435 484.294 474.709 485.612 474.709C486.932 474.709 488 476.435 488 478.564Z" fill="#1B8BC8"/>
<path fill-rule="evenodd" clip-rule="evenodd" d="M488 495.52C488 497.648 486.932 499.374 485.612 499.374C484.294 499.374 483.226 497.648 483.226 495.52C483.226 493.392 484.294 491.667 485.612 491.667C486.932 491.667 488 493.392 488 495.52Z" fill="#1B8BC8"/>
<path fill-rule="evenodd" clip-rule="evenodd" d="M488 513.248C488 514.95 486.932 516.331 485.612 516.331C484.294 516.331 483.226 514.95 483.226 513.248C483.226 511.545 484.294 510.165 485.612 510.165C486.932 510.165 488 511.545 488 513.248Z" fill="#1B8BC8"/>
<path fill-rule="evenodd" clip-rule="evenodd" d="M488 530.205C488 531.908 486.932 533.288 485.612 533.288C484.294 533.288 483.226 531.908 483.226 530.205C483.226 528.502 484.294 527.122 485.612 527.122C486.932 527.122 488 528.502 488 530.205Z" fill="#1B8BC8"/>
<path fill-rule="evenodd" clip-rule="evenodd" d="M418.774 545.388C418.774 547.091 417.706 548.471 416.386 548.471C415.069 548.471 414 547.091 414 545.388C414 543.685 415.069 542.305 416.386 542.305C417.706 542.305 418.774 543.685 418.774 545.388Z" fill="#1B8BC8"/>
<path fill-rule="evenodd" clip-rule="evenodd" d="M433.097 545.388C433.097 547.091 432.028 548.471 430.709 548.471C429.391 548.471 428.323 547.091 428.323 545.388C428.323 543.685 429.391 542.305 430.709 542.305C432.028 542.305 433.097 543.685 433.097 545.388Z" fill="#1B8BC8"/>
<path fill-rule="evenodd" clip-rule="evenodd" d="M446.226 545.388C446.226 547.091 445.157 548.471 443.839 548.471C442.52 548.471 441.452 547.091 441.452 545.388C441.452 543.685 442.52 542.305 443.839 542.305C445.157 542.305 446.226 543.685 446.226 545.388Z" fill="#1B8BC8"/>
<path fill-rule="evenodd" clip-rule="evenodd" d="M460.548 545.388C460.548 547.091 459.48 548.471 458.16 548.471C456.842 548.471 455.774 547.091 455.774 545.388C455.774 543.685 456.842 542.305 458.16 542.305C459.48 542.305 460.548 543.685 460.548 545.388Z" fill="#1B8BC8"/>
<path fill-rule="evenodd" clip-rule="evenodd" d="M473.677 545.388C473.677 547.091 472.609 548.471 471.29 548.471C469.972 548.471 468.903 547.091 468.903 545.388C468.903 543.685 469.972 542.305 471.29 542.305C472.609 542.305 473.677 543.685 473.677 545.388Z" fill="#1B8BC8"/>
<path fill-rule="evenodd" clip-rule="evenodd" d="M418.774 562.345C418.774 564.048 417.706 565.428 416.386 565.428C415.069 565.428 414 564.048 414 562.345C414 560.643 415.069 559.262 416.386 559.262C417.706 559.262 418.774 560.643 418.774 562.345Z" fill="#1B8BC8"/>
<path fill-rule="evenodd" clip-rule="evenodd" d="M433.097 562.345C433.097 564.048 432.028 565.428 430.709 565.428C429.391 565.428 428.323 564.048 428.323 562.345C428.323 560.643 429.391 559.262 430.709 559.262C432.028 559.262 433.097 560.643 433.097 562.345Z" fill="#1B8BC8"/>
<path fill-rule="evenodd" clip-rule="evenodd" d="M446.226 562.345C446.226 564.048 445.157 565.428 443.839 565.428C442.52 565.428 441.452 564.048 441.452 562.345C441.452 560.643 442.52 559.262 443.839 559.262C445.157 559.262 446.226 560.643 446.226 562.345Z" fill="#1B8BC8"/>
<path fill-rule="evenodd" clip-rule="evenodd" d="M460.549 562.345C460.549 564.048 459.48 565.428 458.16 565.428C456.842 565.428 455.774 564.048 455.774 562.345C455.774 560.643 456.842 559.262 458.16 559.262C459.48 559.262 460.549 560.643 460.549 562.345Z" fill="#1B8BC8"/>
<path fill-rule="evenodd" clip-rule="evenodd" d="M473.678 562.345C473.678 564.048 472.609 565.428 471.29 565.428C469.972 565.428 468.903 564.048 468.903 562.345C468.903 560.643 469.972 559.262 471.29 559.262C472.609 559.262 473.678 560.643 473.678 562.345Z" fill="#1B8BC8"/>
<path fill-rule="evenodd" clip-rule="evenodd" d="M418.774 581.615C418.774 583.742 417.706 585.468 416.386 585.468C415.069 585.468 414 583.742 414 581.615C414 579.486 415.069 577.76 416.386 577.76C417.706 577.76 418.774 579.486 418.774 581.615Z" fill="#1B8BC8"/>
<path fill-rule="evenodd" clip-rule="evenodd" d="M433.097 581.615C433.097 583.742 432.028 585.468 430.709 585.468C429.391 585.468 428.323 583.742 428.323 581.615C428.323 579.486 429.391 577.76 430.709 577.76C432.028 577.76 433.097 579.486 433.097 581.615Z" fill="#1B8BC8"/>
<path fill-rule="evenodd" clip-rule="evenodd" d="M446.226 581.615C446.226 583.742 445.157 585.468 443.839 585.468C442.52 585.468 441.452 583.742 441.452 581.615C441.452 579.486 442.52 577.76 443.839 577.76C445.157 577.76 446.226 579.486 446.226 581.615Z" fill="#1B8BC8"/>
<path fill-rule="evenodd" clip-rule="evenodd" d="M460.549 581.615C460.549 583.742 459.48 585.468 458.16 585.468C456.842 585.468 455.774 583.742 455.774 581.615C455.774 579.486 456.842 577.76 458.16 577.76C459.48 577.76 460.549 579.486 460.549 581.615Z" fill="#1B8BC8"/>
<path fill-rule="evenodd" clip-rule="evenodd" d="M473.678 581.615C473.678 583.742 472.609 585.468 471.29 585.468C469.972 585.468 468.903 583.742 468.903 581.615C468.903 579.486 469.972 577.76 471.29 577.76C472.609 577.76 473.678 579.486 473.678 581.615Z" fill="#1B8BC8"/>
<path fill-rule="evenodd" clip-rule="evenodd" d="M418.774 598.571C418.774 600.699 417.706 602.425 416.386 602.425C415.069 602.425 414 600.699 414 598.571C414 596.443 415.069 594.717 416.386 594.717C417.706 594.717 418.774 596.443 418.774 598.571Z" fill="#1B8BC8"/>
<path fill-rule="evenodd" clip-rule="evenodd" d="M433.097 598.571C433.097 600.699 432.028 602.425 430.709 602.425C429.391 602.425 428.323 600.699 428.323 598.571C428.323 596.443 429.391 594.717 430.709 594.717C432.028 594.717 433.097 596.443 433.097 598.571Z" fill="#1B8BC8"/>
<path fill-rule="evenodd" clip-rule="evenodd" d="M446.226 598.571C446.226 600.699 445.157 602.425 443.839 602.425C442.52 602.425 441.452 600.699 441.452 598.571C441.452 596.443 442.52 594.717 443.839 594.717C445.157 594.717 446.226 596.443 446.226 598.571Z" fill="#1B8BC8"/>
<path fill-rule="evenodd" clip-rule="evenodd" d="M460.549 598.571C460.549 600.699 459.48 602.425 458.16 602.425C456.842 602.425 455.774 600.699 455.774 598.571C455.774 596.443 456.842 594.717 458.16 594.717C459.48 594.717 460.549 596.443 460.549 598.571Z" fill="#1B8BC8"/>
<path fill-rule="evenodd" clip-rule="evenodd" d="M473.678 598.571C473.678 600.699 472.609 602.425 471.29 602.425C469.972 602.425 468.903 600.699 468.903 598.571C468.903 596.443 469.972 594.717 471.29 594.717C472.609 594.717 473.678 596.443 473.678 598.571Z" fill="#1B8BC8"/>
<path fill-rule="evenodd" clip-rule="evenodd" d="M488 545.388C488 547.091 486.932 548.471 485.612 548.471C484.294 548.471 483.226 547.091 483.226 545.388C483.226 543.685 484.294 542.305 485.612 542.305C486.932 542.305 488 543.685 488 545.388Z" fill="#1B8BC8"/>
<path fill-rule="evenodd" clip-rule="evenodd" d="M488 562.345C488 564.048 486.932 565.428 485.612 565.428C484.294 565.428 483.226 564.048 483.226 562.345C483.226 560.643 484.294 559.262 485.612 559.262C486.932 559.262 488 560.643 488 562.345Z" fill="#1B8BC8"/>
<path fill-rule="evenodd" clip-rule="evenodd" d="M488 581.615C488 583.742 486.932 585.468 485.612 585.468C484.294 585.468 483.226 583.742 483.226 581.615C483.226 579.486 484.294 577.76 485.612 577.76C486.932 577.76 488 579.486 488 581.615Z" fill="#1B8BC8"/>
<path fill-rule="evenodd" clip-rule="evenodd" d="M488 598.571C488 600.699 486.932 602.425 485.612 602.425C484.294 602.425 483.226 600.699 483.226 598.571C483.226 596.443 484.294 594.717 485.612 594.717C486.932 594.717 488 596.443 488 598.571Z" fill="#1B8BC8"/>
<path fill-rule="evenodd" clip-rule="evenodd" d="M502.774 442.337C502.774 444.04 501.706 445.42 500.386 445.42C499.069 445.42 498 444.04 498 442.337C498 440.634 499.069 439.254 500.386 439.254C501.706 439.254 502.774 440.634 502.774 442.337Z" fill="#1B8BC8"/>
<path fill-rule="evenodd" clip-rule="evenodd" d="M517.097 442.337C517.097 444.04 516.028 445.42 514.709 445.42C513.391 445.42 512.323 444.04 512.323 442.337C512.323 440.634 513.391 439.254 514.709 439.254C516.028 439.254 517.097 440.634 517.097 442.337Z" fill="#1B8BC8"/>
<path fill-rule="evenodd" clip-rule="evenodd" d="M530.226 442.337C530.226 444.04 529.157 445.42 527.839 445.42C526.52 445.42 525.452 444.04 525.452 442.337C525.452 440.634 526.52 439.254 527.839 439.254C529.157 439.254 530.226 440.634 530.226 442.337Z" fill="#1B8BC8"/>
<path fill-rule="evenodd" clip-rule="evenodd" d="M544.548 442.337C544.548 444.04 543.48 445.42 542.16 445.42C540.842 445.42 539.774 444.04 539.774 442.337C539.774 440.634 540.842 439.254 542.16 439.254C543.48 439.254 544.548 440.634 544.548 442.337Z" fill="#1B8BC8"/>
<path fill-rule="evenodd" clip-rule="evenodd" d="M557.677 442.337C557.677 444.04 556.609 445.42 555.29 445.42C553.972 445.42 552.903 444.04 552.903 442.337C552.903 440.634 553.972 439.254 555.29 439.254C556.609 439.254 557.677 440.634 557.677 442.337Z" fill="#1B8BC8"/>
<path fill-rule="evenodd" clip-rule="evenodd" d="M502.774 459.294C502.774 460.997 501.706 462.377 500.386 462.377C499.069 462.377 498 460.997 498 459.294C498 457.592 499.069 456.211 500.386 456.211C501.706 456.211 502.774 457.592 502.774 459.294Z" fill="#1B8BC8"/>
<path fill-rule="evenodd" clip-rule="evenodd" d="M517.097 459.294C517.097 460.997 516.028 462.377 514.709 462.377C513.391 462.377 512.323 460.997 512.323 459.294C512.323 457.592 513.391 456.211 514.709 456.211C516.028 456.211 517.097 457.592 517.097 459.294Z" fill="#1B8BC8"/>
<path fill-rule="evenodd" clip-rule="evenodd" d="M530.226 459.294C530.226 460.997 529.157 462.377 527.839 462.377C526.52 462.377 525.452 460.997 525.452 459.294C525.452 457.592 526.52 456.211 527.839 456.211C529.157 456.211 530.226 457.592 530.226 459.294Z" fill="#1B8BC8"/>
<path fill-rule="evenodd" clip-rule="evenodd" d="M544.549 459.294C544.549 460.997 543.48 462.377 542.16 462.377C540.842 462.377 539.774 460.997 539.774 459.294C539.774 457.592 540.842 456.211 542.16 456.211C543.48 456.211 544.549 457.592 544.549 459.294Z" fill="#1B8BC8"/>
<path fill-rule="evenodd" clip-rule="evenodd" d="M557.678 459.294C557.678 460.997 556.609 462.377 555.29 462.377C553.972 462.377 552.903 460.997 552.903 459.294C552.903 457.592 553.972 456.211 555.29 456.211C556.609 456.211 557.678 457.592 557.678 459.294Z" fill="#1B8BC8"/>
<path fill-rule="evenodd" clip-rule="evenodd" d="M502.774 478.564C502.774 480.691 501.706 482.417 500.386 482.417C499.069 482.417 498 480.691 498 478.564C498 476.435 499.069 474.709 500.386 474.709C501.706 474.709 502.774 476.435 502.774 478.564Z" fill="#1B8BC8"/>
<path fill-rule="evenodd" clip-rule="evenodd" d="M517.097 478.564C517.097 480.691 516.028 482.417 514.709 482.417C513.391 482.417 512.323 480.691 512.323 478.564C512.323 476.435 513.391 474.709 514.709 474.709C516.028 474.709 517.097 476.435 517.097 478.564Z" fill="#1B8BC8"/>
<path fill-rule="evenodd" clip-rule="evenodd" d="M530.226 478.564C530.226 480.691 529.157 482.417 527.839 482.417C526.52 482.417 525.452 480.691 525.452 478.564C525.452 476.435 526.52 474.709 527.839 474.709C529.157 474.709 530.226 476.435 530.226 478.564Z" fill="#1B8BC8"/>
<path fill-rule="evenodd" clip-rule="evenodd" d="M544.549 478.564C544.549 480.691 543.48 482.417 542.16 482.417C540.842 482.417 539.774 480.691 539.774 478.564C539.774 476.435 540.842 474.709 542.16 474.709C543.48 474.709 544.549 476.435 544.549 478.564Z" fill="#1B8BC8"/>
<path fill-rule="evenodd" clip-rule="evenodd" d="M557.678 478.564C557.678 480.691 556.609 482.417 555.29 482.417C553.972 482.417 552.903 480.691 552.903 478.564C552.903 476.435 553.972 474.709 555.29 474.709C556.609 474.709 557.678 476.435 557.678 478.564Z" fill="#1B8BC8"/>
<path fill-rule="evenodd" clip-rule="evenodd" d="M502.774 495.52C502.774 497.648 501.706 499.374 500.386 499.374C499.069 499.374 498 497.648 498 495.52C498 493.392 499.069 491.667 500.386 491.667C501.706 491.667 502.774 493.392 502.774 495.52Z" fill="#1B8BC8"/>
<path fill-rule="evenodd" clip-rule="evenodd" d="M517.097 495.52C517.097 497.648 516.028 499.374 514.709 499.374C513.391 499.374 512.323 497.648 512.323 495.52C512.323 493.392 513.391 491.667 514.709 491.667C516.028 491.667 517.097 493.392 517.097 495.52Z" fill="#1B8BC8"/>
<path fill-rule="evenodd" clip-rule="evenodd" d="M530.226 495.52C530.226 497.648 529.157 499.374 527.839 499.374C526.52 499.374 525.452 497.648 525.452 495.52C525.452 493.392 526.52 491.667 527.839 491.667C529.157 491.667 530.226 493.392 530.226 495.52Z" fill="#1B8BC8"/>
<path fill-rule="evenodd" clip-rule="evenodd" d="M544.549 495.52C544.549 497.648 543.48 499.374 542.16 499.374C540.842 499.374 539.774 497.648 539.774 495.52C539.774 493.392 540.842 491.667 542.16 491.667C543.48 491.667 544.549 493.392 544.549 495.52Z" fill="#1B8BC8"/>
<path fill-rule="evenodd" clip-rule="evenodd" d="M557.678 495.52C557.678 497.648 556.609 499.374 555.29 499.374C553.972 499.374 552.903 497.648 552.903 495.52C552.903 493.392 553.972 491.667 555.29 491.667C556.609 491.667 557.678 493.392 557.678 495.52Z" fill="#1B8BC8"/>
<path fill-rule="evenodd" clip-rule="evenodd" d="M502.774 513.248C502.774 514.95 501.706 516.331 500.386 516.331C499.069 516.331 498 514.95 498 513.248C498 511.545 499.069 510.165 500.386 510.165C501.706 510.165 502.774 511.545 502.774 513.248Z" fill="#1B8BC8"/>
<path fill-rule="evenodd" clip-rule="evenodd" d="M517.097 513.248C517.097 514.95 516.028 516.331 514.709 516.331C513.391 516.331 512.323 514.95 512.323 513.248C512.323 511.545 513.391 510.165 514.709 510.165C516.028 510.165 517.097 511.545 517.097 513.248Z" fill="#1B8BC8"/>
<path fill-rule="evenodd" clip-rule="evenodd" d="M530.226 513.248C530.226 514.95 529.157 516.331 527.839 516.331C526.52 516.331 525.452 514.95 525.452 513.248C525.452 511.545 526.52 510.165 527.839 510.165C529.157 510.165 530.226 511.545 530.226 513.248Z" fill="#1B8BC8"/>
<path fill-rule="evenodd" clip-rule="evenodd" d="M544.549 513.248C544.549 514.95 543.48 516.331 542.16 516.331C540.842 516.331 539.774 514.95 539.774 513.248C539.774 511.545 540.842 510.165 542.16 510.165C543.48 510.165 544.549 511.545 544.549 513.248Z" fill="#1B8BC8"/>
<path fill-rule="evenodd" clip-rule="evenodd" d="M557.678 513.248C557.678 514.95 556.609 516.331 555.29 516.331C553.972 516.331 552.903 514.95 552.903 513.248C552.903 511.545 553.972 510.165 555.29 510.165C556.609 510.165 557.678 511.545 557.678 513.248Z" fill="#1B8BC8"/>
<path fill-rule="evenodd" clip-rule="evenodd" d="M502.774 530.205C502.774 531.908 501.706 533.288 500.386 533.288C499.069 533.288 498 531.908 498 530.205C498 528.502 499.069 527.122 500.386 527.122C501.706 527.122 502.774 528.502 502.774 530.205Z" fill="#1B8BC8"/>
<path fill-rule="evenodd" clip-rule="evenodd" d="M517.097 530.205C517.097 531.908 516.028 533.288 514.709 533.288C513.391 533.288 512.323 531.908 512.323 530.205C512.323 528.502 513.391 527.122 514.709 527.122C516.028 527.122 517.097 528.502 517.097 530.205Z" fill="#1B8BC8"/>
<path fill-rule="evenodd" clip-rule="evenodd" d="M530.226 530.205C530.226 531.908 529.157 533.288 527.839 533.288C526.52 533.288 525.452 531.908 525.452 530.205C525.452 528.502 526.52 527.122 527.839 527.122C529.157 527.122 530.226 528.502 530.226 530.205Z" fill="#1B8BC8"/>
<path fill-rule="evenodd" clip-rule="evenodd" d="M544.549 530.205C544.549 531.908 543.48 533.288 542.16 533.288C540.842 533.288 539.774 531.908 539.774 530.205C539.774 528.502 540.842 527.122 542.16 527.122C543.48 527.122 544.549 528.502 544.549 530.205Z" fill="#1B8BC8"/>
<path fill-rule="evenodd" clip-rule="evenodd" d="M557.678 530.205C557.678 531.908 556.609 533.288 555.29 533.288C553.972 533.288 552.903 531.908 552.903 530.205C552.903 528.502 553.972 527.122 555.29 527.122C556.609 527.122 557.678 528.502 557.678 530.205Z" fill="#1B8BC8"/>
<path fill-rule="evenodd" clip-rule="evenodd" d="M572 442.337C572 444.04 570.932 445.42 569.612 445.42C568.294 445.42 567.226 444.04 567.226 442.337C567.226 440.634 568.294 439.254 569.612 439.254C570.932 439.254 572 440.634 572 442.337Z" fill="#1B8BC8"/>
<path fill-rule="evenodd" clip-rule="evenodd" d="M572 459.294C572 460.997 570.932 462.377 569.612 462.377C568.294 462.377 567.226 460.997 567.226 459.294C567.226 457.592 568.294 456.211 569.612 456.211C570.932 456.211 572 457.592 572 459.294Z" fill="#1B8BC8"/>
<path fill-rule="evenodd" clip-rule="evenodd" d="M572 478.564C572 480.691 570.932 482.417 569.612 482.417C568.294 482.417 567.226 480.691 567.226 478.564C567.226 476.435 568.294 474.709 569.612 474.709C570.932 474.709 572 476.435 572 478.564Z" fill="#1B8BC8"/>
<path fill-rule="evenodd" clip-rule="evenodd" d="M572 495.52C572 497.648 570.932 499.374 569.612 499.374C568.294 499.374 567.226 497.648 567.226 495.52C567.226 493.392 568.294 491.667 569.612 491.667C570.932 491.667 572 493.392 572 495.52Z" fill="#1B8BC8"/>
<path fill-rule="evenodd" clip-rule="evenodd" d="M572 513.248C572 514.95 570.932 516.331 569.612 516.331C568.294 516.331 567.226 514.95 567.226 513.248C567.226 511.545 568.294 510.165 569.612 510.165C570.932 510.165 572 511.545 572 513.248Z" fill="#1B8BC8"/>
<path fill-rule="evenodd" clip-rule="evenodd" d="M572 530.205C572 531.908 570.932 533.288 569.612 533.288C568.294 533.288 567.226 531.908 567.226 530.205C567.226 528.502 568.294 527.122 569.612 527.122C570.932 527.122 572 528.502 572 530.205Z" fill="#1B8BC8"/>
<path fill-rule="evenodd" clip-rule="evenodd" d="M502.774 545.388C502.774 547.091 501.706 548.471 500.386 548.471C499.069 548.471 498 547.091 498 545.388C498 543.685 499.069 542.305 500.386 542.305C501.706 542.305 502.774 543.685 502.774 545.388Z" fill="#1B8BC8"/>
<path fill-rule="evenodd" clip-rule="evenodd" d="M517.097 545.388C517.097 547.091 516.028 548.471 514.709 548.471C513.391 548.471 512.323 547.091 512.323 545.388C512.323 543.685 513.391 542.305 514.709 542.305C516.028 542.305 517.097 543.685 517.097 545.388Z" fill="#1B8BC8"/>
<path fill-rule="evenodd" clip-rule="evenodd" d="M530.226 545.388C530.226 547.091 529.157 548.471 527.839 548.471C526.52 548.471 525.452 547.091 525.452 545.388C525.452 543.685 526.52 542.305 527.839 542.305C529.157 542.305 530.226 543.685 530.226 545.388Z" fill="#1B8BC8"/>
<path fill-rule="evenodd" clip-rule="evenodd" d="M544.548 545.388C544.548 547.091 543.48 548.471 542.16 548.471C540.842 548.471 539.774 547.091 539.774 545.388C539.774 543.685 540.842 542.305 542.16 542.305C543.48 542.305 544.548 543.685 544.548 545.388Z" fill="#1B8BC8"/>
<path fill-rule="evenodd" clip-rule="evenodd" d="M557.677 545.388C557.677 547.091 556.609 548.471 555.29 548.471C553.972 548.471 552.903 547.091 552.903 545.388C552.903 543.685 553.972 542.305 555.29 542.305C556.609 542.305 557.677 543.685 557.677 545.388Z" fill="#1B8BC8"/>
<path fill-rule="evenodd" clip-rule="evenodd" d="M502.774 562.345C502.774 564.048 501.706 565.428 500.386 565.428C499.069 565.428 498 564.048 498 562.345C498 560.643 499.069 559.262 500.386 559.262C501.706 559.262 502.774 560.643 502.774 562.345Z" fill="#1B8BC8"/>
<path fill-rule="evenodd" clip-rule="evenodd" d="M517.097 562.345C517.097 564.048 516.028 565.428 514.709 565.428C513.391 565.428 512.323 564.048 512.323 562.345C512.323 560.643 513.391 559.262 514.709 559.262C516.028 559.262 517.097 560.643 517.097 562.345Z" fill="#1B8BC8"/>
<path fill-rule="evenodd" clip-rule="evenodd" d="M530.226 562.345C530.226 564.048 529.157 565.428 527.839 565.428C526.52 565.428 525.452 564.048 525.452 562.345C525.452 560.643 526.52 559.262 527.839 559.262C529.157 559.262 530.226 560.643 530.226 562.345Z" fill="#1B8BC8"/>
<path fill-rule="evenodd" clip-rule="evenodd" d="M544.549 562.345C544.549 564.048 543.48 565.428 542.16 565.428C540.842 565.428 539.774 564.048 539.774 562.345C539.774 560.643 540.842 559.262 542.16 559.262C543.48 559.262 544.549 560.643 544.549 562.345Z" fill="#1B8BC8"/>
<path fill-rule="evenodd" clip-rule="evenodd" d="M557.678 562.345C557.678 564.048 556.609 565.428 555.29 565.428C553.972 565.428 552.903 564.048 552.903 562.345C552.903 560.643 553.972 559.262 555.29 559.262C556.609 559.262 557.678 560.643 557.678 562.345Z" fill="#1B8BC8"/>
<path fill-rule="evenodd" clip-rule="evenodd" d="M502.774 581.615C502.774 583.742 501.706 585.468 500.386 585.468C499.069 585.468 498 583.742 498 581.615C498 579.486 499.069 577.76 500.386 577.76C501.706 577.76 502.774 579.486 502.774 581.615Z" fill="#1B8BC8"/>
<path fill-rule="evenodd" clip-rule="evenodd" d="M517.097 581.615C517.097 583.742 516.028 585.468 514.709 585.468C513.391 585.468 512.323 583.742 512.323 581.615C512.323 579.486 513.391 577.76 514.709 577.76C516.028 577.76 517.097 579.486 517.097 581.615Z" fill="#1B8BC8"/>
<path fill-rule="evenodd" clip-rule="evenodd" d="M530.226 581.615C530.226 583.742 529.157 585.468 527.839 585.468C526.52 585.468 525.452 583.742 525.452 581.615C525.452 579.486 526.52 577.76 527.839 577.76C529.157 577.76 530.226 579.486 530.226 581.615Z" fill="#1B8BC8"/>
<path fill-rule="evenodd" clip-rule="evenodd" d="M544.549 581.615C544.549 583.742 543.48 585.468 542.16 585.468C540.842 585.468 539.774 583.742 539.774 581.615C539.774 579.486 540.842 577.76 542.16 577.76C543.48 577.76 544.549 579.486 544.549 581.615Z" fill="#1B8BC8"/>
<path fill-rule="evenodd" clip-rule="evenodd" d="M557.678 581.615C557.678 583.742 556.609 585.468 555.29 585.468C553.972 585.468 552.903 583.742 552.903 581.615C552.903 579.486 553.972 577.76 555.29 577.76C556.609 577.76 557.678 579.486 557.678 581.615Z" fill="#1B8BC8"/>
<path fill-rule="evenodd" clip-rule="evenodd" d="M502.774 598.571C502.774 600.699 501.706 602.425 500.386 602.425C499.069 602.425 498 600.699 498 598.571C498 596.443 499.069 594.717 500.386 594.717C501.706 594.717 502.774 596.443 502.774 598.571Z" fill="#1B8BC8"/>
<path fill-rule="evenodd" clip-rule="evenodd" d="M517.097 598.571C517.097 600.699 516.028 602.425 514.709 602.425C513.391 602.425 512.323 600.699 512.323 598.571C512.323 596.443 513.391 594.717 514.709 594.717C516.028 594.717 517.097 596.443 517.097 598.571Z" fill="#1B8BC8"/>
<path fill-rule="evenodd" clip-rule="evenodd" d="M530.226 598.571C530.226 600.699 529.157 602.425 527.839 602.425C526.52 602.425 525.452 600.699 525.452 598.571C525.452 596.443 526.52 594.717 527.839 594.717C529.157 594.717 530.226 596.443 530.226 598.571Z" fill="#1B8BC8"/>
<path fill-rule="evenodd" clip-rule="evenodd" d="M544.549 598.571C544.549 600.699 543.48 602.425 542.16 602.425C540.842 602.425 539.774 600.699 539.774 598.571C539.774 596.443 540.842 594.717 542.16 594.717C543.48 594.717 544.549 596.443 544.549 598.571Z" fill="#1B8BC8"/>
<path fill-rule="evenodd" clip-rule="evenodd" d="M557.678 598.571C557.678 600.699 556.609 602.425 555.29 602.425C553.972 602.425 552.903 600.699 552.903 598.571C552.903 596.443 553.972 594.717 555.29 594.717C556.609 594.717 557.678 596.443 557.678 598.571Z" fill="#1B8BC8"/>
<path fill-rule="evenodd" clip-rule="evenodd" d="M572 545.388C572 547.091 570.932 548.471 569.612 548.471C568.294 548.471 567.226 547.091 567.226 545.388C567.226 543.685 568.294 542.305 569.612 542.305C570.932 542.305 572 543.685 572 545.388Z" fill="#1B8BC8"/>
<path fill-rule="evenodd" clip-rule="evenodd" d="M572 562.345C572 564.048 570.932 565.428 569.612 565.428C568.294 565.428 567.226 564.048 567.226 562.345C567.226 560.643 568.294 559.262 569.612 559.262C570.932 559.262 572 560.643 572 562.345Z" fill="#1B8BC8"/>
<path fill-rule="evenodd" clip-rule="evenodd" d="M572 581.615C572 583.742 570.932 585.468 569.612 585.468C568.294 585.468 567.226 583.742 567.226 581.615C567.226 579.486 568.294 577.76 569.612 577.76C570.932 577.76 572 579.486 572 581.615Z" fill="#1B8BC8"/>
<path fill-rule="evenodd" clip-rule="evenodd" d="M572 598.571C572 600.699 570.932 602.425 569.612 602.425C568.294 602.425 567.226 600.699 567.226 598.571C567.226 596.443 568.294 594.717 569.612 594.717C570.932 594.717 572 596.443 572 598.571Z" fill="#1B8BC8"/>
</g>
<path opacity="0.0382022" d="M1258 647.696C1260.98 643.7 1314.89 541.762 1438.07 544.695C1561.25 547.629 1605.93 418.644 1605.93 418.644" stroke="white" stroke-width="6" stroke-linecap="round"/>
<path opacity="0.100656" d="M247.219 211.35C247.219 211.35 327.5 182.764 345.605 249.783C363.711 316.801 411.238 280.939 439.742 290.303C468.246 299.668 471.992 341.658 474.844 364.326" stroke="white" stroke-width="5" stroke-linecap="round"/>
<path opacity="0.0407599" fill-rule="evenodd" clip-rule="evenodd" d="M1217.5 380C1224.96 380 1231 372.214 1231 362.61C1231 353.006 1224.96 345.22 1217.5 345.22C1210.04 345.22 1204 353.006 1204 362.61C1204 372.214 1210.04 380 1217.5 380Z" stroke="white" stroke-width="5"/>
<rect opacity="0.122791" x="1.85406" y="3.26328" width="27.699" height="35.6681" transform="matrix(0.945278 0.326267 -0.203654 0.979043 608.048 126.989)" stroke="white" stroke-width="5"/>
<path opacity="0.031343" fill-rule="evenodd" clip-rule="evenodd" d="M696 -81L834.564 -161L914.564 -22.4359L776 57.5641L696 -81Z" fill="white"/>
</svg>
