<svg width="116" height="116" viewBox="0 0 116 116" fill="none" xmlns="http://www.w3.org/2000/svg">
<path fill-rule="evenodd" clip-rule="evenodd" d="M58 114C88.9279 114 114 88.9279 114 58C114 27.0721 88.9279 2 58 2C27.0721 2 2 27.0721 2 58C2 88.9279 27.0721 114 58 114Z" stroke="#C0C6D3" stroke-width="3" stroke-linecap="round" stroke-dasharray="0 11"/>
<path fill-rule="evenodd" clip-rule="evenodd" d="M58 107C85.062 107 107 85.062 107 58C107 30.938 85.062 9 58 9C30.938 9 9 30.938 9 58C9 85.062 30.938 107 58 107Z" fill="#459E80"/>
<rect x="41" y="38" width="13" height="23" stroke="white" stroke-width="2" stroke-linecap="square"/>
<rect x="41" y="66" width="13" height="12" stroke="white" stroke-width="2" stroke-linecap="square"/>
<rect x="60" y="38" width="15" height="12" stroke="white" stroke-width="2" stroke-linecap="square"/>
<rect x="60" y="55" width="15" height="23" stroke="white" stroke-width="2" stroke-linecap="square"/>
</svg>
