<svg width="40" height="40" viewBox="0 0 40 40" fill="none" xmlns="http://www.w3.org/2000/svg">
<path d="M20 0C8.95428 0 0 8.95428 0 20C0 31.0457 8.95428 40 20 40C31.0457 40 40 31.0457 40 20C40 8.95428 31.0457 0 20 0ZM25.6664 11.971C25.6252 12.1377 25.5435 12.2691 25.4214 12.3727C25.2581 12.4762 25.0947 12.5048 24.944 12.4636C24.5828 12.3819 24.2132 12.3196 23.8267 12.2784C23.4436 12.2379 23.1009 12.2186 22.8037 12.2186C22.2607 12.2186 21.9247 12.3002 21.7959 12.4703C21.6679 12.6396 21.6048 12.9881 21.6048 13.5118V14.8649H25.0358C25.1797 14.8649 25.328 14.9373 25.4812 15.0813C25.5848 15.1814 25.6353 15.333 25.6353 15.5267L25.3751 18.6781C25.3751 18.8448 25.3187 18.9736 25.205 19.0738C25.0922 19.1707 24.9541 19.2178 24.7883 19.2178H21.6056V31.2806C21.6056 31.4473 21.5458 31.5888 21.4297 31.7041C21.3109 31.8237 21.1695 31.8801 21.0028 31.8801H17.0354C16.8721 31.8801 16.7281 31.8237 16.6119 31.7041C16.4958 31.5888 16.436 31.4473 16.436 31.2806V19.2178H14.5121C14.3487 19.2178 14.2048 19.1622 14.0877 19.0427C13.9715 18.9231 13.9118 18.7825 13.9118 18.6192V15.4963C13.9118 15.333 13.9707 15.1857 14.0877 15.0568C14.2048 14.9272 14.3479 14.8649 14.5121 14.8649H16.436V13.2954C16.436 9.62364 18.3135 7.78143 22.067 7.77132C23.3291 7.77132 24.518 7.9313 25.6361 8.24788C25.9746 8.35144 26.1253 8.57119 26.0815 8.90966L25.6664 11.971Z" fill="#459E80"/>
</svg>
