<svg width="556" height="412" viewBox="0 0 556 412" fill="none" xmlns="http://www.w3.org/2000/svg">
<path d="M467.185 346.889C489.236 333.413 496.187 304.61 482.707 282.562C479.699 277.639 475.899 273.517 471.612 270.159C477.192 262.259 483.593 254.625 490.854 247.37C494.222 244.006 497.64 240.832 501.095 237.796C502.48 238.961 503.833 240.166 505.152 241.422L516.646 234.397C522.526 230.802 530.205 232.657 533.8 238.536L545.189 257.169C548.781 263.049 546.927 270.729 541.047 274.323L529.553 281.348C532.137 290.079 533.336 299.03 533.234 307.909L546.226 311.532C552.863 313.387 556.743 320.269 554.892 326.906L549.021 347.943C547.169 354.581 540.287 358.458 533.649 356.609L520.671 352.985C517.227 358.828 513.099 364.317 508.319 369.331L515.347 380.825C518.942 386.705 517.085 394.385 511.208 397.98L492.575 409.368C486.693 412.96 479.013 411.106 475.418 405.226L468.396 393.735C461.665 395.723 454.808 396.874 447.951 397.259C444.034 383.224 442.291 368.545 442.818 353.706C451.139 353.709 459.565 351.544 467.185 346.889Z" fill="#81A5CB"/>
<path d="M434.619 401.176H32.9569C22.0609 401.176 13.2217 392.342 13.2217 381.44V107.477C13.2217 96.5778 22.0609 87.7414 32.9569 87.7414H434.619C445.518 87.7414 454.354 96.5778 454.354 107.477V381.44C454.354 392.342 445.518 401.176 434.619 401.176Z" fill="#E8EBF8"/>
<path d="M432.911 397.052H34.6701C26.0331 397.052 19.0283 390.048 19.0283 381.411V107.507C19.0283 98.8667 26.0331 91.8648 34.6701 91.8648H432.911C441.548 91.8648 448.55 98.8667 448.55 107.507V381.411C448.55 390.048 441.548 397.052 432.911 397.052Z" fill="#84B6E5"/>
<path d="M420.34 370.123H47.2409C41.9168 370.123 37.6011 365.807 37.6011 360.486V115.865C37.6011 110.541 41.9168 106.229 47.2409 106.229H420.34C425.664 106.229 429.977 110.541 429.977 115.865V360.486C429.977 365.807 425.664 370.123 420.34 370.123Z" fill="#4F81B6"/>
<path d="M2.51178 384.924C1.24129 387.265 0.455078 389.909 0.455078 392.76C0.455078 401.896 7.86153 409.302 16.9971 409.302H450.584C459.719 409.302 467.123 401.896 467.123 392.76C467.123 389.909 466.337 387.265 465.066 384.924H2.51178Z" fill="#E8EBF8"/>
<path d="M2.50937 400.597C5.31242 405.759 10.7106 409.302 16.9947 409.302H450.581C456.865 409.302 462.264 405.759 465.064 400.597H2.50937Z" fill="#CED8F0"/>
<path d="M454.354 292.333H448.549V283.473H454.354V292.333ZM151.086 91.8661H140.256V87.7413H151.086V91.8661Z" fill="#C4C6E2"/>
<path d="M448.549 292.333H429.976V283.473H448.549V292.333ZM151.086 106.229H140.256V91.8661H151.086V106.229Z" fill="#699BD9"/>
<path d="M429.976 292.333H148.135C143.782 292.333 140.256 288.809 140.256 284.459V106.229H151.086V275.597C151.086 279.95 154.613 283.473 158.966 283.473H429.976V292.333Z" fill="#436E9A"/>
<path d="M483.251 283.473H454.355V107.476C454.355 96.5776 445.518 87.7412 434.619 87.7412H151.087V72.783C151.087 68.4332 154.613 64.9065 158.966 64.9065H487.798C492.147 64.9065 495.677 68.4332 495.677 72.783V242.709C494.059 244.225 492.452 245.774 490.854 247.37C483.593 254.625 477.192 262.259 471.612 270.159C475.899 273.517 479.699 277.639 482.707 282.562C482.892 282.864 483.074 283.168 483.251 283.473Z" fill="#96C3EA"/>
<path d="M487.798 283.473H483.251C483.075 283.168 482.892 282.864 482.707 282.562C479.699 277.639 475.899 273.517 471.612 270.159C477.192 262.259 483.593 254.625 490.854 247.37C492.452 245.774 494.059 244.225 495.677 242.709V275.597C495.677 279.949 492.148 283.473 487.798 283.473Z" fill="#7DA5DC"/>
<path d="M454.355 283.473H448.549V107.508C448.549 98.8679 441.547 91.866 432.91 91.866H151.087V87.7412H434.619C445.518 87.7412 454.355 96.5776 454.355 107.476V283.473Z" fill="#CCCEEA"/>
<path d="M448.549 283.473H429.976V115.866C429.976 110.542 425.663 106.229 420.339 106.229H151.087V91.866H432.91C441.547 91.866 448.549 98.8679 448.549 107.508V283.473Z" fill="#83ADE0"/>
<path d="M429.976 283.473H158.966C154.613 283.473 151.087 279.949 151.087 275.597V106.229H420.339C425.663 106.229 429.976 110.542 429.976 115.866V283.473Z" fill="#4F81B6"/>
<path d="M501.582 268.706H172.748C168.398 268.706 164.872 265.179 164.872 260.83V58.0158C164.872 53.6631 168.398 50.1394 172.748 50.1394H501.582C505.932 50.1394 509.459 53.6631 509.459 58.0158V260.83C509.459 265.179 505.932 268.706 501.582 268.706Z" fill="#FBFDFE"/>
<path d="M101.246 199.296H66.2935C63.5731 199.296 61.3711 197.091 61.3711 194.373V157.452C61.3711 154.732 63.5731 152.53 66.2935 152.53H101.246C103.964 152.53 106.166 154.732 106.166 157.452V194.373C106.166 197.091 103.964 199.296 101.246 199.296Z" fill="#455AB1"/>
<path d="M98.6635 267.23H63.7109C60.9904 267.23 58.7884 265.023 58.7884 262.305V225.384C58.7884 222.667 60.9904 220.465 63.7109 220.465H98.6635C101.381 220.465 103.583 222.667 103.583 225.384V262.305C103.583 265.023 101.381 267.23 98.6635 267.23Z" fill="#84B6E5"/>
<path d="M98.6637 333.686H63.711C60.9906 333.686 58.7886 331.478 58.7886 328.76V291.839C58.7886 289.122 60.9906 286.92 63.711 286.92H98.6637C101.381 286.92 103.583 289.122 103.583 291.839V328.76C103.583 331.478 101.381 333.686 98.6637 333.686Z" fill="#84B6E5"/>
<path d="M90.9727 305.15C90.9727 299.271 86.2069 294.502 80.3245 294.502C74.4449 294.502 69.6764 299.271 69.6764 305.15C69.6764 305.15 68.178 316.428 80.3245 325.398C92.4739 316.428 90.9727 305.15 90.9727 305.15Z" fill="#459E80"/>
<path d="M80.9506 312.836C76.1991 313.212 72.2623 309.276 72.6355 304.524C72.9289 300.787 75.9598 297.756 79.6972 297.462C84.4487 297.089 88.3855 301.026 88.0095 305.778C87.7161 309.515 84.688 312.543 80.9506 312.836Z" fill="#FBFDFE"/>
<path d="M94.8471 243.227C94.8471 251.362 88.2497 257.96 80.1169 257.96C71.9784 257.96 65.3838 251.362 65.3838 243.227C65.3838 235.091 71.9784 228.497 80.1169 228.497C88.2497 228.497 94.8471 235.091 94.8471 243.227Z" fill="#375A7F"/>
<path d="M91.9943 243.227C91.9943 249.79 86.6759 255.109 80.1155 255.109C73.5523 255.109 68.2339 249.79 68.2339 243.227C68.2339 236.667 73.5523 231.348 80.1155 231.348C86.6759 231.348 91.9943 236.667 91.9943 243.227Z" fill="#FBFDFE"/>
<path d="M80.1145 231.349C85.4984 231.349 90.042 234.93 91.5033 239.841L91.9563 240.188C92.2725 240.188 92.506 239.884 92.4148 239.582C90.8453 234.272 85.9314 230.398 80.1145 230.398C74.2947 230.398 69.3837 234.272 67.8141 239.582C67.7201 239.884 67.9509 240.188 68.2699 240.188L68.7257 239.841C70.1842 234.93 74.7277 231.349 80.1145 231.349Z" fill="#537AA4"/>
<path d="M93.2936 243.609C92.5871 243.609 91.9775 244.121 91.8864 244.822C91.103 250.63 86.1321 255.108 80.1158 255.108C74.0967 255.108 69.1258 250.63 68.3453 244.822C68.2513 244.121 67.6417 243.609 66.9352 243.609C66.0778 243.609 65.4055 244.361 65.5195 245.21C66.4908 252.408 72.6524 257.96 80.1158 257.96C87.5764 257.96 93.7408 252.408 94.7093 245.21C94.8233 244.361 94.151 243.609 93.2936 243.609Z" fill="#375A7F"/>
<path d="M91.9943 243.227C91.9943 249.79 86.6759 255.109 80.1155 255.109C73.5523 255.109 68.2339 249.79 68.2339 243.227C68.2339 236.667 73.5523 231.348 80.1155 231.348C86.6759 231.348 91.9943 236.667 91.9943 243.227Z" fill="#FBFDFE"/>
<path d="M91.6937 247.061L91.2464 247.377C89.5629 251.892 85.2159 255.109 80.1168 255.109C75.0149 255.109 70.668 251.892 68.9844 247.377L68.5343 247.061C68.2039 247.061 67.9703 247.392 68.0871 247.702C69.9017 252.582 74.6019 256.057 80.1168 256.057C85.6261 256.057 90.3291 252.582 92.1466 247.702C92.2605 247.392 92.027 247.061 91.6937 247.061Z" fill="#5A80A7"/>
<path d="M80.0828 244.272C79.7695 244.272 79.5131 244.016 79.5131 243.703V235.336C79.5131 235.023 79.7695 234.769 80.0828 234.769C80.399 234.769 80.6525 235.023 80.6525 235.336V243.703C80.6525 244.016 80.399 244.272 80.0828 244.272Z" fill="#8063B8"/>
<path d="M79.6714 243.387L80.4747 243.318L85.6336 247.677L85.702 248.483L84.8986 248.548L79.7398 244.19L79.6714 243.387Z" fill="#8063B8"/>
<path d="M79.7827 233.297H80.21V232.154H79.7827V233.297Z" fill="#D4D4EE"/>
<path d="M79.7827 254.109H80.21V252.969H79.7827V254.109Z" fill="#D4D4EE"/>
<path d="M69.0176 243.348H70.1604V242.917H69.0176V243.348Z" fill="#D4D4EE"/>
<path d="M89.832 243.348H90.9715V242.917H89.832V243.348Z" fill="#D4D4EE"/>
<path d="M73.1911 236.026L72.8892 236.328L72.083 235.522L72.385 235.217L73.1911 236.026Z" fill="#D4D4EE"/>
<path d="M87.9108 250.745L87.6088 251.047L86.8026 250.241L87.1046 249.936L87.9108 250.745Z" fill="#D4D4EE"/>
<path d="M72.8892 249.936L73.1911 250.241L72.385 251.047L72.083 250.745L72.8892 249.936Z" fill="#D4D4EE"/>
<path d="M87.6089 235.217L87.9109 235.522L87.1047 236.328L86.8027 236.026L87.6089 235.217Z" fill="#D4D4EE"/>
<path d="M98.6635 197.817H63.7109C60.9904 197.817 58.7884 195.615 58.7884 192.895V155.974C58.7884 153.256 60.9904 151.051 63.7109 151.051H98.6635C101.381 151.051 103.583 153.256 103.583 155.974V192.895C103.583 195.615 101.381 197.817 98.6635 197.817Z" fill="#84B6E5"/>
<path d="M56.6353 193.021L60.3271 190.437L61.9878 184.344L60.1419 183.973L59.0366 186.19L60.1419 175.667L58.296 176.034L56.4501 186.19L54.2339 190.989L56.2649 192.28" fill="#F6CE9B"/>
<path d="M78.478 203.974L78.9708 199.541L84.3861 194.129L85.6167 195.849L83.6455 198.063L93.9831 195.604V197.818L84.3861 201.51L82.4177 204.957L78.478 203.974Z" fill="#F6CE9B"/>
<path d="M11.083 313.503L31.2171 412L46.4544 410.368L36.1167 406.559L39.9254 405.471L34.4816 313.503H11.083Z" fill="#375A7F"/>
<path d="M43.189 311.875C43.189 311.875 68.7668 335.817 64.9553 364.657C60.5998 387.511 51.3503 396.22 51.3503 396.22L48.6298 395.675L52.8487 406.833L40.6024 393.773C40.6024 393.773 55.7058 372.958 46.3168 351.325C36.9305 329.693 16.5229 321.939 16.5229 321.939C16.5229 321.939 34.0734 306.023 35.2983 306.428C36.5204 306.838 43.189 311.875 43.189 311.875Z" fill="#375A7F"/>
<path d="M54.0716 189.294C54.0716 189.294 12.0344 240.31 7.13766 250.514C7.13766 250.514 5.09521 254.189 5.09521 264.8C5.09521 275.411 8.76992 314.594 8.76992 314.594L51.6246 317.041C51.6246 317.041 37.7462 269.287 37.3388 268.065C36.9315 266.84 29.9922 259.493 23.4632 257.861L59.3786 192.966L54.0716 189.294Z" fill="#91DA67"/>
<path d="M27.4537 252.933C27.4537 252.933 29.2398 258.229 30.2255 261.434C30.2255 261.434 21.4773 261.248 18.398 257.183L21.6625 249.361L27.4537 252.933Z" fill="#F6CE9B"/>
<path d="M34.104 236.376C34.104 236.376 36.6906 251.442 34.104 254.866C31.5175 258.29 22.6469 252.468 18.9494 246.99C15.2547 241.509 14.5169 229.183 20.7981 228.158C27.0822 227.129 32.6256 230.895 34.104 236.376Z" fill="#F6CE9B"/>
<path d="M30.1295 264.268C30.1295 264.268 63.8317 243.065 66.5492 238.715C69.2668 234.368 76.8784 202.022 76.8784 202.022L83.4017 203.652C83.4017 203.652 79.596 239.804 78.5078 243.609C77.4224 247.415 44.2616 282.75 36.6501 282.75C29.0414 282.75 26.3238 272.962 30.1295 264.268Z" fill="#91DA67"/>
<path d="M15.96 228.83C15.96 228.83 20.3924 222.677 28.2689 224.156C36.1425 225.631 38.1137 223.911 38.1137 223.911C38.1137 223.911 36.3903 232.522 30.9751 234.49C25.5598 236.462 24.0843 235.969 24.0843 235.969C24.0843 235.969 27.0383 238.923 27.7761 241.136C28.5139 243.352 25.3149 238.43 24.0843 240.153C22.8536 241.874 24.0842 245.569 26.5454 245.321C29.0067 245.076 27.5282 247.044 26.5454 249.013C25.5598 250.984 24.0843 253.445 22.6058 252.704C21.1302 251.967 15.96 249.013 13.9916 242.86C12.0232 236.707 11.5303 230.801 15.96 228.83Z" fill="#375A7F"/>
<path d="M285.724 247.292H189.728C187.691 247.292 186.039 245.64 186.039 243.601V76.7196C186.039 74.68 187.691 73.0277 189.728 73.0277H285.724C287.761 73.0277 289.416 74.68 289.416 76.7196V243.601C289.416 245.64 287.761 247.292 285.724 247.292Z" fill="#E8EBF8"/>
<path d="M267.754 101.827H206.711C205.082 101.827 203.76 100.502 203.76 98.8726V90.0106C203.76 88.3783 205.082 87.0565 206.711 87.0565H267.754C269.384 87.0565 270.708 88.3783 270.708 90.0106V98.8726C270.708 100.502 269.384 101.827 267.754 101.827Z" fill="#84B6E5"/>
<path d="M226.159 183.912H212.865C209.74 183.912 207.205 181.376 207.205 178.251C207.205 175.126 209.74 172.594 212.865 172.594H226.159C229.284 172.594 231.82 175.126 231.82 178.251C231.82 181.376 229.284 183.912 226.159 183.912Z" fill="#84B6E5"/>
<path d="M264.556 183.912H251.262C248.137 183.912 245.604 181.376 245.604 178.251C245.604 175.126 248.137 172.594 251.262 172.594H264.556C267.684 172.594 270.217 175.126 270.217 178.251C270.217 181.376 267.684 183.912 264.556 183.912Z" fill="#375A7F"/>
<path d="M202.286 127.915H274.153V116.595H202.286V127.915Z" fill="#FBFDFE"/>
<path d="M202.286 147.115H274.153V135.794H202.286V147.115Z" fill="#FBFDFE"/>
<path d="M217.791 156.837H259.142V154.253H217.791V156.837Z" fill="#D4D3EE"/>
<path d="M502.444 215.046H373.222C365.268 215.046 358.825 208.603 358.825 200.649C358.825 192.699 365.268 186.25 373.222 186.25H502.444C510.394 186.25 516.841 192.699 516.841 200.649C516.841 208.603 510.394 215.046 502.444 215.046Z" fill="#459E80"/>
<path d="M390.577 92.9648H310.089C303.566 92.9648 298.276 87.675 298.276 81.1516C298.276 74.6254 303.566 69.3355 310.089 69.3355H390.577C397.1 69.3355 402.393 74.6254 402.393 81.1516C402.393 87.675 397.1 92.9648 390.577 92.9648Z" fill="#E8EBF8"/>
<path d="M329.29 81.1524C329.29 83.1892 327.635 84.8442 325.596 84.8442C323.556 84.8442 321.904 83.1892 321.904 81.1524C321.904 79.1128 323.556 77.4606 325.596 77.4606C327.635 77.4606 329.29 79.1128 329.29 81.1524Z" fill="#76CFB1"/>
<path d="M354.641 81.1524C354.641 83.1892 352.989 84.8442 350.949 84.8442C348.909 84.8442 347.254 83.1892 347.254 81.1524C347.254 79.1128 348.909 77.4606 350.949 77.4606C352.989 77.4606 354.641 79.1128 354.641 81.1524Z" fill="#459E80"/>
<path d="M378.021 81.1524C378.021 83.1892 376.369 84.8442 374.329 84.8442C372.289 84.8442 370.637 83.1892 370.637 81.1524C370.637 79.1128 372.289 77.4606 374.329 77.4606C376.369 77.4606 378.021 79.1128 378.021 81.1524Z" fill="#82D84F"/>
<path d="M89.6644 177.313C89.6644 182.278 85.6393 186.306 80.6713 186.306C75.7061 186.306 71.6782 182.278 71.6782 177.313C71.6782 172.345 75.7061 168.319 80.6713 168.319C85.6393 168.319 89.6644 172.345 89.6644 177.313Z" fill="white"/>
<path d="M80.8083 183.944C77.162 183.944 74.2023 180.987 74.2023 177.338C74.2023 173.692 77.162 170.735 80.8083 170.735C84.4574 170.735 87.4143 173.692 87.4143 177.338C87.4143 180.987 84.4574 183.944 80.8083 183.944ZM89.9951 166.451H88.4113L86.1324 163.243C85.9558 162.99 85.6624 162.841 85.3519 162.841H76.2647C75.9542 162.841 75.6637 162.99 75.4842 163.243L73.2081 166.451H71.6214C69.1574 166.451 67.1405 168.468 67.1405 170.932V183.97C67.1405 186.434 69.1574 188.451 71.6214 188.451H89.9951C92.462 188.451 94.476 186.434 94.476 183.97V170.932C94.476 168.468 92.462 166.451 89.9951 166.451Z" fill="#459E80"/>
<path d="M85.1758 177.338C85.1758 179.751 83.2216 181.705 80.8088 181.705C78.396 181.705 76.4419 179.751 76.4419 177.338C76.4419 174.928 78.396 172.974 80.8088 172.974C83.2216 172.974 85.1758 174.928 85.1758 177.338Z" fill="#84B6E5"/>
<path d="M402.268 169.186H334.701C331.485 169.186 328.879 166.58 328.879 163.361V122.978C328.879 119.762 331.485 117.156 334.701 117.156H402.268C405.484 117.156 408.094 119.762 408.094 122.978V163.361C408.094 166.58 405.484 169.186 402.268 169.186Z" fill="#E8EBF8"/>
<path d="M368.562 142.768H368.405C368.052 142.768 367.704 142.68 367.397 142.506L336.862 125.542C335.857 124.987 335.492 123.719 336.053 122.714C336.612 121.708 337.876 121.346 338.885 121.905L368.482 138.35L398.085 121.905C399.09 121.346 400.355 121.708 400.914 122.714C401.472 123.719 401.11 124.987 400.105 125.542L369.57 142.506C369.263 142.68 368.915 142.768 368.562 142.768Z" fill="#7AD245"/>
<path d="M519.058 163.854H431.186C428.332 163.854 426.019 161.538 426.019 158.684V42.0154C426.019 39.1611 428.332 36.8479 431.186 36.8479H519.058C521.912 36.8479 524.225 39.1611 524.225 42.0154V158.684C524.225 161.538 521.912 163.854 519.058 163.854Z" fill="#328267"/>
<path d="M447.964 53.8711H441.42C441.07 53.8711 440.788 53.3071 440.788 52.6063C440.788 51.9084 441.07 51.3415 441.42 51.3415H447.964C448.311 51.3415 448.59 51.9084 448.59 52.6063C448.59 53.3071 448.311 53.8711 447.964 53.8711Z" fill="#5FCCF5"/>
<path d="M488.469 53.8711H451.041C450.694 53.8711 450.409 53.3071 450.409 52.6063C450.409 51.9084 450.694 51.3415 451.041 51.3415H488.469C488.82 51.3415 489.099 51.9084 489.099 52.6063C489.099 53.3071 488.82 53.8711 488.469 53.8711Z" fill="#5FCCF5"/>
<path d="M462.98 59.1006H451.041C450.694 59.1006 450.409 58.5337 450.409 57.8358C450.409 57.1379 450.694 56.571 451.041 56.571H462.98C463.327 56.571 463.612 57.1379 463.612 57.8358C463.612 58.5337 463.327 59.1006 462.98 59.1006Z" fill="#91DA67"/>
<path d="M482.618 59.1006H465.413C465.065 59.1006 464.78 58.5337 464.78 57.8358C464.78 57.1379 465.065 56.571 465.413 56.571H482.618C482.966 56.571 483.248 57.1379 483.248 57.8358C483.248 58.5337 482.966 59.1006 482.618 59.1006Z" fill="#E8EBF8"/>
<path d="M488.469 84.562H451.041C450.694 84.562 450.409 83.9952 450.409 83.2972C450.409 82.5993 450.694 82.0325 451.041 82.0325H488.469C488.82 82.0325 489.099 82.5993 489.099 83.2972C489.099 83.9952 488.82 84.562 488.469 84.562Z" fill="#E8EBF8"/>
<path d="M447.964 89.792H441.42C441.07 89.792 440.788 89.2251 440.788 88.5272C440.788 87.8293 441.07 87.2624 441.42 87.2624H447.964C448.311 87.2624 448.59 87.8293 448.59 88.5272C448.59 89.2251 448.311 89.792 447.964 89.792Z" fill="#5FCCF5"/>
<path d="M462.98 89.792H451.041C450.694 89.792 450.409 89.2251 450.409 88.5272C450.409 87.8293 450.694 87.2624 451.041 87.2624H462.98C463.327 87.2624 463.612 87.8293 463.612 88.5272C463.612 89.2251 463.327 89.792 462.98 89.792Z" fill="#E8EBF8"/>
<path d="M482.618 89.792H465.413C465.065 89.792 464.78 89.2251 464.78 88.5272C464.78 87.8293 465.065 87.2624 465.413 87.2624H482.618C482.966 87.2624 483.248 87.8293 483.248 88.5272C483.248 89.2251 482.966 89.792 482.618 89.792Z" fill="#91DA67"/>
<path d="M497.753 64.3306H451.041C450.694 64.3306 450.409 63.7636 450.409 63.0657C450.409 62.365 450.694 61.7981 451.041 61.7981H497.753C498.1 61.7981 498.382 62.365 498.382 63.0657C498.382 63.7636 498.1 64.3306 497.753 64.3306Z" fill="#91DA67"/>
<path d="M487.962 69.5601H477.086C476.719 69.5601 476.419 69.2609 476.419 68.8935V67.6942C476.419 67.3267 476.719 67.0277 477.086 67.0277H487.962C488.332 67.0277 488.629 67.3267 488.629 67.6942V68.8935C488.629 69.2609 488.332 69.5601 487.962 69.5601Z" fill="#5FCCF5"/>
<path d="M466.558 69.5601H451.041C450.694 69.5601 450.409 68.9932 450.409 68.2924C450.409 67.5945 450.694 67.0277 451.041 67.0277H466.558C466.905 67.0277 467.187 67.5945 467.187 68.2924C467.187 68.9932 466.905 69.5601 466.558 69.5601Z" fill="#E8EBF8"/>
<path d="M474.817 69.5601H468.661C468.313 69.5601 468.034 68.9932 468.034 68.2924C468.034 67.5945 468.313 67.0277 468.661 67.0277H474.817C475.164 67.0277 475.446 67.5945 475.446 68.2924C475.446 68.9932 475.164 69.5601 474.817 69.5601Z" fill="#5FCCF5"/>
<path d="M447.964 74.6143H441.42C441.07 74.6143 440.788 74.0474 440.788 73.3495C440.788 72.6516 441.07 72.0847 441.42 72.0847H447.964C448.311 72.0847 448.59 72.6516 448.59 73.3495C448.59 74.0474 448.311 74.6143 447.964 74.6143Z" fill="#E8EBF8"/>
<path d="M497.753 74.6143H451.041C450.694 74.6143 450.409 74.0474 450.409 73.3495C450.409 72.6516 450.694 72.0847 451.041 72.0847H497.753C498.1 72.0847 498.382 72.6516 498.382 73.3495C498.382 74.0474 498.1 74.6143 497.753 74.6143Z" fill="#E8EBF8"/>
<path d="M447.964 94.6348H441.42C441.07 94.6348 440.788 94.0708 440.788 93.37C440.788 92.6721 441.07 92.1052 441.42 92.1052H447.964C448.311 92.1052 448.59 92.6721 448.59 93.37C448.59 94.0708 448.311 94.6348 447.964 94.6348Z" fill="#E8EBF8"/>
<path d="M492.526 94.6348H477.203C476.77 94.6348 476.419 94.2844 476.419 93.8514V92.8886C476.419 92.4556 476.77 92.1052 477.203 92.1052H492.526C492.961 92.1052 493.312 92.4556 493.312 92.8886V93.8514C493.312 94.2844 492.961 94.6348 492.526 94.6348Z" fill="#E8EBF8"/>
<path d="M466.558 94.6348H451.041C450.694 94.6348 450.409 94.0708 450.409 93.37C450.409 92.6721 450.694 92.1052 451.041 92.1052H466.558C466.905 92.1052 467.187 92.6721 467.187 93.37C467.187 94.0708 466.905 94.6348 466.558 94.6348Z" fill="#E8EBF8"/>
<path d="M474.817 94.6348H468.661C468.313 94.6348 468.034 94.0708 468.034 93.37C468.034 92.6721 468.313 92.1052 468.661 92.1052H474.817C475.164 92.1052 475.446 92.6721 475.446 93.37C475.446 94.0708 475.164 94.6348 474.817 94.6348Z" fill="#E8EBF8"/>
<path d="M447.964 99.6899H441.42C441.07 99.6899 440.788 99.1231 440.788 98.4252C440.788 97.7244 441.07 97.1604 441.42 97.1604H447.964C448.311 97.1604 448.59 97.7244 448.59 98.4252C448.59 99.1231 448.311 99.6899 447.964 99.6899Z" fill="#84B6E5"/>
<path d="M459.128 99.6899H451.041C450.694 99.6899 450.409 99.1231 450.409 98.4252C450.409 97.7244 450.694 97.1604 451.041 97.1604H459.128C459.476 97.1604 459.758 97.7244 459.758 98.4252C459.758 99.1231 459.476 99.6899 459.128 99.6899Z" fill="#5FCCF5"/>
<path d="M441.42 79.8442C441.07 79.8442 440.788 79.2773 440.788 78.5794C440.788 77.8786 441.07 77.3146 441.42 77.3146H447.964C448.311 77.3146 448.59 77.8786 448.59 78.5794C448.59 79.2773 448.311 79.8442 447.964 79.8442" fill="#5FCCF5"/>
<path d="M494.671 79.8442H477.254C476.793 79.8442 476.419 79.471 476.419 79.0095V78.1465C476.419 77.6878 476.793 77.3146 477.254 77.3146H494.671C495.132 77.3146 495.505 77.6878 495.505 78.1465V79.0095C495.505 79.471 495.132 79.8442 494.671 79.8442Z" fill="#E8EBF8"/>
<path d="M466.558 79.8442H451.041C450.694 79.8442 450.409 79.2773 450.409 78.5794C450.409 77.8786 450.694 77.3146 451.041 77.3146H466.558C466.905 77.3146 467.187 77.8786 467.187 78.5794C467.187 79.2773 466.905 79.8442 466.558 79.8442Z" fill="#84B6E5"/>
<path d="M474.817 79.8442H468.661C468.313 79.8442 468.034 79.2773 468.034 78.5794C468.034 77.8786 468.313 77.3146 468.661 77.3146H474.817C475.164 77.3146 475.446 77.8786 475.446 78.5794C475.446 79.2773 475.164 79.8442 474.817 79.8442Z" fill="#84B6E5"/>
<path d="M488.469 105.065H451.041C450.694 105.065 450.409 104.499 450.409 103.801C450.409 103.103 450.694 102.536 451.041 102.536H488.469C488.82 102.536 489.099 103.103 489.099 103.801C489.099 104.499 488.82 105.065 488.469 105.065Z" fill="#E8EBF8"/>
<path d="M462.98 110.296H451.041C450.694 110.296 450.409 109.73 450.409 109.032C450.409 108.331 450.694 107.767 451.041 107.767H462.98C463.327 107.767 463.612 108.331 463.612 109.032C463.612 109.73 463.327 110.296 462.98 110.296Z" fill="#E8EBF8"/>
<path d="M482.618 110.296H465.413C465.065 110.296 464.78 109.73 464.78 109.032C464.78 108.331 465.065 107.767 465.413 107.767H482.618C482.966 107.767 483.248 108.331 483.248 109.032C483.248 109.73 482.966 110.296 482.618 110.296Z" fill="#E8EBF8"/>
<path d="M488.469 135.757H451.041C450.694 135.757 450.409 135.193 450.409 134.492C450.409 133.795 450.694 133.228 451.041 133.228H488.469C488.82 133.228 489.099 133.795 489.099 134.492C489.099 135.193 488.82 135.757 488.469 135.757Z" fill="#E8EBF8"/>
<path d="M447.964 140.988H441.42C441.07 140.988 440.788 140.424 440.788 139.723C440.788 139.025 441.07 138.458 441.42 138.458H447.964C448.311 138.458 448.59 139.025 448.59 139.723C448.59 140.424 448.311 140.988 447.964 140.988Z" fill="#91DA67"/>
<path d="M462.98 140.988H451.041C450.694 140.988 450.409 140.424 450.409 139.723C450.409 139.025 450.694 138.458 451.041 138.458H462.98C463.327 138.458 463.612 139.025 463.612 139.723C463.612 140.424 463.327 140.988 462.98 140.988Z" fill="#5FCCF5"/>
<path d="M482.618 140.988H465.413C465.065 140.988 464.78 140.424 464.78 139.723C464.78 139.025 465.065 138.458 465.413 138.458H482.618C482.966 138.458 483.248 139.025 483.248 139.723C483.248 140.424 482.966 140.988 482.618 140.988Z" fill="#E8EBF8"/>
<path d="M447.964 115.526H441.42C441.07 115.526 440.788 114.959 440.788 114.261C440.788 113.56 441.07 112.996 441.42 112.996H447.964C448.311 112.996 448.59 113.56 448.59 114.261C448.59 114.959 448.311 115.526 447.964 115.526Z" fill="#91DA67"/>
<path d="M484.453 115.526H451.172C450.751 115.526 450.409 115.184 450.409 114.765V113.757C450.409 113.335 450.751 112.996 451.172 112.996H484.453C484.874 112.996 485.216 113.335 485.216 113.757V114.765C485.216 115.184 484.874 115.526 484.453 115.526Z" fill="#91DA67"/>
<path d="M447.964 120.757H441.42C441.07 120.757 440.788 120.19 440.788 119.489C440.788 118.791 441.07 118.227 441.42 118.227H447.964C448.311 118.227 448.59 118.791 448.59 119.489C448.59 120.19 448.311 120.757 447.964 120.757Z" fill="#E8EBF8"/>
<path d="M466.558 120.757H451.041C450.694 120.757 450.409 120.19 450.409 119.489C450.409 118.791 450.694 118.227 451.041 118.227H466.558C466.905 118.227 467.187 118.791 467.187 119.489C467.187 120.19 466.905 120.757 466.558 120.757Z" fill="#E8EBF8"/>
<path d="M474.817 120.757H468.661C468.313 120.757 468.034 120.19 468.034 119.489C468.034 118.791 468.313 118.227 468.661 118.227H474.817C475.164 118.227 475.446 118.791 475.446 119.489C475.446 120.19 475.164 120.757 474.817 120.757Z" fill="#E8EBF8"/>
<path d="M447.964 125.81H441.42C441.07 125.81 440.788 125.243 440.788 124.545C440.788 123.847 441.07 123.281 441.42 123.281H447.964C448.311 123.281 448.59 123.847 448.59 124.545C448.59 125.243 448.311 125.81 447.964 125.81Z" fill="#E8EBF8"/>
<path d="M493.383 125.81H451.263C450.793 125.81 450.409 125.428 450.409 124.958V124.135C450.409 123.662 450.793 123.281 451.263 123.281H493.383C493.856 123.281 494.238 123.662 494.238 124.135V124.958C494.238 125.428 493.856 125.81 493.383 125.81Z" fill="#E8EBF8"/>
<path d="M447.964 145.831H441.42C441.07 145.831 440.788 145.264 440.788 144.566C440.788 143.868 441.07 143.301 441.42 143.301H447.964C448.311 143.301 448.59 143.868 448.59 144.566C448.59 145.264 448.311 145.831 447.964 145.831Z" fill="#E8EBF8"/>
<path d="M497.704 145.831H477.052C476.704 145.831 476.419 145.264 476.419 144.566C476.419 143.868 476.704 143.301 477.052 143.301H497.704C498.052 143.301 498.331 143.868 498.331 144.566C498.331 145.264 498.052 145.831 497.704 145.831Z" fill="#E8EBF8"/>
<path d="M466.558 145.831H451.041C450.694 145.831 450.409 145.264 450.409 144.566C450.409 143.868 450.694 143.301 451.041 143.301H466.558C466.905 143.301 467.187 143.868 467.187 144.566C467.187 145.264 466.905 145.831 466.558 145.831Z" fill="#E8EBF8"/>
<path d="M474.817 145.831H468.661C468.313 145.831 468.034 145.264 468.034 144.566C468.034 143.868 468.313 143.301 468.661 143.301H474.817C475.164 143.301 475.446 143.868 475.446 144.566C475.446 145.264 475.164 145.831 474.817 145.831Z" fill="#E8EBF8"/>
<path d="M478.67 150.886H451.104C450.722 150.886 450.409 150.576 450.409 150.194V149.049C450.409 148.667 450.722 148.357 451.104 148.357H478.67C479.052 148.357 479.362 148.667 479.362 149.049V150.194C479.362 150.576 479.052 150.886 478.67 150.886Z" fill="#84B6E5"/>
<path d="M495.77 131.039H477.277C476.804 131.039 476.419 130.654 476.419 130.182V129.367C476.419 128.894 476.804 128.509 477.277 128.509H495.77C496.243 128.509 496.628 128.894 496.628 129.367V130.182C496.628 130.654 496.243 131.039 495.77 131.039Z" fill="#91DA67"/>
<path d="M466.558 131.039H451.041C450.694 131.039 450.409 130.472 450.409 129.774C450.409 129.076 450.694 128.509 451.041 128.509H466.558C466.905 128.509 467.187 129.076 467.187 129.774C467.187 130.472 466.905 131.039 466.558 131.039Z" fill="#84B6E5"/>
<path d="M474.817 131.039H468.661C468.313 131.039 468.034 130.472 468.034 129.774C468.034 129.076 468.313 128.509 468.661 128.509H474.817C475.164 128.509 475.446 129.076 475.446 129.774C475.446 130.472 475.164 131.039 474.817 131.039Z" fill="#84B6E5"/>
<path d="M536.983 39.4721C536.983 50.8894 527.725 60.1445 516.308 60.1445C504.887 60.1445 495.629 50.8894 495.629 39.4721C495.629 28.0519 504.887 18.7967 516.308 18.7967C527.725 18.7967 536.983 28.0519 536.983 39.4721Z" fill="#91DA67"/>
<path d="M514.811 37.5303L506.598 40.5384L514.811 43.5209V46.606L503.069 42.1422V38.9346L514.811 34.4737V37.5303Z" fill="#FBFDFE"/>
<path d="M517.491 34.4737L529.23 38.9346V42.1422L517.491 46.606V43.5209L525.704 40.5384L517.491 37.5303V34.4737Z" fill="#FBFDFE"/>
<path d="M401.977 388.086C401.977 400.475 391.936 410.514 379.55 410.514C367.164 410.514 357.123 400.475 357.123 388.086C357.123 375.703 367.164 365.659 379.55 365.659C391.936 365.659 401.977 375.703 401.977 388.086Z" fill="#79BC51"/>
<path d="M376.541 388.618C376.541 390.658 377.372 391.678 379.033 391.678C379.902 391.678 380.566 391.37 381.022 390.758C381.474 390.142 381.751 389.145 381.848 387.761L382.036 384.556C381.543 384.451 380.987 384.397 380.366 384.397C379.158 384.397 378.218 384.773 377.546 385.527C376.877 386.282 376.541 387.311 376.541 388.618ZM391.39 386.804C391.39 388.197 391.168 389.47 390.724 390.626C390.28 391.78 389.65 392.689 388.838 393.344C388.026 394.005 387.083 394.333 386.009 394.333C385.294 394.333 384.662 394.159 384.109 393.817C383.557 393.472 383.164 393.022 382.922 392.461H382.688C381.645 393.706 380.315 394.333 378.7 394.333C376.991 394.333 375.64 393.817 374.652 392.789C373.669 391.757 373.174 390.347 373.174 388.558C373.174 386.519 373.82 384.875 375.116 383.627C376.415 382.383 378.105 381.759 380.195 381.759C381.027 381.759 381.942 381.836 382.944 381.998C383.941 382.155 384.767 382.348 385.417 382.571L385.084 389.661C385.084 391.005 385.448 391.678 386.183 391.678C386.801 391.678 387.294 391.225 387.665 390.322C388.032 389.416 388.214 388.234 388.214 386.772C388.214 385.22 387.89 383.844 387.24 382.647C386.596 381.454 385.682 380.545 384.508 379.916C383.332 379.289 381.993 378.973 380.483 378.973C378.532 378.973 376.834 379.374 375.393 380.175C373.951 380.978 372.849 382.138 372.08 383.65C371.313 385.163 370.926 386.909 370.926 388.894C370.926 391.561 371.641 393.609 373.065 395.036C374.492 396.46 376.558 397.175 379.267 397.175C380.289 397.175 381.415 397.062 382.645 396.834C383.873 396.606 385.084 396.272 386.272 395.839V398.625C384.201 399.503 381.905 399.944 379.384 399.944C375.709 399.944 372.843 398.979 370.789 397.044C368.733 395.11 367.707 392.421 367.707 388.98C367.707 386.593 368.234 384.422 369.282 382.477C370.331 380.525 371.823 378.998 373.763 377.89C375.7 376.785 377.931 376.23 380.457 376.23C382.583 376.23 384.483 376.668 386.155 377.537C387.827 378.406 389.12 379.645 390.026 381.249C390.935 382.855 391.39 384.707 391.39 386.804Z" fill="white"/>
<path d="M266.846 0.0944448H126.147C114.718 0.0944448 105.455 9.35815 105.455 20.784C105.455 32.2127 114.718 41.4764 126.147 41.4764H136.493L146.495 51.4751L156.493 41.4764H266.846C278.272 41.4764 287.536 32.2127 287.536 20.784C287.536 9.35815 278.272 0.0944448 266.846 0.0944448Z" fill="#459E80"/>
<path d="M226.586 27.3809H134.002C132.723 27.3809 131.687 26.344 131.687 25.065C131.687 23.7888 132.723 22.7518 134.002 22.7518H226.586C227.862 22.7518 228.899 23.7888 228.899 25.065C228.899 26.344 227.862 27.3809 226.586 27.3809Z" fill="white"/>
<path d="M197.652 14.6514H134.002C132.723 14.6514 131.687 13.6145 131.687 12.3383C131.687 11.0593 132.723 10.0223 134.002 10.0223H197.652C198.931 10.0223 199.965 11.0593 199.965 12.3383C199.965 13.6145 198.931 14.6514 197.652 14.6514Z" fill="white"/>
<path d="M459.152 262.28C459.152 262.28 457.431 267.387 456.479 270.475C456.479 270.475 464.917 270.298 467.885 266.379L464.738 258.833L459.152 262.28Z" fill="#F6CE9B"/>
<path d="M457.881 403.147L458.605 406.357L463.262 406.619L462.277 402.685L457.881 403.147Z" fill="#F68965"/>
<path d="M458.608 406.358C458.608 406.358 450.802 410.425 450.865 410.687C450.933 410.952 464.051 409.571 464.051 409.571L463.265 406.62L458.608 406.358Z" fill="#5149A7"/>
<path d="M497.248 396.669L499.074 399.41L503.515 397.977L501.18 394.661L497.248 396.669Z" fill="#F68965"/>
<path d="M499.075 399.409L493.412 406.234L505.314 400.446L503.516 397.976L499.075 399.409Z" fill="#5149A7"/>
<path d="M449.227 318.195C449.227 318.195 435.847 361.884 457.1 403.996H463.396C463.396 403.996 450.802 356.375 466.543 317.805L449.227 318.195Z" fill="#307E64"/>
<path d="M460.843 319.74C460.843 319.74 462.919 365.384 497.086 397.91L503.017 395.793C503.017 395.793 475.154 355.169 477.023 313.55L460.843 319.74Z" fill="#307E64"/>
<path d="M454.718 216.898L454.735 214.203L454.69 213.852L454.177 211.927L452.639 212.317L451.078 210.87C450.414 210.263 449.351 210.462 448.97 211.274C448.485 212.297 447.935 213.619 447.762 214.627C447.693 215.026 447.827 215.431 448.101 215.732L450.494 218.35C450.838 218.726 451.365 218.874 451.855 218.729L453.764 218.165C454.328 217.997 454.715 217.484 454.718 216.898Z" fill="#F6CE9B"/>
<path d="M477.797 275.976C477.797 275.976 460.344 257.271 459.196 250.27C458.045 243.27 455.492 217.225 455.492 217.225L450.111 218.265C450.111 218.265 448.263 255.514 449.895 259.804C451.533 264.094 462.024 285.957 468.861 287.974C475.695 289.994 480.498 283.254 477.797 275.976Z" fill="#91DA67"/>
<path d="M453.557 245.122C453.557 245.122 449.621 258.22 452.113 261.522C454.608 264.824 463.787 261.832 467.35 256.551C470.914 251.267 471.629 239.377 465.57 238.388C459.511 237.397 454.984 239.838 453.557 245.122Z" fill="#F6CE9B"/>
<path d="M477.172 321.738C477.172 321.738 480.712 283.957 480.712 273.722C480.712 273.255 480.704 272.816 480.698 272.374C478.063 265.72 471.523 265.851 468.905 266.375C466.281 266.899 456.049 270.181 456.114 270.574L456.086 270.54C452.562 273.098 449.867 276.135 449.62 276.87C449.62 276.87 440.174 296.551 448.44 320.166L477.172 321.738Z" fill="#91DA67"/>
<path d="M427.149 218.826L426.691 216.174L426.585 215.838L425.742 214.029L424.301 214.684L422.503 213.536C421.748 213.052 420.737 213.437 420.501 214.306C420.207 215.397 419.894 216.795 419.903 217.815C419.905 218.222 420.105 218.596 420.43 218.841L423.244 221C423.651 221.313 424.195 221.365 424.651 221.137L426.432 220.245C426.959 219.983 427.249 219.407 427.149 218.826Z" fill="#F6CE9B"/>
<path d="M460.244 272.936C460.244 272.936 439.779 257.587 437.421 250.893C435.056 244.204 427.972 219.014 427.972 219.014L422.855 220.982C422.855 220.982 427.579 257.98 429.94 261.914C432.302 265.851 446.471 285.529 453.555 286.318C460.64 287.105 464.181 279.624 460.244 272.936Z" fill="#91DA67"/>
<path d="M468.12 238.3C468.12 238.3 457.623 233.842 452.638 243.026C450.014 248.797 458.412 243.285 459.984 245.122C461.56 246.96 457.885 250.634 458.936 251.945C459.984 253.255 461.822 249.583 462.873 251.683C463.921 253.782 461.298 254.044 459.46 256.406C457.623 258.767 461.035 262.177 458.412 264.279C455.788 266.376 448.442 267.951 452.9 279.235C457.364 290.515 445.553 293.401 450.541 308.883C455.526 324.363 489.374 333.023 495.672 314.655C501.967 296.289 480.979 291.826 482.289 283.693C483.602 275.56 488.325 273.461 482.027 265.328C475.729 257.192 471.792 252.469 473.632 247.222C475.467 241.972 470.482 238.3 468.12 238.3Z" fill="#375A7F"/>
<path d="M505.39 198.425C503.869 198.425 502.633 197.192 502.633 195.67C502.633 194.144 503.869 192.913 505.39 192.913C506.911 192.913 508.148 194.144 508.148 195.67C508.148 197.192 506.911 198.425 505.39 198.425ZM496.742 209.737C493.107 209.737 490.116 207.036 489.637 203.536H503.846C503.368 207.036 500.374 209.737 496.742 209.737ZM485.336 195.67C485.336 194.144 486.569 192.913 488.093 192.913C489.614 192.913 490.848 194.144 490.848 195.67C490.848 197.192 489.614 198.425 488.093 198.425C486.569 198.425 485.336 197.192 485.336 195.67ZM496.742 174.861C484.282 174.861 474.178 184.962 474.178 197.425C474.178 209.885 484.282 219.986 496.742 219.986C509.202 219.986 519.306 209.885 519.306 197.425C519.306 184.962 509.202 174.861 496.742 174.861Z" fill="#AAE387"/>
<path d="M161.591 357.897L160.272 355.254L196.037 337.373L241.159 338.111L290.153 319.657H327.572L367.524 306.337L367.852 306.374L399.893 310.015L417.954 300.623L419.315 303.244L400.457 313.052L400.007 313L367.843 309.345L327.812 322.609H290.423L241.678 341.076L241.396 341.071L196.715 340.339L161.591 357.897Z" fill="#FBFDFE"/>
<path d="M292.864 287.039C292.864 287.039 328.307 344.445 323.874 384.382L347.997 384.878L337.659 378.89L340.613 378.389C340.613 378.389 331.751 316.491 323.382 294.525C314.616 271.52 312.061 280.048 312.061 280.048L292.864 287.039Z" fill="#375A7F"/>
<path d="M280.06 283.473C280.06 283.473 282.031 323.348 279.077 338.606C276.123 353.868 267.261 383.896 267.261 383.896L289.905 384.389L283.96 380.19L280.183 377.991C280.183 377.991 296.306 334.669 297.781 313.996C299.26 293.318 301.721 281.502 301.721 281.502L280.06 283.473Z" fill="#375A7F"/>
<path d="M326.396 165.451L330.088 162.867L331.749 156.774L329.903 156.407L328.797 158.62L329.903 148.1L328.057 148.468L326.214 158.62L323.995 163.42L326.026 164.713" fill="#F6CE9B"/>
<path d="M348.241 176.405L348.733 171.975L354.149 166.56L355.379 168.283L353.408 170.499L363.746 168.035V170.251L354.149 173.943L352.18 177.39L348.241 176.405Z" fill="#F6CE9B"/>
<path d="M323.835 161.728C323.835 161.728 281.795 212.744 276.898 222.948C276.898 222.948 274.855 226.62 274.855 237.231C274.855 247.845 278.53 287.025 278.53 287.025L321.385 289.472C321.385 289.472 307.506 241.724 307.102 240.499C306.692 239.274 299.752 231.927 293.221 230.295L329.139 165.4L323.835 161.728Z" fill="#69AB42"/>
<path d="M297.217 225.364C297.217 225.364 299.004 230.665 299.986 233.867C299.986 233.867 291.241 233.682 288.162 229.617L291.429 221.792L297.217 225.364Z" fill="#F6CE9B"/>
<path d="M303.867 208.807C303.867 208.807 306.453 223.877 303.867 227.298C301.28 230.722 292.409 224.902 288.712 219.421C285.02 213.946 284.28 201.614 290.564 200.589C296.845 199.563 302.388 203.329 303.867 208.807Z" fill="#F6CE9B"/>
<path d="M299.89 236.698C299.89 236.698 333.592 215.499 336.309 211.149C339.03 206.802 346.639 174.456 346.639 174.456L353.162 176.088C353.162 176.088 349.359 212.237 348.271 216.043C347.183 219.849 314.022 255.18 306.41 255.18C298.802 255.18 296.084 245.398 299.89 236.698Z" fill="#69AB42"/>
<path d="M301.477 205.449C301.477 205.449 303.198 199.541 299.509 196.587C295.817 193.636 289.416 194.129 288.43 195.112C288.43 196.835 292.37 197.818 291.384 198.803C290.399 199.789 285.231 198.803 284.001 203.974C282.77 209.141 284.493 210.127 284.493 210.127C284.493 210.127 281.784 213.326 284.983 217.755C288.185 222.185 295.415 225.837 297.215 225.364C299.016 224.891 298.03 218 298.03 218C298.03 218 293.846 217.51 293.598 214.801C293.353 212.095 295.569 211.847 296.552 212.833C297.537 213.818 297.782 216.032 298.523 215.539C299.261 215.046 298.275 209.879 298.275 209.879C298.275 209.879 300.984 207.665 301.477 205.449Z" fill="#375A7F"/>
<path d="M321.316 356.253L296.003 363.192C289.044 365.104 284.914 372.359 286.819 379.318L291.608 396.775C293.516 403.737 300.775 407.87 307.734 405.961L315.323 403.876L322.795 411.263L325.455 401.099L333.047 399.016C340.006 397.108 344.139 389.852 342.231 382.89L337.442 365.434C335.531 358.475 328.275 354.341 321.316 356.253Z" fill="#459E80"/>
<path d="M304.565 384.858C304.99 386.405 304.081 388 302.534 388.424C300.987 388.849 299.392 387.94 298.965 386.393C298.543 384.847 299.452 383.249 300.999 382.824C302.543 382.4 304.141 383.311 304.565 384.858Z" fill="white"/>
<path d="M317.321 381.358C317.745 382.905 316.836 384.503 315.289 384.927C313.743 385.349 312.145 384.44 311.723 382.893C311.296 381.346 312.207 379.751 313.754 379.324C315.298 378.902 316.896 379.811 317.321 381.358Z" fill="white"/>
<path d="M330.078 377.86C330.502 379.407 329.594 381.002 328.047 381.429C326.5 381.851 324.905 380.942 324.478 379.395C324.056 377.848 324.965 376.25 326.512 375.829C328.058 375.401 329.656 376.313 330.078 377.86Z" fill="white"/>
<path d="M200.807 338.113C200.807 340.699 198.713 342.79 196.13 342.79C193.546 342.79 191.455 340.699 191.455 338.113C191.455 335.532 193.546 333.438 196.13 333.438C198.713 333.438 200.807 335.532 200.807 338.113Z" fill="#65CEAB"/>
<path d="M372.609 308.085C372.609 310.669 370.513 312.763 367.932 312.763C365.348 312.763 363.254 310.669 363.254 308.085C363.254 305.504 365.348 303.411 367.932 303.411C370.513 303.411 372.609 305.504 372.609 308.085Z" fill="#69AB42"/>
</svg>
