<svg width="41" height="40" viewBox="0 0 41 40" fill="none" xmlns="http://www.w3.org/2000/svg">
<path d="M26.5545 19.9796C26.5545 21.4607 25.9777 22.8406 24.9312 23.888C23.8846 24.9346 22.492 25.513 21.0118 25.513C19.5308 25.513 18.1391 24.9397 17.0925 23.8923C16.0451 22.8457 15.4692 21.4598 15.4692 19.9796C15.4692 19.4383 15.5467 18.9112 15.6957 18.4161H13.0688V27.0774C13.0688 27.5144 13.4737 27.9185 13.9099 27.9185H28.1635C28.6005 27.9185 28.9061 27.5135 28.9061 27.0774V18.4153H26.3288C26.477 18.9112 26.5545 19.4383 26.5545 19.9796Z" fill="#459E80"/>
<path d="M21.0118 23.9261C23.1982 23.9261 24.9707 22.1537 24.9707 19.9672C24.9707 17.7808 23.1982 16.0083 21.0118 16.0083C18.8253 16.0083 17.0529 17.7808 17.0529 19.9672C17.0529 22.1537 18.8253 23.9261 21.0118 23.9261Z" fill="#459E80"/>
<path d="M28.1137 12.0813H25.7377C25.3008 12.0813 24.9454 12.4358 24.9454 12.8736V15.2496C24.9454 15.6866 25.2999 16.0419 25.7377 16.0419H28.1137C28.5516 16.0419 28.906 15.6874 28.906 15.2496V12.8736C28.9052 12.4358 28.5507 12.0813 28.1137 12.0813Z" fill="#459E80"/>
<path d="M20.9873 0C9.94158 0 0.987305 8.95428 0.987305 20C0.987305 31.0457 9.94158 40 20.9873 40C32.0322 40 40.9873 31.0457 40.9873 20C40.9873 8.95428 32.0322 0 20.9873 0ZM30.4889 27.1516C30.4889 28.4491 29.4364 29.5024 28.1381 29.5024H13.8348C12.5365 29.5024 11.4841 28.4491 11.4841 27.1516V12.8484C11.4841 11.5492 12.5374 10.4976 13.8348 10.4976H28.1381C29.4364 10.4976 30.4889 11.5492 30.4889 12.8484V27.1516Z" fill="#459E80"/>
</svg>
