<svg width="516" height="431" viewBox="0 0 516 431" fill="none" xmlns="http://www.w3.org/2000/svg">
<path d="M515.411 416.428C515.411 424.475 402.548 431 263.322 431C124.098 431 11.2334 424.475 11.2334 416.428C11.2334 408.382 124.098 401.857 263.322 401.857C402.548 401.857 515.411 408.382 515.411 416.428Z" fill="#C9CBDD"/>
<path d="M232.75 254.41H236.689C238.455 254.41 239.892 252.974 239.892 251.207V247.566C239.892 245.8 238.455 244.362 236.689 244.362H232.75V254.41ZM236.689 256.469H230.693V242.303H236.689C239.59 242.303 241.949 244.665 241.949 247.566V251.207C241.949 254.109 239.59 256.469 236.689 256.469Z" fill="#4F81B6"/>
<path d="M229.563 171.695C226.679 172.513 224.671 174.208 223.214 176.17C221.764 178.136 220.852 180.401 220.573 182.54C219.909 187.099 221.094 192.005 222.677 197.248C223.059 198.577 223.495 199.932 223.92 201.328C224.317 202.733 224.757 204.164 225.112 205.656C225.834 208.627 226.402 211.817 226.37 215.12C226.339 218.479 225.654 221.829 224.149 224.841C222.661 227.822 220.24 230.496 217.209 231.697L216.575 230.96C218.136 228.433 218.807 225.873 219.008 223.312C219.207 220.76 218.965 218.212 218.399 215.791C217.286 210.81 214.955 205.811 213.155 199.944C212.724 198.461 212.32 196.939 211.997 195.369C211.707 193.793 211.452 192.176 211.367 190.509C211.185 187.197 211.538 183.635 212.875 180.341C214.257 176.911 216.649 174.082 219.664 172.222C221.174 171.304 222.845 170.63 224.575 170.348C226.296 170.05 228.073 170.18 229.611 170.738L229.563 171.695Z" fill="#D9DFFF"/>
<path d="M226.135 238.121H210.273V256.299C210.273 258.089 211.07 259.69 212.324 260.777C213.364 261.679 214.719 262.23 216.205 262.23H225.772C229.047 262.23 231.702 259.575 231.702 256.299V238.121H226.135Z" fill="#81A5CB"/>
<path d="M226.135 238.121V254.847C226.135 258.122 223.48 260.777 220.204 260.777H212.324C213.364 261.679 214.719 262.23 216.205 262.23H225.772C229.047 262.23 231.702 259.575 231.702 256.299V238.121H226.135Z" fill="#4F81B6"/>
<path d="M339.891 316.871H334.117V407.34H339.891V316.871Z" fill="#328267"/>
<path d="M343.646 319.633L280.302 318.772L274.982 227.829C274.351 216.198 283.649 206.438 295.298 206.506L333.041 206.129C349.596 206.129 358.441 221.387 356.06 237.769L343.646 319.633Z" fill="#81A5CB" fill-opacity="0.66"/>
<path d="M343.738 319.758H263.878V315.974C263.878 304.513 273.169 295.222 284.629 295.222H322.986C334.447 295.222 343.738 304.513 343.738 315.974V319.758Z" fill="#459E80"/>
<path d="M273.499 316.871H267.726V407.34H273.499V316.871Z" fill="#328267"/>
<path d="M326.667 158.652C332.544 158.251 338.485 161.88 340.81 167.293C345.276 177.69 336.63 189.898 339.886 200.736C341.239 205.238 344.481 208.869 347.263 212.656C350.044 216.442 352.527 220.915 351.966 225.581C351.363 230.597 347.092 234.73 342.187 235.949C337.284 237.168 331.977 235.78 327.756 233.002C323.534 230.225 320.293 226.173 317.672 221.852C308.588 206.887 304.435 182.491 314.555 167.01C317.455 162.576 321.051 159.035 326.667 158.652Z" fill="#375A7F"/>
<path d="M318.57 172.765C324.233 172.404 329.954 175.668 332.195 180.538C336.498 189.893 328.167 200.873 331.303 210.622C332.607 214.672 335.728 217.939 338.408 221.346C341.089 224.753 343.482 228.774 342.941 232.971C342.36 237.485 338.245 241.204 333.521 242.3C328.798 243.395 323.685 242.147 319.618 239.648C315.553 237.152 312.43 233.504 309.905 229.619C301.154 216.154 297.154 194.212 306.903 180.284C309.695 176.295 313.161 173.109 318.57 172.765Z" fill="#294462"/>
<path d="M334.437 280.309H286.649C286.295 280.309 286.008 280.022 286.008 279.668V229.113C286.008 217.533 295.395 208.146 306.975 208.146H314.111C325.691 208.146 335.078 217.533 335.078 229.113V279.668C335.078 280.022 334.791 280.309 334.437 280.309Z" fill="#69AB42"/>
<path d="M341.573 227.389C341.573 227.389 359.374 248.076 355.524 261.066C355.524 261.066 355.524 267.801 327.863 260.825L304.529 256.977L303.568 250.482C309.198 250.262 315.406 250.29 322.089 250.723C329.878 251.227 336.97 252.197 343.256 253.367C341.576 251.496 339.874 249.33 338.115 246.934C335.379 243.205 332.313 238.455 330.988 234.365L341.573 227.389Z" fill="#F6CE9B"/>
<path d="M320.501 209.998C320.501 209.998 337.645 207.984 351.756 242.303L336.362 248.397C336.362 248.397 326.42 234.926 324.975 223.219C323.532 211.514 320.501 209.998 320.501 209.998Z" fill="#69AB42"/>
<path d="M276.368 227.093C276.368 227.093 256.501 246.954 254.576 259.621C254.576 259.621 254.855 263.394 283.311 261.375H307.818L309.736 256.491C304.23 255.289 298.116 254.225 291.458 253.479C283.703 252.612 276.55 252.324 270.155 252.375C272.138 250.826 274.195 248.99 276.345 246.939C279.692 243.75 283.546 239.61 285.566 235.815L276.368 227.093Z" fill="#F6CE9B"/>
<path d="M301.369 209.569C301.369 209.569 283.638 208.678 263.727 239.99L277.815 248.689C277.815 248.689 289.966 237.17 293.44 225.898C296.911 214.626 301.369 209.569 301.369 209.569Z" fill="#69AB42"/>
<path d="M330.591 262.243H269.011V256.71H330.591V262.243Z" fill="#97B5BA"/>
<path d="M472.736 395.812C469.045 399.384 448.24 404.675 446.927 406.712C446.465 407.433 446.345 408.387 446.714 409.158C447.751 411.328 451.507 410.261 453.334 410.18C455.568 410.082 479.268 408.94 479.284 409.028L479.523 410.349L487.443 409.983L486.907 395.455C486.907 395.455 480.833 395.693 472.736 395.812Z" fill="#293F57"/>
<path d="M443.788 388.917C440.551 392.906 420.53 400.652 419.472 402.832C419.099 403.601 419.095 404.564 419.552 405.286C420.843 407.315 424.444 405.807 426.246 405.507C428.452 405.141 451.846 401.168 451.873 401.255L452.268 402.536L460.086 401.223L457.814 386.866C457.814 386.866 451.812 387.829 443.788 388.917Z" fill="#293F57"/>
<path d="M401.527 213.247C401.527 213.247 398.864 253.195 398.856 253.294C398.581 257.443 392.091 256.875 389.264 257.342C384.825 258.074 379.172 259.717 375.771 262.812C376.996 263.468 379.412 263.22 380.858 263.298C382.705 263.397 384.553 263.47 386.401 263.531C390.192 263.658 393.985 263.736 397.775 263.9C397.775 263.9 408.001 263.257 407.672 257.159C407.341 251.058 415.101 214.438 415.101 214.438L401.527 213.247Z" fill="#EDC898"/>
<path d="M394.667 222.333L417.265 225.679L421.06 194.702C421.976 188.064 422.264 177.192 415.504 175.907C415.382 175.883 413.989 175.472 413.865 175.45C406.273 174.149 395.846 184.919 395.586 192.421L394.667 222.333Z" fill="#83C55D"/>
<path d="M449.937 245.131L423.663 306.894C421.659 311.602 421.289 316.819 422.606 321.753L441.538 390.93L457.971 389.261C456.981 378.427 458.43 344.005 452.423 333.006C449.166 327.042 449.188 319.896 452.784 314.12L460.163 302.273L464.451 245.451L449.937 245.131Z" fill="#304F71"/>
<path d="M476.493 233.253L472.534 222.658C472.534 222.658 493.319 241.438 490.349 258.775C487.786 273.735 483.382 307.702 482.224 316.728C482.033 318.213 482.17 319.702 482.626 321.132L487.47 336.341C488.611 339.929 489.131 343.674 489.006 347.428L487.381 396.012H470.555L456.448 319.642C456.286 318.765 456.196 317.876 456.182 316.986L454.885 244.489L476.493 233.253Z" fill="#375A7F"/>
<path d="M418.514 171.523C430.946 174.299 459.066 188.308 480.834 231.841C483.723 237.619 475.71 244.47 471.286 246.796C467.723 248.67 463.732 249.69 459.756 250.189C457.491 250.476 455.206 250.586 452.923 250.549C451.976 250.535 446.05 250.734 445.647 249.946C444.131 246.981 442.144 243.025 439.163 238.768C436.518 234.993 433.342 230.927 429.482 225.869C420.364 213.919 410.73 205.358 403.091 199.544C401.982 198.131 399.378 194.526 399.177 189.357C399.031 185.612 400.142 181.063 404.081 176.11C407.384 171.956 413.252 170.349 418.514 171.523Z" fill="#91DA67"/>
<path d="M405.069 192.804L382.058 216.081C380.7 217.453 379.059 218.514 377.249 219.185L340.504 232.834C338.098 233.727 335.456 233.747 333.034 232.891L328.532 231.296C326.801 230.684 324.944 230.518 323.133 230.811L304.835 234.221L305.073 236.245L320.284 236.464L322.648 240.63C324.363 243.655 327.969 245.163 331.404 244.291L383.698 231.028C386.257 230.378 388.641 229.169 390.674 227.486L416.286 206.287L405.069 192.804Z" fill="#F6CE9B"/>
<path d="M375.111 162.402C375.329 161.765 375.242 161.07 374.863 160.51C373.291 158.185 369.904 151.253 379.319 144.324C379.319 144.324 396.26 133.696 403.769 150.47C405.915 155.266 405.309 159.497 403.53 162.779C402.744 164.23 412.146 170.948 413.275 171.349C414.593 171.813 417.127 177.54 401.582 184.778C400.932 183.731 400.683 183.651 399.622 182.184C396.273 177.547 392.112 175.321 388.444 176.758C386.736 177.428 383.679 179.64 381.824 178.693C380.832 178.186 378.761 173.622 378.197 173.147L377.907 172.902C377.361 172.441 377.04 171.775 377.03 171.07L377.012 169.922L374.662 168.917C373.773 168.536 373.33 167.558 373.639 166.664L375.111 162.402Z" fill="#F6CE9B"/>
<path d="M394.047 161.641C394.688 161.544 395.332 161.447 395.973 161.351C395.552 160.47 395.119 159.533 395.231 158.569C395.346 157.603 396.241 156.657 397.22 156.844C398.498 157.087 398.712 158.728 398.964 159.971C399.735 163.785 403.967 166.59 407.897 165.897C408.166 161.273 408.435 156.593 407.525 152.048C406.617 147.502 404.394 143.031 400.553 140.297C396.987 137.758 392.385 136.953 387.969 137.063C383.301 137.181 378.662 138.246 374.435 140.177C372.478 141.068 370.57 142.176 369.189 143.793C367.81 145.411 367.025 147.618 367.55 149.657C368.234 152.316 370.978 154.084 373.754 154.538C376.53 154.991 379.363 154.39 382.111 153.794C384.292 153.32 388.394 151.882 390.118 153.677C390.845 154.435 393.343 161.745 394.047 161.641Z" fill="#375A7F"/>
<path d="M390.555 203.397L405.73 218.807L425.382 200.167C430.114 195.679 430.506 188.333 426.14 183.508C426.06 183.42 425.98 183.332 425.898 183.246C420.906 177.935 412.127 178.408 407.369 183.919L390.555 203.397Z" fill="#91DA67"/>
<path d="M318.911 262.217H268.397L254.836 233.029C254.542 232.393 255.007 231.668 255.705 231.668H301.293C303.383 231.668 305.282 232.88 306.162 234.774L318.911 262.217Z" fill="#C1E9ED"/>
<path d="M413.996 268.473H129.609L131.894 262.169H411.711L413.996 268.473Z" fill="#307E64"/>
<path d="M294.748 185.214C294.748 185.214 295.731 207.223 302.516 208.135C310.855 209.258 316.633 205.055 318.03 197.638C318.59 194.661 317.906 186.053 317.133 180.621C316.644 177.185 312.679 173.89 309.258 173.318C307.311 172.99 304.951 173.028 302.284 173.908C293.305 176.875 294.748 185.214 294.748 185.214Z" fill="#F6CE9B"/>
<path d="M304.77 203.816C304.77 203.816 304.529 209.348 304.77 211.754C304.77 211.754 307.256 216.484 312.707 215.362C318.16 214.239 317.278 210.671 317.278 210.671L316.477 194.995L304.77 203.816Z" fill="#F6CE9B"/>
<path d="M327.773 182.061C326.604 174.54 320.051 168.267 312.524 167.142C306.883 166.298 301.015 168.295 296.781 172.048C291.957 176.325 289.936 181.896 291.168 188.337C295.711 189.626 313.612 189.594 317.006 189.405C317.155 193.039 318.358 196.128 318.459 199.788C325.576 197.09 328.942 189.581 327.773 182.061Z" fill="#375A7F"/>
<path d="M320.905 194.821C320.478 196.699 319.161 198.002 317.962 197.729C316.764 197.457 316.139 195.712 316.566 193.834C316.993 191.956 318.312 190.655 319.509 190.926C320.707 191.2 321.332 192.942 320.905 194.821Z" fill="#F6CE9B"/>
<path d="M308.248 197.889C306.392 197.889 304.879 196.764 304.879 195.381C304.879 193.998 306.392 192.873 308.248 192.873C310.104 192.873 311.617 193.998 311.617 195.381C311.617 196.764 310.104 197.889 308.248 197.889ZM299.578 195.381C299.578 196.764 298.067 197.889 296.209 197.889C294.353 197.889 292.841 196.764 292.841 195.381C292.841 193.998 294.353 192.873 296.209 192.873C297.765 192.873 299.147 193.695 299.495 194.829L299.658 194.779C299.604 194.967 299.578 195.168 299.578 195.381ZM318.128 191.382L317.312 190.384L312.65 194.195C312.037 192.684 310.305 191.584 308.248 191.584C306.435 191.584 304.878 192.442 304.108 193.676C303.018 193.236 301.558 193.111 300.601 193.628C300.537 193.664 300.474 193.701 300.416 193.742C299.657 192.442 298.036 191.584 296.209 191.584C293.641 191.584 291.552 193.287 291.552 195.381C291.552 197.475 293.641 199.178 296.209 199.178C298.778 199.178 300.867 197.475 300.867 195.381C300.867 195.079 300.972 194.894 301.216 194.762C301.809 194.442 302.887 194.577 303.651 194.896C303.626 195.057 303.591 195.215 303.591 195.381C303.591 197.475 305.679 199.178 308.248 199.178C310.69 199.178 312.675 197.634 312.869 195.684L318.128 191.382Z" fill="#375A7F"/>
<path d="M304.379 207.992L304.771 211.754C304.771 211.754 309.107 217.88 313.837 206.702C318.566 195.523 314.411 203.836 314.411 203.836C314.411 203.836 310.111 208.994 304.379 207.992" fill="#E0B47B"/>
<path d="M325.119 175.331C325.587 174.438 325.875 173.444 325.875 172.38C325.875 168.698 322.731 165.715 318.853 165.715C317.029 165.715 315.384 166.392 314.137 167.471C318.601 168.593 322.59 171.5 325.119 175.331Z" fill="#AAE387"/>
<path d="M374.889 410.492H368.008V268.255H374.889V410.492Z" fill="#307E64"/>
<path d="M124.45 367.14L120.366 381.758L111.552 379.179L116.066 364.345L124.45 367.14Z" fill="#F6CE9B"/>
<path d="M81.9055 300.584L126.068 308.841C127.353 309.225 127.858 310.777 127.028 311.834C123.435 316.402 116.025 330.119 111.898 368.215L123.937 371.226L151.453 303.295L153.602 286.957L81.9055 300.584Z" fill="#304F71"/>
<path d="M187.436 337.904C190.553 339.795 194.352 342.498 198.184 346.288C201.312 349.381 203.692 352.436 205.473 355.065C207.76 357.377 207.912 361.009 205.988 363.358C203.746 366.099 199.648 366.362 197.072 363.93C194.038 361.918 190.545 359.247 187.006 355.747C184.398 353.168 182.26 350.626 180.526 348.312C180.271 348.073 179.72 347.488 179.451 346.543C179.261 345.88 179.247 345.165 179.429 344.473L180.986 338.549L187.436 337.904Z" fill="#293F57"/>
<path d="M184.856 333.39L189.437 340.083C190.077 341.02 190.283 342.19 189.997 343.29C189.426 345.493 187.109 346.752 184.948 346.032L184.017 345.722C183.039 345.396 182.229 344.701 181.76 343.783L177.763 335.971L184.856 333.39Z" fill="#F6CE9B"/>
<path d="M71.926 268.614C71.926 268.614 60.1755 288.103 69.3468 302.434C78.5182 316.767 140.143 293.263 140.143 293.263C140.143 293.263 169.951 336.543 177.117 339.41C177.117 339.41 186.003 339.41 187.724 334.824C187.724 334.824 163.645 277.211 144.729 274.346L98.5833 275.778L71.926 268.614Z" fill="#375A7F"/>
<path d="M69.4901 409.918H59.746L71.211 311.894H80.955L69.4901 409.918Z" fill="#459E80"/>
<path d="M124.522 409.918H134.266L122.803 311.894H113.057L124.522 409.918Z" fill="#459E80"/>
<path d="M100.59 409.489H91.1314V311.035H100.59V409.489Z" fill="#328267"/>
<path d="M128.679 317.342H67.915C64.6029 317.342 61.8955 314.311 61.8955 310.605C61.8955 306.9 64.6029 303.869 67.915 303.869H128.679C131.988 303.869 134.698 306.9 134.698 310.605C134.698 314.311 131.988 317.342 128.679 317.342Z" fill="#81A5CB"/>
<path d="M135.102 390.996L125.746 379.902C125.475 378.935 125.154 377.981 124.78 377.051C124.487 376.323 124.039 375.508 123.263 375.398C122.582 375.298 121.94 375.827 121.672 376.46C121.446 376.997 121.383 377.607 121.424 378.242C116.417 378.103 111.951 373.589 111.951 373.589C109.329 376.04 108.047 379.462 107.488 381.446C107.233 382.35 107.601 383.332 108.337 383.759L134.967 400.316L136.025 398.67C137.203 396.153 136.83 393.045 135.102 390.996Z" fill="#293F57"/>
<path d="M193.025 223.756L200.334 225.047L186.576 262.021L178.837 261.805L193.025 223.756Z" fill="#C1E9ED"/>
<path d="M177.762 261.591C172.798 249.552 161.515 251.84 155.191 254.295C153.783 254.841 152.266 255.026 150.758 254.955C148.463 254.847 146.175 254.799 143.891 254.76C140.498 254.725 137.115 254.758 133.737 254.834C130.362 254.927 126.99 255.048 123.626 255.223C122.067 255.322 120.508 255.408 118.948 255.498C118.108 253.965 117.289 252.422 116.481 250.878C115.04 248.032 113.716 245.135 112.46 242.215C111.243 239.277 110.061 236.324 109.019 233.319C107.948 230.322 106.998 227.283 106.041 224.231L106.013 224.139C104.69 219.91 100.15 217.338 95.6455 218.73C91.6601 219.961 89.301 224.142 90.0194 228.248C90.643 231.818 91.5625 235.334 92.6525 238.794C93.7949 242.32 95.102 245.8 96.6567 249.167C98.1722 252.554 99.9164 255.832 101.812 259.01C103.674 262.21 105.806 265.245 108.008 268.203L108.401 268.735C110.013 270.889 112.744 272.087 115.577 271.604C118.892 271.04 122.186 270.322 125.491 269.678C128.79 268.993 132.082 268.254 135.369 267.488C138.656 266.705 141.938 265.876 145.209 264.983C147.561 264.323 149.91 263.632 152.25 262.895L177.762 261.591Z" fill="#E0BB8B"/>
<path d="M107.898 220.316L113.347 233.198C115.763 238.91 114.424 245.52 109.97 249.837L103.168 256.431L99.1481 276.056C99.1481 276.056 83.3918 279.648 67.9153 270.619C67.9153 270.619 76.0827 253.422 75.6529 239.233C75.223 225.046 81.2425 208.279 97.5802 213.007L107.898 220.316Z" fill="#91DA67"/>
<path d="M96.5045 213.223C96.5045 213.223 100.159 221.822 105.749 223.111L106.304 211.868C106.458 208.729 109.516 206.567 112.527 207.464L114.008 207.907C116.791 208.736 119.762 207.39 120.972 204.749L122.443 201.539C123.153 199.992 124.639 198.944 126.336 198.797C127.5 198.695 128.31 197.59 128.055 196.449L127.246 192.801L130.436 185.659C131.401 183.503 131.466 181.06 130.627 178.851C128.731 173.868 124.038 165.848 113.486 166.145C98.3712 166.57 94.7851 173.024 91.5604 191.727L96.5045 213.223Z" fill="#F6CE9B"/>
<path d="M98.8557 165.329C90.7364 171.297 86.6461 182.503 77.1702 185.927C70.5125 188.333 61.0526 184.391 57.0221 192.325C55.7296 194.867 55.4323 197.778 55.1292 200.611C54.8261 203.445 54.4721 206.358 53.0921 208.85C51.2474 212.172 47.8609 214.318 46.0147 217.623C43.9907 221.243 43.5288 226.529 43.9572 230.566C45.4041 244.222 59.763 255.741 72.9692 247.801C78.8766 244.248 74.4905 235.39 76.0832 229.776C77.1061 226.168 78.1028 222.822 80.1181 219.66C82.1333 216.498 85.1438 213.699 88.8464 213.113C90.2584 212.89 91.736 212.989 93.2004 213.087C95.5625 213.244 97.8925 213.403 99.8684 212.213C103.405 210.081 103.536 205.06 103.003 200.965C102.471 196.87 101.919 192.082 104.869 189.194C106.701 187.403 109.435 186.893 111.996 186.895C114.557 186.898 117.124 187.325 119.668 187.039C123.485 186.608 128.658 184.849 130.9 181.73C131.362 181.086 132.332 179.723 132.726 178.721C134.292 174.746 131.814 170.306 128.749 167.329C126.265 164.913 122.638 163.056 119.338 161.995C117.126 161.284 114.806 160.937 112.485 160.937C107.632 160.937 102.77 162.452 98.8557 165.329Z" fill="#375A7F"/>
<path d="M185.43 262.02H150.176V256H185.43V262.02Z" fill="#97B5BA"/>
<path d="M169.809 262.451C164.843 250.413 153.562 252.699 147.236 255.155C145.83 255.701 144.312 255.886 142.805 255.815C140.51 255.708 138.222 255.659 135.936 255.619C132.545 255.584 129.16 255.618 125.784 255.694C122.409 255.787 119.036 255.908 115.673 256.083C114.113 256.183 112.553 256.268 110.994 256.358C110.153 254.827 109.334 253.282 108.528 251.737C107.087 248.892 105.761 245.995 104.505 243.075C103.288 240.137 102.108 237.183 101.066 234.179C99.9935 231.181 99.0449 228.143 98.0861 225.09L98.0598 225C96.7367 220.77 92.1948 218.2 87.6907 219.59C83.7068 220.821 81.3477 225.003 82.0646 229.109C82.6897 232.678 83.6077 236.194 84.6977 239.653C85.8416 243.18 87.1486 246.659 88.7034 250.028C90.2174 253.413 91.9616 256.692 93.8589 259.87C95.7211 263.07 97.8515 266.105 100.055 269.063L100.447 269.595C102.058 271.75 104.789 272.946 107.622 272.464C110.938 271.9 114.231 271.182 117.536 270.539C120.837 269.853 124.127 269.116 127.416 268.348C130.703 267.565 133.983 266.737 137.256 265.844C139.606 265.183 141.955 264.492 144.297 263.755L169.809 262.451Z" fill="#F6CE9B"/>
<path d="M223.63 387.803L217.857 397.104L225.395 402.235L231.488 392.934L223.63 387.803Z" fill="#F6CE9B"/>
<path d="M219.579 397.036C219.579 397.036 211.135 389.762 197.344 391.545C195.855 391.739 195.416 393.7 196.688 394.5L222.311 410.6C222.311 410.6 228.113 403.303 225.979 400.469C225.979 400.469 221.375 401.779 219.579 397.036Z" fill="#293F57"/>
<path d="M272.537 296.184L219.536 390.64C222.873 393.805 226.498 396.682 230.307 399.29L262.532 350.873C268.479 346.933 274.783 343.012 274.783 343.012C287.182 334.894 312.628 308.372 312.628 308.372L272.537 296.184Z" fill="#304F71"/>
<path d="M273.684 390.1L276.437 403.799H285.423L282.665 389.138L273.684 390.1Z" fill="#F6CE9B"/>
<path d="M333.475 279.186L259.245 279.436C248.576 279.472 240.793 289.539 243.444 299.872L270.397 392.435H284.565L279.427 347.11C279.325 346.201 279.391 345.274 279.579 344.38C283.988 323.315 270.613 310.938 270.613 310.938C278.226 314.2 290.568 315.678 302.259 316.296C319.038 317.182 333.233 304.013 333.775 287.223L333.475 279.186Z" fill="#375A7F"/>
<path d="M277.744 401.835C277.744 401.835 265.731 400.533 254.756 410.844C253.82 411.722 254.515 413.299 255.796 413.245L288.128 411.884C288.128 411.884 288.798 402.171 285.28 400.999C285.28 400.999 282.098 404.85 277.744 401.835Z" fill="#293F57"/>
<path d="M153.615 410.491H146.735V268.255H153.615V410.491Z" fill="#307E64"/>
<path d="M195.321 155.371H189.233V149.281C189.233 147.543 187.824 146.132 186.084 146.132C184.345 146.132 182.935 147.543 182.935 149.281V155.371H176.847C175.108 155.371 173.698 156.78 173.698 158.52C173.698 160.258 175.108 161.668 176.847 161.668H182.935V167.756C182.935 169.495 184.345 170.905 186.084 170.905C187.824 170.905 189.233 169.495 189.233 167.756V161.668H195.321C197.061 161.668 198.47 160.258 198.47 158.52C198.47 156.78 197.061 155.371 195.321 155.371Z" fill="#AAE387"/>
<path d="M430.628 91.9257L430.511 99.825L426.035 103.749L418.188 102.828L414.842 109.604L420.346 115.272L419.954 121.212L413.755 126.108L416.181 133.265L424.079 133.382L428.003 137.86L427.081 145.705L433.857 149.049L439.527 143.549L445.466 143.939L450.363 150.138L457.521 147.712L457.638 139.815L462.115 135.89L469.962 136.811L473.305 130.035L467.804 124.366L468.195 118.426L474.394 113.53L471.967 106.373L464.068 106.255L460.145 101.779L461.066 93.9323L454.289 90.5881L448.622 96.0903L442.683 95.6969L437.785 89.4996L430.628 91.9257ZM431.795 130.581C425.851 123.798 426.53 113.481 433.313 107.539C440.095 101.595 450.412 102.276 456.354 109.058C462.299 115.842 461.619 126.156 454.836 132.098C451.738 134.814 447.899 136.148 444.08 136.148C439.54 136.148 435.023 134.264 431.795 130.581Z" fill="#375A7F"/>
<path d="M390.49 110.627C383.708 116.569 373.392 115.889 367.448 109.107C361.506 102.326 362.186 92.0104 368.968 86.0667C375.751 80.1229 386.066 80.8034 392.01 87.585C397.952 94.3681 397.272 104.683 390.49 110.627ZM397.77 114.419L405.615 115.338L408.961 108.562L403.457 102.894L403.849 96.9531L410.048 92.0571L407.623 84.901L399.724 84.7844L395.801 80.3051L396.721 72.4612L389.945 69.1155L384.277 74.6178L378.336 74.2258L373.44 68.027L366.284 70.4532L366.167 78.3525L361.688 82.2752L353.842 81.3542L350.498 88.1315L356 93.7984L355.609 99.7392L349.41 104.637L351.836 111.793L359.735 111.909L363.658 116.387L362.737 124.233L369.513 127.578L375.181 122.075L381.122 122.467L386.019 128.667L393.176 126.241L393.292 118.341L397.77 114.419Z" fill="#81A5CB"/>
<path d="M493.746 18.8473L463.416 57.7156L484.759 58.3902L475.997 84.4501L508.124 43.3363L485.884 43.5607L493.746 18.8473Z" fill="#91DA67"/>
<path d="M307.21 48.0674C307.21 21.123 285.039 -0.644016 257.945 0.0146146C232.519 0.633908 211.781 21.3154 211.094 46.7399C210.772 58.6478 214.785 69.6086 221.669 78.1636C229.863 88.3476 234.578 100.884 234.578 113.954V114.852H283.709V113.953C283.709 101.085 288.059 88.5458 296.248 78.6196C303.096 70.3168 307.21 59.6737 307.21 48.0674Z" fill="#91DA67"/>
<path d="M258.123 7.29839C236.42 7.82734 218.963 25.2375 218.378 46.936C218.311 49.4234 218.478 51.8948 218.857 54.3239H299.413C299.735 52.262 299.925 50.1724 299.925 48.0668C299.925 25.5814 281.63 7.28674 259.145 7.28674C258.802 7.28674 258.464 7.29111 258.123 7.29839Z" fill="url(#paint0_linear)"/>
<path d="M257.048 114.798H254.271V63.6777C254.271 60.0406 251.313 57.084 247.675 57.084C244.04 57.084 241.083 60.0406 241.083 63.6777C241.083 67.3133 244.04 70.2698 247.675 70.2698H250.821V73.0487H247.675C242.508 73.0487 238.306 68.8447 238.306 63.6777C238.306 58.5106 242.508 54.3052 247.675 54.3052C252.843 54.3052 257.048 58.5106 257.048 63.6777V114.798Z" fill="white"/>
<path d="M264.162 114.798H261.385V63.6775C261.385 58.5104 265.589 54.3051 270.755 54.3051C275.922 54.3051 280.127 58.5104 280.127 63.6775C280.127 68.8446 275.922 73.0485 270.755 73.0485H267.61V70.2697H270.755C274.393 70.2697 277.35 67.3131 277.35 63.6775C277.35 60.0405 274.393 57.0839 270.755 57.0839C267.119 57.0839 264.162 60.0405 264.162 63.6775V114.798Z" fill="white"/>
<path d="M234.791 114.638V136.014C234.791 142.415 239.98 147.605 246.383 147.605H271.907C278.307 147.605 283.496 142.415 283.496 136.014V114.638H234.791Z" fill="#375A7F"/>
<path d="M268.183 157.336H250.105C247.286 157.336 245.001 155.051 245.001 152.231V146.916H273.287V152.231C273.287 155.051 271.002 157.336 268.183 157.336Z" fill="#375A7F"/>
<path d="M156.615 90.9966H20.188C13.8683 90.9966 8.74347 85.8718 8.74347 79.552V23.9672C8.74347 15.9193 15.2672 9.39563 23.3151 9.39563H153.487C161.535 9.39563 168.059 15.9193 168.059 23.9672V79.552C168.059 85.8718 162.936 90.9966 156.615 90.9966Z" fill="#E8EBF8"/>
<path d="M168.06 29.7958V23.9672C168.06 15.9193 161.535 9.3956 153.489 9.3956H23.3162C15.2683 9.3956 8.74457 15.9193 8.74457 23.9672V29.7958H168.06Z" fill="#459E80"/>
<path d="M21.3723 20.081C21.3723 17.9346 23.1122 16.1948 25.2586 16.1948C27.405 16.1948 29.1448 17.9346 29.1448 20.081C29.1448 22.2274 27.405 23.9673 25.2586 23.9673C23.1122 23.9673 21.3723 22.2274 21.3723 20.081Z" fill="white"/>
<path d="M35.9436 20.081C35.9436 17.9346 37.6834 16.1948 39.8298 16.1948C41.9762 16.1948 43.7161 17.9346 43.7161 20.081C43.7161 22.2274 41.9762 23.9673 39.8298 23.9673C37.6834 23.9673 35.9436 22.2274 35.9436 20.081Z" fill="white"/>
<path d="M50.5154 20.081C50.5154 17.9346 52.2552 16.1948 54.4016 16.1948C56.548 16.1948 58.2878 17.9346 58.2878 20.081C58.2878 22.2274 56.548 23.9673 54.4016 23.9673C52.2552 23.9673 50.5154 22.2274 50.5154 20.081Z" fill="white"/>
<path d="M155.918 48.0099H27.2625V41.4527H155.918V48.0099Z" fill="white"/>
<path d="M155.918 61.1243H27.2625V54.5671H155.918V61.1243Z" fill="white"/>
<path d="M155.918 74.2388H27.2625V67.6816H155.918V74.2388Z" fill="white"/>
<path d="M159.378 144.425H27.7471C23.1876 144.425 19.4908 140.728 19.4908 136.168V122.567C19.4908 118.008 23.1876 114.311 27.7471 114.311H159.378C163.939 114.311 167.634 118.008 167.634 122.567V136.168C167.634 140.728 163.939 144.425 159.378 144.425Z" fill="#E8EBFF"/>
<path d="M26.9575 156.569C12.093 156.569 0 144.476 0 129.611C0 114.747 12.093 102.654 26.9575 102.654C41.8219 102.654 53.9149 114.747 53.9149 129.611C53.9149 144.476 41.8219 156.569 26.9575 156.569Z" fill="#459E80"/>
<path d="M7.28723 129.611C7.28723 118.747 16.0943 109.94 26.9589 109.94C37.822 109.94 46.6305 118.747 46.6305 129.611C46.6305 140.475 37.822 149.283 26.9589 149.283C16.0943 149.283 7.28723 140.475 7.28723 129.611Z" fill="#AAE387"/>
<path d="M36.0579 130.713L22.3519 138.969C21.4951 139.486 20.4022 138.869 20.4022 137.866V121.355C20.4022 120.355 21.4951 119.737 22.3519 120.253L36.0579 128.508C36.8871 129.009 36.8871 130.213 36.0579 130.713Z" fill="white"/>
<path d="M155.857 133.01H59.3202V126.453H155.857V133.01Z" fill="#84B6E5" fill-opacity="0.36"/>
<path d="M128.535 133.01H59.3202V126.453H128.535V133.01Z" fill="#AAE387"/>
<defs>
<linearGradient id="paint0_linear" x1="259.144" y1="-32.6196" x2="259.144" y2="94.4025" gradientUnits="userSpaceOnUse">
<stop stop-color="white"/>
<stop offset="0.0238095" stop-color="white"/>
<stop offset="0.514006" stop-color="white"/>
<stop offset="1" stop-color="white"/>
</linearGradient>
</defs>
</svg>
