<svg width="112" height="117" viewBox="0 0 112 117" fill="none" xmlns="http://www.w3.org/2000/svg">
<rect x="25" y="54" width="35" height="35" fill="#459E80" fill-opacity="0.35"/>
<path fill-rule="evenodd" clip-rule="evenodd" d="M97 27C103.627 27 109 21.6274 109 15C109 8.37258 103.627 3 97 3C90.3726 3 85 8.37258 85 15C85 21.6274 90.3726 27 97 27Z" fill="#81A5CB" fill-opacity="0.28"/>
<path fill-rule="evenodd" clip-rule="evenodd" d="M21 117C27.6274 117 33 111.627 33 105C33 98.3726 27.6274 93 21 93C14.3726 93 9 98.3726 9 105C9 111.627 14.3726 117 21 117Z" fill="#81A5CB" fill-opacity="0.28"/>
<path fill-rule="evenodd" clip-rule="evenodd" d="M82.1239 97.0579C82.133 88.8163 88.8113 82.1376 97.0533 82.1276C104.813 82.1194 111.287 88.0581 111.945 95.7912C112.604 103.524 107.229 110.472 99.5783 111.776C91.9286 113.08 84.555 108.306 82.6141 100.79H55.9973C54.9667 100.79 54.1311 99.9548 54.1311 98.9241V82.1276H33.6031C32.5725 82.1276 31.7369 81.2919 31.7369 80.2613V57.8658H16.8075V82.257C24.6276 83.2421 30.3346 90.1376 29.8416 98.0047C29.3477 105.872 22.8234 112 14.9413 112C7.05924 112 0.534887 105.872 0.0410049 98.0047C-0.452877 90.1376 5.25411 83.2421 13.0751 82.257V55.9995C13.0751 54.9689 13.9107 54.1333 14.9413 54.1333H31.7369V46.6681C31.7379 46.4303 31.7852 46.1942 31.8764 45.9746C31.9092 45.9099 31.9465 45.847 31.9866 45.7878C32.085 45.5691 32.2409 45.3814 32.4386 45.2447C32.5434 45.1545 32.6591 45.0761 32.7821 45.0132C32.865 44.9731 32.9525 44.9412 33.0409 44.9157C33.1129 44.8838 33.1858 44.8556 33.2614 44.8337C34.7768 44.02 40.605 37.8014 45.2495 32.3894C45.6039 31.9766 46.1215 31.7378 46.6664 31.7378H54.1311V16.8075H29.7414C28.7563 24.629 21.8611 30.3363 13.9945 29.8424C6.12797 29.3494 0 22.8247 0 14.9412C0 7.05872 6.12797 0.534006 13.9945 0.0410072C21.8611 -0.452903 28.7563 5.2544 29.7414 13.0749H55.9973C57.0279 13.0749 57.8635 13.9106 57.8635 14.9412V31.7378H80.2577C81.2883 31.7378 82.1239 32.5734 82.1239 33.6041V54.1333H95.1871V29.743C87.3661 28.758 81.6591 21.8623 82.153 13.9953C82.6469 6.1274 89.1713 0 97.0533 0C104.935 0 111.46 6.1274 111.954 13.9953C112.447 21.8623 106.74 28.758 98.9195 29.743V55.9995C98.9195 57.0302 98.0839 57.8658 97.0533 57.8658H82.1239V67.1973C82.1239 67.693 81.927 68.1669 81.5771 68.5168L68.5139 81.5808C68.1639 81.9307 67.6892 82.1276 67.1944 82.1276H57.8635V97.0579H82.1239ZM97.0533 3.74351C90.8689 3.74351 85.8562 8.75733 85.8562 14.9412C85.8626 21.1233 90.8716 26.1335 97.0533 26.139C103.237 26.139 108.25 21.126 108.25 14.9412C108.25 8.75733 103.237 3.74351 97.0533 3.74351ZM14.9413 26.139C8.75684 26.139 3.74421 21.126 3.74421 14.9412C3.74421 8.75733 8.75684 3.74351 14.9413 3.74351C21.1249 3.74351 26.1384 8.75733 26.1384 14.9412C26.132 21.1233 21.1221 26.1335 14.9413 26.139ZM14.9413 108.256C21.1249 108.256 26.1384 103.243 26.1384 97.0579C26.132 90.8767 21.1221 85.8665 14.9413 85.8601C8.75684 85.8601 3.74421 90.874 3.74421 97.0579C3.74421 103.243 8.75684 108.256 14.9413 108.256ZM78.3915 54.1333H72.793V57.8658H78.3915V66.4254L69.0606 75.7569V47.4409L78.3915 38.1094V54.1333ZM54.1311 35.4704H47.523C43.6803 39.9311 40.933 42.8672 38.9474 44.8018H66.4217L75.7526 35.4704H57.8635V41.0692H54.1311V35.4704ZM35.4693 48.5344H65.3282V78.395H35.4693V48.5344ZM85.8562 97.0579C85.8562 103.243 90.8689 108.256 97.0533 108.256C103.234 108.25 108.244 103.24 108.25 97.0579C108.25 90.874 103.237 85.8601 97.0533 85.8601C90.8689 85.8601 85.8562 90.874 85.8562 97.0579Z" fill="#375A7F"/>
<path d="M97.1146 98.1835L93.0963 95.353L91 98.6735L96.6664 102.664C97.0962 102.967 97.6246 103.071 98.1282 102.952C98.6318 102.832 99.068 102.5 99.3336 102.032L105 92.0549L101.763 90L97.1146 98.1835Z" fill="#375A7F"/>
<path d="M11.0963 95.353L9 98.6735L14.6664 102.664C15.0962 102.967 15.6246 103.071 16.1282 102.952C16.6318 102.832 17.068 102.5 17.3336 102.032L23 92.0549L19.7628 90L15.1146 98.1805L11.0963 95.353Z" fill="#375A7F"/>
<path d="M98.1282 19.9514C98.6327 19.8316 99.068 19.4994 99.3336 19.0317L105 9.05481L101.763 7L97.1146 15.1803L93.0963 12.3528L91 15.6733L96.6664 19.664C97.0962 19.967 97.6246 20.0713 98.1282 19.9514Z" fill="#375A7F"/>
<path d="M15.1146 15.1835L11.0963 12.353L9 15.6735L14.6664 19.6644C15.0962 19.9674 15.6246 20.0707 16.1282 19.9519C16.6318 19.832 17.068 19.4998 17.3336 19.0321L23 9.05488L19.7628 7L15.1146 15.1835Z" fill="#375A7F"/>
<path fill-rule="evenodd" clip-rule="evenodd" d="M57.4286 58.75H55.2296C54.4452 56.5106 52.3523 55.0101 50 55H42.5714C39.4946 55 37 57.5186 37 60.625C37 63.7323 39.4946 66.25 42.5714 66.25H44.7704C45.5539 68.4894 47.6468 69.9908 50 70H57.4286C60.5054 70 63 67.4823 63 64.375C63 61.2686 60.5054 58.75 57.4286 58.75ZM40.7143 60.625C40.7143 59.5895 41.5458 58.75 42.5714 58.75H50C47.6468 58.7601 45.5539 60.2606 44.7704 62.5H42.5714C41.5458 62.5 40.7143 61.6605 40.7143 60.625ZM50 66.25H57.4286C58.4542 66.25 59.2857 65.4105 59.2857 64.375C59.2857 63.3395 58.4542 62.5 57.4286 62.5H55.2296C54.4452 64.7394 52.3523 66.2408 50 66.25Z" fill="#69AB42"/>
</svg>
