<svg width="135" height="132" viewBox="0 0 135 132" fill="none" xmlns="http://www.w3.org/2000/svg">
<path fill-rule="evenodd" clip-rule="evenodd" d="M64.9629 107H81.9629C81.9629 107 87 119 86.9629 119C86.9258 119 94 119 98 119C102 119 108 132 100.463 132C98.9629 132 52.9629 132 46.4629 132C39.9629 132 43.4629 119 49.9629 119H59.9629L64.9629 107Z" fill="#459E80" fill-opacity="0.35"/>
<rect x="26" width="109" height="69" rx="3" fill="#459E80" fill-opacity="0.35"/>
<path d="M48.0572 51.2114C48.0572 50.1546 47.0242 49.3243 46.2206 49.3243C46.0294 49.3243 45.7997 49.3623 45.6467 49.4753L35.5838 55.9665C35.0098 56.3439 34.742 57.0232 34.742 57.5137C34.742 58.0044 35.0098 58.6459 35.5838 59.0233L45.6467 65.5145C45.7997 65.6278 46.0294 65.6654 46.2206 65.6654C47.0242 65.6654 48.0572 64.8729 48.0572 63.8161C48.0572 63.3256 47.8275 62.9105 47.4833 62.7216L39.4482 57.5137L47.4833 52.3059C47.8275 52.0793 48.0572 51.6642 48.0572 51.2114Z" fill="#69AB42"/>
<path d="M66.5769 39.5879L52.4962 67.326C52.4198 67.5146 52.3814 67.7034 52.3814 67.892C52.3814 68.5714 52.9935 69.2884 53.8735 69.2884C54.4092 69.2884 54.9065 69.0242 55.1362 68.5714L69.1786 40.9466C69.2934 40.758 69.3316 40.5691 69.3316 40.3428C69.3316 39.4746 68.4898 38.9088 67.7247 38.9088C67.2274 38.9086 66.8065 39.0972 66.5769 39.5879Z" fill="#69AB42"/>
<path d="M73.6559 63.8163C73.6559 64.8731 74.6507 65.6657 75.4924 65.6657C75.6837 65.6657 75.8751 65.6278 76.0279 65.5148L86.0911 59.0236C86.7032 58.6461 86.9329 58.0047 86.9329 57.514C86.9329 57.0235 86.665 56.3439 86.0911 55.9667L76.0282 49.4755C75.8751 49.3623 75.6839 49.3246 75.4927 49.3246C74.6509 49.3246 73.6561 50.1549 73.6561 51.2116C73.6561 51.6644 73.8858 52.0796 74.1918 52.3061L82.2651 57.514L74.1918 62.7219C73.8855 62.9105 73.6559 63.3256 73.6559 63.8163Z" fill="#69AB42"/>
<path fill-rule="evenodd" clip-rule="evenodd" d="M116.558 10.0493H6.44188C2.88978 10.0493 0 12.8998 0 16.4031V96.8644C0 100.368 2.88978 103.218 6.44188 103.218H49.2898C47.9916 107.381 46.1747 111.304 43.8709 114.919H40.1905C35.1641 114.919 31.0748 118.952 31.0748 123.91C31.0748 126.138 32.9126 127.951 35.1718 127.951H87.8282C90.0872 127.951 91.9252 126.138 91.9252 123.91C91.9252 118.952 87.8359 114.919 82.8095 114.919H79.1291C76.8253 111.304 75.0086 107.38 73.7102 103.218H116.558C120.11 103.218 123 100.368 123 96.8644V16.4031C123 12.8998 120.11 10.0493 116.558 10.0493ZM6.44188 13.6035H116.558C118.123 13.6035 119.396 14.8594 119.396 16.4031V86.4619H3.60352V16.4031C3.60352 14.8596 4.87676 13.6035 6.44188 13.6035ZM87.828 124.397C88.1002 124.397 88.3214 124.178 88.3214 123.91C88.3214 120.912 85.8487 118.473 82.8093 118.473H40.1905C37.151 118.473 34.6783 120.912 34.6783 123.91C34.6783 124.178 34.8998 124.397 35.1718 124.397H87.828ZM74.9291 114.919H48.0709C50.184 111.266 51.8519 107.346 53.0483 103.218H69.9514C71.1481 107.346 72.816 111.266 74.9291 114.919ZM6.44188 99.6642H116.558C118.123 99.6642 119.396 98.4081 119.396 96.8646V90.0163H3.60352V96.8646C3.60352 98.4083 4.87676 99.6642 6.44188 99.6642Z" fill="#375A7F"/>
<path d="M8.52808 82.908H114.472C115.467 82.908 116.274 82.1123 116.274 81.1309V53.4684C116.274 52.487 115.467 51.6913 114.472 51.6913C113.477 51.6913 112.67 52.487 112.67 53.4684V79.3538H10.3298V53.4684C10.3298 52.487 9.52313 51.6913 8.52808 51.6913C7.53303 51.6913 6.72632 52.487 6.72632 53.4684V81.1309C6.72632 82.1123 7.53303 82.908 8.52808 82.908Z" fill="#375A7F"/>
<path fill-rule="evenodd" clip-rule="evenodd" d="M10.3298 46.3604C10.3298 47.3418 9.52313 48.1375 8.52808 48.1375C7.53303 48.1375 6.72632 47.3418 6.72632 46.3604V18.6979C6.72632 17.7164 7.53303 16.9208 8.52808 16.9208H114.472C115.467 16.9208 116.274 17.7164 116.274 18.6979V46.3604C116.274 47.3418 115.467 48.1375 114.472 48.1375C113.477 48.1375 112.67 47.3418 112.67 46.3604V32.1046H10.3298V46.3604ZM112.67 28.5504V20.475H10.3298V28.5504H112.67Z" fill="#375A7F"/>
<path d="M84.8064 26.7971C83.8846 26.7971 83.1346 25.9608 83.1346 24.9331C83.1346 23.9051 83.8846 23.0688 84.8064 23.0688C85.7283 23.0688 86.4782 23.9051 86.4782 24.9331C86.4779 25.9608 85.728 26.7971 84.8064 26.7971Z" fill="#69AB42"/>
<path d="M93.9668 26.7971C93.0449 26.7971 92.295 25.9608 92.295 24.9331C92.295 23.9051 93.0449 23.0688 93.9668 23.0688C94.8886 23.0688 95.6385 23.9051 95.6385 24.9331C95.6385 25.9608 94.8886 26.7971 93.9668 26.7971Z" fill="#69AB42"/>
<path d="M103.127 26.7971C102.205 26.7971 101.455 25.9608 101.455 24.9331C101.455 23.9051 102.205 23.0688 103.127 23.0688C104.049 23.0688 104.799 23.9051 104.799 24.9331C104.799 25.9608 104.049 26.7971 103.127 26.7971Z" fill="#69AB42"/>
</svg>
