<svg width="130" height="134" viewBox="0 0 130 134" fill="none" xmlns="http://www.w3.org/2000/svg">
<rect x="19" width="111" height="79" rx="6" fill="#459E80" fill-opacity="0.35"/>
<path fill-rule="evenodd" clip-rule="evenodd" d="M105.519 11H11.4821C5.15057 11 0 16.1581 0 22.4997V83.7414C0 90.1384 5.19788 95.343 11.5865 95.343H36.5369L34.2294 105.021H29.4243C24.4317 105.021 20.3702 109.088 20.3702 114.087V117.212C20.3702 118.173 21.1477 118.952 22.1073 118.952H39.1077L38.349 126.075C38.2963 126.565 38.4552 127.056 38.7846 127.423C39.114 127.79 39.5835 128 40.0762 128L109.527 127.999C110.019 127.999 110.488 127.791 110.818 127.424C111.147 127.059 111.306 126.57 111.255 126.08L109.93 113.316C109.831 112.36 108.98 111.665 108.023 111.765C107.068 111.864 106.375 112.72 106.474 113.675L107.6 124.52H82.085L78.144 87.5508C78.0503 86.666 77.3049 85.9956 76.4167 85.9956H57.2632L58.8129 71.0682H66.1843V74.8946C66.1843 75.8554 66.9627 76.6348 67.9223 76.6348C68.8819 76.6348 69.6603 75.8554 69.6603 74.8946V71.0682H91.2052V74.8946C91.2052 75.8554 91.9827 76.6348 92.9432 76.6348C93.9028 76.6348 94.6803 75.8554 94.6803 74.8946V71.0682H102.052L105.862 107.787C105.955 108.682 106.71 109.347 107.589 109.347C107.649 109.347 107.709 109.344 107.77 109.338C108.725 109.239 109.418 108.384 109.319 107.427L108.033 95.0409C113.183 93.8397 117 89.1829 117 83.7414V22.4997C117.001 16.1581 111.849 11 105.519 11ZM40.1093 95.343H41.6241L40.5931 105.021H37.8018L40.1093 95.343ZM23.8453 114.087V115.472H39.4791L40.2217 108.501H29.4243C26.3473 108.501 23.8453 111.007 23.8453 114.087ZM78.5894 124.52H42.0097L45.7454 89.4752H74.8537L78.5894 124.52ZM69.6603 63.4127V67.5877H91.2052V63.4127C91.2052 57.4654 86.3724 52.6263 80.4328 52.6263C74.4922 52.6263 69.6603 57.4654 69.6603 63.4127ZM94.6812 67.5877V63.4127C94.6812 55.5464 88.2889 49.1467 80.4328 49.1467C72.5766 49.1467 66.1852 55.5464 66.1852 63.4127V67.5877H57.2472C56.3572 67.5877 55.611 68.2616 55.519 69.1483L54.305 80.8393H24.3567C23.3971 80.8393 22.6196 81.6178 22.6196 82.5786C22.6196 83.5394 23.3971 84.3188 24.3567 84.3188H53.9435L53.7694 85.9956H44.1833C43.2951 85.9956 42.5498 86.666 42.4551 87.5508L41.9954 91.8635H11.5865C7.30899 91.8635 3.79553 88.5287 3.49828 84.3197H18.5644C19.524 84.3197 20.3014 83.5412 20.3014 82.5804C20.3014 81.6196 19.524 80.8402 18.5644 80.8402H3.47507V22.4997C3.47507 18.0771 7.06708 14.4796 11.4821 14.4796H105.519C109.934 14.4796 113.526 18.0771 113.526 22.4997V80.8393H106.561L105.347 69.1483C105.255 68.2616 104.509 67.5877 103.619 67.5877H94.6812ZM106.921 84.3188L107.671 91.5417C110.88 90.6059 113.259 87.7296 113.503 84.3188H106.921Z" fill="#375A7F"/>
<path fill-rule="evenodd" clip-rule="evenodd" d="M54.9204 32.8645H41.0898V27.6634C41.0898 24.5409 38.5819 22 35.5 22C32.4181 22 29.9102 24.5409 29.9102 27.6634V32.8645H16.0796C13.8301 32.8645 12 34.7188 12 36.997V39.8264C12 41.6549 13.1797 43.2072 14.8067 43.7514L17.1502 61.8441C17.6047 65.354 20.582 68 24.0752 68H46.9248C50.418 68 53.3944 65.354 53.8498 61.8441L56.1933 43.7514C57.8203 43.2081 59 41.6549 59 39.8264V36.997C58.9991 34.7188 57.169 32.8645 54.9204 32.8645ZM54.9204 36.3317C55.2826 36.3317 55.5771 36.63 55.5771 36.997V39.8264C55.5771 40.1934 55.2826 40.4926 54.9204 40.4926H41.0898V36.3317H54.9204ZM35.5 25.4671C34.3045 25.4671 33.3323 26.4522 33.3323 27.6634V46.3867C33.3323 47.5979 34.3045 48.5829 35.5 48.5829C36.6946 48.5829 37.6668 47.5979 37.6668 46.3867V27.6634C37.6668 26.4522 36.6946 25.4671 35.5 25.4671ZM15.4221 36.997C15.4221 36.63 15.7174 36.3317 16.0796 36.3317H29.9102V40.4926H16.0796C15.7174 40.4926 15.4221 40.1934 15.4221 39.8264V36.997ZM46.9248 64.5329C48.7057 64.5329 50.2246 63.1827 50.4558 61.3935L52.7149 43.9598H41.0898V46.3867C41.0898 49.51 38.5828 52.0501 35.5 52.0501C32.4181 52.0501 29.9102 49.51 29.9102 46.3867V43.9598H18.2859L20.5433 61.3935C20.7754 63.1827 22.2934 64.5329 24.0752 64.5329H46.9248Z" fill="#69AB42"/>
<path d="M54.3962 102V94.6977C54.3962 93.7599 53.6364 93 52.6985 93C51.7607 93 51 93.7599 51 94.6977V102C51 106.963 55.0374 111 60.0004 111C64.9626 111 69 106.963 69 102V94.6977C69 93.7599 68.2402 93 67.3023 93C66.3645 93 65.6038 93.7599 65.6038 94.6977V102C65.6038 105.09 63.0904 107.604 60.0004 107.604C56.9104 107.604 54.3962 105.09 54.3962 102Z" fill="#375A7F"/>
<path d="M75.2451 28H67.7549C66.7855 28 66 28.896 66 30.0005C66 31.1051 66.7855 32 67.7549 32H75.2451C76.2145 32 77 31.1051 77 30.0005C77 28.896 76.2145 28 75.2451 28Z" fill="#375A7F"/>
<path d="M81.7651 32H106.236C107.21 32 108 31.1051 108 30.0005C108 28.896 107.21 28 106.236 28H81.7651C80.7896 28 80 28.896 80 30.0005C80 31.1051 80.7896 32 81.7651 32Z" fill="#375A7F"/>
<path d="M75.2451 37H67.7549C66.7855 37 66 37.8949 66 38.9995C66 40.104 66.7855 41 67.7549 41H75.2451C76.2145 41 77 40.104 77 38.9995C77 37.8949 76.2145 37 75.2451 37Z" fill="#375A7F"/>
<path d="M108 38.9995C108 37.8949 107.21 37 106.236 37H81.7651C80.7896 37 80 37.8949 80 38.9995C80 40.104 80.7896 41 81.7651 41H106.236C107.21 41 108 40.104 108 38.9995Z" fill="#375A7F"/>
<path fill-rule="evenodd" clip-rule="evenodd" d="M32.5 99H62.5L66.5 134H29L32.5 99Z" fill="#81A5CB" fill-opacity="0.16"/>
</svg>
