<svg width="579" height="566" viewBox="0 0 579 566" fill="none" xmlns="http://www.w3.org/2000/svg">
<path fill-rule="evenodd" clip-rule="evenodd" d="M4.77419 42.3934C4.77419 43.7155 3.70561 44.7869 2.38607 44.7869C1.06859 44.7869 0 43.7155 0 42.3934C0 41.0714 1.06859 40 2.38607 40C3.70561 40 4.77419 41.0714 4.77419 42.3934Z" fill="#375A7F" fill-opacity="0.6"/>
<path fill-rule="evenodd" clip-rule="evenodd" d="M19.0968 42.3934C19.0968 43.7155 18.0282 44.7869 16.7092 44.7869C15.3912 44.7869 14.3226 43.7155 14.3226 42.3934C14.3226 41.0714 15.3912 40 16.7092 40C18.0282 40 19.0968 41.0714 19.0968 42.3934Z" fill="#375A7F" fill-opacity="0.6"/>
<path fill-rule="evenodd" clip-rule="evenodd" d="M32.2258 42.3934C32.2258 43.7155 31.157 44.7869 29.8387 44.7869C28.5199 44.7869 27.4516 43.7155 27.4516 42.3934C27.4516 41.0714 28.5199 40 29.8387 40C31.157 40 32.2258 41.0714 32.2258 42.3934Z" fill="#375A7F" fill-opacity="0.6"/>
<path fill-rule="evenodd" clip-rule="evenodd" d="M46.5484 42.3934C46.5484 43.7155 45.4796 44.7869 44.1603 44.7869C42.842 44.7869 41.7742 43.7155 41.7742 42.3934C41.7742 41.0714 42.842 40 44.1603 40C45.4796 40 46.5484 41.0714 46.5484 42.3934Z" fill="#375A7F" fill-opacity="0.6"/>
<path fill-rule="evenodd" clip-rule="evenodd" d="M59.6774 42.3934C59.6774 43.7155 58.6093 44.7869 57.2898 44.7869C55.9718 44.7869 54.9032 43.7155 54.9032 42.3934C54.9032 41.0714 55.9718 40 57.2898 40C58.6093 40 59.6774 41.0714 59.6774 42.3934Z" fill="#375A7F" fill-opacity="0.6"/>
<path fill-rule="evenodd" clip-rule="evenodd" d="M4.77419 55.5574C4.77419 56.8794 3.70561 57.9508 2.38607 57.9508C1.06859 57.9508 0 56.8794 0 55.5574C0 54.2359 1.06859 53.1639 2.38607 53.1639C3.70561 53.1639 4.77419 54.2359 4.77419 55.5574Z" fill="#375A7F" fill-opacity="0.6"/>
<path fill-rule="evenodd" clip-rule="evenodd" d="M19.0968 55.5574C19.0968 56.8794 18.0282 57.9508 16.7092 57.9508C15.3912 57.9508 14.3226 56.8794 14.3226 55.5574C14.3226 54.2359 15.3912 53.1639 16.7092 53.1639C18.0282 53.1639 19.0968 54.2359 19.0968 55.5574Z" fill="#375A7F" fill-opacity="0.6"/>
<path fill-rule="evenodd" clip-rule="evenodd" d="M32.2258 55.5574C32.2258 56.8794 31.157 57.9508 29.8387 57.9508C28.5199 57.9508 27.4516 56.8794 27.4516 55.5574C27.4516 54.2359 28.5199 53.1639 29.8387 53.1639C31.157 53.1639 32.2258 54.2359 32.2258 55.5574Z" fill="#375A7F" fill-opacity="0.6"/>
<path fill-rule="evenodd" clip-rule="evenodd" d="M46.5484 55.5574C46.5484 56.8794 45.4796 57.9508 44.1603 57.9508C42.842 57.9508 41.7742 56.8794 41.7742 55.5574C41.7742 54.2359 42.842 53.1639 44.1603 53.1639C45.4796 53.1639 46.5484 54.2359 46.5484 55.5574Z" fill="#375A7F" fill-opacity="0.6"/>
<path fill-rule="evenodd" clip-rule="evenodd" d="M59.6774 55.5574C59.6774 56.8794 58.6093 57.9508 57.2898 57.9508C55.9718 57.9508 54.9032 56.8794 54.9032 55.5574C54.9032 54.2359 55.9718 53.1639 57.2898 53.1639C58.6093 53.1639 59.6774 54.2359 59.6774 55.5574Z" fill="#375A7F" fill-opacity="0.6"/>
<path fill-rule="evenodd" clip-rule="evenodd" d="M4.77419 70.5167C4.77419 72.1684 3.70561 73.5082 2.38607 73.5082C1.06859 73.5082 0 72.1684 0 70.5167C0 68.8644 1.06859 67.5246 2.38607 67.5246C3.70561 67.5246 4.77419 68.8644 4.77419 70.5167Z" fill="#375A7F" fill-opacity="0.6"/>
<path fill-rule="evenodd" clip-rule="evenodd" d="M19.0968 70.5167C19.0968 72.1684 18.0282 73.5082 16.7092 73.5082C15.3912 73.5082 14.3226 72.1684 14.3226 70.5167C14.3226 68.8644 15.3912 67.5246 16.7092 67.5246C18.0282 67.5246 19.0968 68.8644 19.0968 70.5167Z" fill="#375A7F" fill-opacity="0.6"/>
<path fill-rule="evenodd" clip-rule="evenodd" d="M32.2258 70.5167C32.2258 72.1684 31.157 73.5082 29.8387 73.5082C28.5199 73.5082 27.4516 72.1684 27.4516 70.5167C27.4516 68.8644 28.5199 67.5246 29.8387 67.5246C31.157 67.5246 32.2258 68.8644 32.2258 70.5167Z" fill="#375A7F" fill-opacity="0.6"/>
<path fill-rule="evenodd" clip-rule="evenodd" d="M46.5484 70.5167C46.5484 72.1684 45.4796 73.5082 44.1603 73.5082C42.842 73.5082 41.7742 72.1684 41.7742 70.5167C41.7742 68.8644 42.842 67.5246 44.1603 67.5246C45.4796 67.5246 46.5484 68.8644 46.5484 70.5167Z" fill="#375A7F" fill-opacity="0.6"/>
<path fill-rule="evenodd" clip-rule="evenodd" d="M59.6774 70.5167C59.6774 72.1684 58.6093 73.5082 57.2898 73.5082C55.9718 73.5082 54.9032 72.1684 54.9032 70.5167C54.9032 68.8644 55.9718 67.5246 57.2898 67.5246C58.6093 67.5246 59.6774 68.8644 59.6774 70.5167Z" fill="#375A7F" fill-opacity="0.6"/>
<path fill-rule="evenodd" clip-rule="evenodd" d="M4.77419 83.68C4.77419 85.3324 3.70561 86.6721 2.38607 86.6721C1.06859 86.6721 0 85.3324 0 83.68C0 82.0283 1.06859 80.6885 2.38607 80.6885C3.70561 80.6885 4.77419 82.0283 4.77419 83.68Z" fill="#375A7F" fill-opacity="0.6"/>
<path fill-rule="evenodd" clip-rule="evenodd" d="M19.0968 83.68C19.0968 85.3324 18.0282 86.6721 16.7092 86.6721C15.3912 86.6721 14.3226 85.3324 14.3226 83.68C14.3226 82.0283 15.3912 80.6885 16.7092 80.6885C18.0282 80.6885 19.0968 82.0283 19.0968 83.68Z" fill="#375A7F" fill-opacity="0.6"/>
<path fill-rule="evenodd" clip-rule="evenodd" d="M32.2258 83.68C32.2258 85.3324 31.157 86.6721 29.8387 86.6721C28.5199 86.6721 27.4516 85.3324 27.4516 83.68C27.4516 82.0283 28.5199 80.6885 29.8387 80.6885C31.157 80.6885 32.2258 82.0283 32.2258 83.68Z" fill="#375A7F" fill-opacity="0.6"/>
<path fill-rule="evenodd" clip-rule="evenodd" d="M46.5484 83.68C46.5484 85.3324 45.4796 86.6721 44.1603 86.6721C42.842 86.6721 41.7742 85.3324 41.7742 83.68C41.7742 82.0283 42.842 80.6885 44.1603 80.6885C45.4796 80.6885 46.5484 82.0283 46.5484 83.68Z" fill="#375A7F" fill-opacity="0.6"/>
<path fill-rule="evenodd" clip-rule="evenodd" d="M59.6774 83.68C59.6774 85.3324 58.6093 86.6721 57.2898 86.6721C55.9718 86.6721 54.9032 85.3324 54.9032 83.68C54.9032 82.0283 55.9718 80.6885 57.2898 80.6885C58.6093 80.6885 59.6774 82.0283 59.6774 83.68Z" fill="#375A7F" fill-opacity="0.6"/>
<path fill-rule="evenodd" clip-rule="evenodd" d="M4.77419 97.4426C4.77419 98.7641 3.70561 99.8361 2.38607 99.8361C1.06859 99.8361 0 98.7641 0 97.4426C0 96.1206 1.06859 95.0492 2.38607 95.0492C3.70561 95.0492 4.77419 96.1206 4.77419 97.4426Z" fill="#375A7F" fill-opacity="0.6"/>
<path fill-rule="evenodd" clip-rule="evenodd" d="M19.0968 97.4426C19.0968 98.7641 18.0282 99.8361 16.7092 99.8361C15.3912 99.8361 14.3226 98.7641 14.3226 97.4426C14.3226 96.1206 15.3912 95.0492 16.7092 95.0492C18.0282 95.0492 19.0968 96.1206 19.0968 97.4426Z" fill="#375A7F" fill-opacity="0.6"/>
<path fill-rule="evenodd" clip-rule="evenodd" d="M32.2258 97.4426C32.2258 98.7641 31.157 99.8361 29.8387 99.8361C28.5199 99.8361 27.4516 98.7641 27.4516 97.4426C27.4516 96.1206 28.5199 95.0492 29.8387 95.0492C31.157 95.0492 32.2258 96.1206 32.2258 97.4426Z" fill="#375A7F" fill-opacity="0.6"/>
<path fill-rule="evenodd" clip-rule="evenodd" d="M46.5484 97.4426C46.5484 98.7641 45.4796 99.8361 44.1603 99.8361C42.842 99.8361 41.7742 98.7641 41.7742 97.4426C41.7742 96.1206 42.842 95.0492 44.1603 95.0492C45.4796 95.0492 46.5484 96.1206 46.5484 97.4426Z" fill="#375A7F" fill-opacity="0.6"/>
<path fill-rule="evenodd" clip-rule="evenodd" d="M59.6774 97.4426C59.6774 98.7641 58.6093 99.8361 57.2898 99.8361C55.9718 99.8361 54.9032 98.7641 54.9032 97.4426C54.9032 96.1206 55.9718 95.0492 57.2898 95.0492C58.6093 95.0492 59.6774 96.1206 59.6774 97.4426Z" fill="#375A7F" fill-opacity="0.6"/>
<path fill-rule="evenodd" clip-rule="evenodd" d="M4.77419 110.607C4.77419 111.929 3.70561 113 2.38607 113C1.06859 113 0 111.929 0 110.607C0 109.285 1.06859 108.213 2.38607 108.213C3.70561 108.213 4.77419 109.285 4.77419 110.607Z" fill="#375A7F" fill-opacity="0.6"/>
<path fill-rule="evenodd" clip-rule="evenodd" d="M19.0968 110.607C19.0968 111.929 18.0282 113 16.7092 113C15.3912 113 14.3226 111.929 14.3226 110.607C14.3226 109.285 15.3912 108.213 16.7092 108.213C18.0282 108.213 19.0968 109.285 19.0968 110.607Z" fill="#375A7F" fill-opacity="0.6"/>
<path fill-rule="evenodd" clip-rule="evenodd" d="M32.2258 110.607C32.2258 111.929 31.157 113 29.8387 113C28.5199 113 27.4516 111.929 27.4516 110.607C27.4516 109.285 28.5199 108.213 29.8387 108.213C31.157 108.213 32.2258 109.285 32.2258 110.607Z" fill="#375A7F" fill-opacity="0.6"/>
<path fill-rule="evenodd" clip-rule="evenodd" d="M46.5484 110.607C46.5484 111.929 45.4796 113 44.1603 113C42.842 113 41.7742 111.929 41.7742 110.607C41.7742 109.285 42.842 108.213 44.1603 108.213C45.4796 108.213 46.5484 109.285 46.5484 110.607Z" fill="#375A7F" fill-opacity="0.6"/>
<path fill-rule="evenodd" clip-rule="evenodd" d="M59.6774 110.607C59.6774 111.929 58.6093 113 57.2898 113C55.9718 113 54.9032 111.929 54.9032 110.607C54.9032 109.285 55.9718 108.213 57.2898 108.213C58.6093 108.213 59.6774 109.285 59.6774 110.607Z" fill="#375A7F" fill-opacity="0.6"/>
<path fill-rule="evenodd" clip-rule="evenodd" d="M74 42.3934C74 43.7155 72.9319 44.7869 71.6124 44.7869C70.2944 44.7869 69.2258 43.7155 69.2258 42.3934C69.2258 41.0714 70.2944 40 71.6124 40C72.9319 40 74 41.0714 74 42.3934Z" fill="#375A7F" fill-opacity="0.6"/>
<path fill-rule="evenodd" clip-rule="evenodd" d="M74 55.5574C74 56.8794 72.9319 57.9508 71.6124 57.9508C70.2944 57.9508 69.2258 56.8794 69.2258 55.5574C69.2258 54.2359 70.2944 53.1639 71.6124 53.1639C72.9319 53.1639 74 54.2359 74 55.5574Z" fill="#375A7F" fill-opacity="0.6"/>
<path fill-rule="evenodd" clip-rule="evenodd" d="M74 70.5167C74 72.1684 72.9319 73.5082 71.6124 73.5082C70.2944 73.5082 69.2258 72.1684 69.2258 70.5167C69.2258 68.8644 70.2944 67.5246 71.6124 67.5246C72.9319 67.5246 74 68.8644 74 70.5167Z" fill="#375A7F" fill-opacity="0.6"/>
<path fill-rule="evenodd" clip-rule="evenodd" d="M74 83.68C74 85.3324 72.9319 86.6721 71.6124 86.6721C70.2944 86.6721 69.2258 85.3324 69.2258 83.68C69.2258 82.0283 70.2944 80.6885 71.6124 80.6885C72.9319 80.6885 74 82.0283 74 83.68Z" fill="#375A7F" fill-opacity="0.6"/>
<path fill-rule="evenodd" clip-rule="evenodd" d="M74 97.4426C74 98.7641 72.9319 99.8361 71.6124 99.8361C70.2944 99.8361 69.2258 98.7641 69.2258 97.4426C69.2258 96.1206 70.2944 95.0492 71.6124 95.0492C72.9319 95.0492 74 96.1206 74 97.4426Z" fill="#375A7F" fill-opacity="0.6"/>
<path fill-rule="evenodd" clip-rule="evenodd" d="M74 110.607C74 111.929 72.9319 113 71.6124 113C70.2944 113 69.2258 111.929 69.2258 110.607C69.2258 109.285 70.2944 108.213 71.6124 108.213C72.9319 108.213 74 109.285 74 110.607Z" fill="#375A7F" fill-opacity="0.6"/>
<path fill-rule="evenodd" clip-rule="evenodd" d="M4.77419 122.393C4.77419 123.715 3.70561 124.787 2.38607 124.787C1.06859 124.787 0 123.715 0 122.393C0 121.071 1.06859 120 2.38607 120C3.70561 120 4.77419 121.071 4.77419 122.393Z" fill="#375A7F" fill-opacity="0.6"/>
<path fill-rule="evenodd" clip-rule="evenodd" d="M19.0968 122.393C19.0968 123.715 18.0282 124.787 16.7092 124.787C15.3912 124.787 14.3226 123.715 14.3226 122.393C14.3226 121.071 15.3912 120 16.7092 120C18.0282 120 19.0968 121.071 19.0968 122.393Z" fill="#375A7F" fill-opacity="0.6"/>
<path fill-rule="evenodd" clip-rule="evenodd" d="M32.2258 122.393C32.2258 123.715 31.157 124.787 29.8387 124.787C28.5199 124.787 27.4516 123.715 27.4516 122.393C27.4516 121.071 28.5199 120 29.8387 120C31.157 120 32.2258 121.071 32.2258 122.393Z" fill="#375A7F" fill-opacity="0.6"/>
<path fill-rule="evenodd" clip-rule="evenodd" d="M46.5484 122.393C46.5484 123.715 45.4796 124.787 44.1603 124.787C42.842 124.787 41.7742 123.715 41.7742 122.393C41.7742 121.071 42.842 120 44.1603 120C45.4796 120 46.5484 121.071 46.5484 122.393Z" fill="#375A7F" fill-opacity="0.6"/>
<path fill-rule="evenodd" clip-rule="evenodd" d="M59.6774 122.393C59.6774 123.715 58.6093 124.787 57.2898 124.787C55.9718 124.787 54.9032 123.715 54.9032 122.393C54.9032 121.071 55.9718 120 57.2898 120C58.6093 120 59.6774 121.071 59.6774 122.393Z" fill="#375A7F" fill-opacity="0.6"/>
<path fill-rule="evenodd" clip-rule="evenodd" d="M4.77419 135.557C4.77419 136.879 3.70561 137.951 2.38607 137.951C1.06859 137.951 0 136.879 0 135.557C0 134.236 1.06859 133.164 2.38607 133.164C3.70561 133.164 4.77419 134.236 4.77419 135.557Z" fill="#375A7F" fill-opacity="0.6"/>
<path fill-rule="evenodd" clip-rule="evenodd" d="M19.0968 135.557C19.0968 136.879 18.0282 137.951 16.7092 137.951C15.3912 137.951 14.3226 136.879 14.3226 135.557C14.3226 134.236 15.3912 133.164 16.7092 133.164C18.0282 133.164 19.0968 134.236 19.0968 135.557Z" fill="#375A7F" fill-opacity="0.6"/>
<path fill-rule="evenodd" clip-rule="evenodd" d="M32.2258 135.557C32.2258 136.879 31.157 137.951 29.8387 137.951C28.5199 137.951 27.4516 136.879 27.4516 135.557C27.4516 134.236 28.5199 133.164 29.8387 133.164C31.157 133.164 32.2258 134.236 32.2258 135.557Z" fill="#375A7F" fill-opacity="0.6"/>
<path fill-rule="evenodd" clip-rule="evenodd" d="M46.5484 135.557C46.5484 136.879 45.4796 137.951 44.1603 137.951C42.842 137.951 41.7742 136.879 41.7742 135.557C41.7742 134.236 42.842 133.164 44.1603 133.164C45.4796 133.164 46.5484 134.236 46.5484 135.557Z" fill="#375A7F" fill-opacity="0.6"/>
<path fill-rule="evenodd" clip-rule="evenodd" d="M59.6774 135.557C59.6774 136.879 58.6093 137.951 57.2898 137.951C55.9718 137.951 54.9032 136.879 54.9032 135.557C54.9032 134.236 55.9718 133.164 57.2898 133.164C58.6093 133.164 59.6774 134.236 59.6774 135.557Z" fill="#375A7F" fill-opacity="0.6"/>
<path fill-rule="evenodd" clip-rule="evenodd" d="M4.77419 150.517C4.77419 152.168 3.70561 153.508 2.38607 153.508C1.06859 153.508 0 152.168 0 150.517C0 148.864 1.06859 147.525 2.38607 147.525C3.70561 147.525 4.77419 148.864 4.77419 150.517Z" fill="#375A7F" fill-opacity="0.6"/>
<path fill-rule="evenodd" clip-rule="evenodd" d="M19.0968 150.517C19.0968 152.168 18.0282 153.508 16.7092 153.508C15.3912 153.508 14.3226 152.168 14.3226 150.517C14.3226 148.864 15.3912 147.525 16.7092 147.525C18.0282 147.525 19.0968 148.864 19.0968 150.517Z" fill="#375A7F" fill-opacity="0.6"/>
<path fill-rule="evenodd" clip-rule="evenodd" d="M32.2258 150.517C32.2258 152.168 31.157 153.508 29.8387 153.508C28.5199 153.508 27.4516 152.168 27.4516 150.517C27.4516 148.864 28.5199 147.525 29.8387 147.525C31.157 147.525 32.2258 148.864 32.2258 150.517Z" fill="#375A7F" fill-opacity="0.6"/>
<path fill-rule="evenodd" clip-rule="evenodd" d="M46.5484 150.517C46.5484 152.168 45.4796 153.508 44.1603 153.508C42.842 153.508 41.7742 152.168 41.7742 150.517C41.7742 148.864 42.842 147.525 44.1603 147.525C45.4796 147.525 46.5484 148.864 46.5484 150.517Z" fill="#375A7F" fill-opacity="0.6"/>
<path fill-rule="evenodd" clip-rule="evenodd" d="M59.6774 150.517C59.6774 152.168 58.6093 153.508 57.2898 153.508C55.9718 153.508 54.9032 152.168 54.9032 150.517C54.9032 148.864 55.9718 147.525 57.2898 147.525C58.6093 147.525 59.6774 148.864 59.6774 150.517Z" fill="#375A7F" fill-opacity="0.6"/>
<path fill-rule="evenodd" clip-rule="evenodd" d="M4.77419 163.68C4.77419 165.332 3.70561 166.672 2.38607 166.672C1.06859 166.672 0 165.332 0 163.68C0 162.028 1.06859 160.689 2.38607 160.689C3.70561 160.689 4.77419 162.028 4.77419 163.68Z" fill="#375A7F" fill-opacity="0.6"/>
<path fill-rule="evenodd" clip-rule="evenodd" d="M19.0968 163.68C19.0968 165.332 18.0282 166.672 16.7092 166.672C15.3912 166.672 14.3226 165.332 14.3226 163.68C14.3226 162.028 15.3912 160.689 16.7092 160.689C18.0282 160.689 19.0968 162.028 19.0968 163.68Z" fill="#375A7F" fill-opacity="0.6"/>
<path fill-rule="evenodd" clip-rule="evenodd" d="M32.2258 163.68C32.2258 165.332 31.157 166.672 29.8387 166.672C28.5199 166.672 27.4516 165.332 27.4516 163.68C27.4516 162.028 28.5199 160.689 29.8387 160.689C31.157 160.689 32.2258 162.028 32.2258 163.68Z" fill="#375A7F" fill-opacity="0.6"/>
<path fill-rule="evenodd" clip-rule="evenodd" d="M46.5484 163.68C46.5484 165.332 45.4796 166.672 44.1603 166.672C42.842 166.672 41.7742 165.332 41.7742 163.68C41.7742 162.028 42.842 160.689 44.1603 160.689C45.4796 160.689 46.5484 162.028 46.5484 163.68Z" fill="#375A7F" fill-opacity="0.6"/>
<path fill-rule="evenodd" clip-rule="evenodd" d="M59.6774 163.68C59.6774 165.332 58.6093 166.672 57.2898 166.672C55.9718 166.672 54.9032 165.332 54.9032 163.68C54.9032 162.028 55.9718 160.689 57.2898 160.689C58.6093 160.689 59.6774 162.028 59.6774 163.68Z" fill="#375A7F" fill-opacity="0.6"/>
<path fill-rule="evenodd" clip-rule="evenodd" d="M4.77419 177.443C4.77419 178.764 3.70561 179.836 2.38607 179.836C1.06859 179.836 0 178.764 0 177.443C0 176.121 1.06859 175.049 2.38607 175.049C3.70561 175.049 4.77419 176.121 4.77419 177.443Z" fill="#375A7F" fill-opacity="0.6"/>
<path fill-rule="evenodd" clip-rule="evenodd" d="M19.0968 177.443C19.0968 178.764 18.0282 179.836 16.7092 179.836C15.3912 179.836 14.3226 178.764 14.3226 177.443C14.3226 176.121 15.3912 175.049 16.7092 175.049C18.0282 175.049 19.0968 176.121 19.0968 177.443Z" fill="#375A7F" fill-opacity="0.6"/>
<path fill-rule="evenodd" clip-rule="evenodd" d="M32.2258 177.443C32.2258 178.764 31.157 179.836 29.8387 179.836C28.5199 179.836 27.4516 178.764 27.4516 177.443C27.4516 176.121 28.5199 175.049 29.8387 175.049C31.157 175.049 32.2258 176.121 32.2258 177.443Z" fill="#375A7F" fill-opacity="0.6"/>
<path fill-rule="evenodd" clip-rule="evenodd" d="M46.5484 177.443C46.5484 178.764 45.4796 179.836 44.1603 179.836C42.842 179.836 41.7742 178.764 41.7742 177.443C41.7742 176.121 42.842 175.049 44.1603 175.049C45.4796 175.049 46.5484 176.121 46.5484 177.443Z" fill="#375A7F" fill-opacity="0.6"/>
<path fill-rule="evenodd" clip-rule="evenodd" d="M59.6774 177.443C59.6774 178.764 58.6093 179.836 57.2898 179.836C55.9718 179.836 54.9032 178.764 54.9032 177.443C54.9032 176.121 55.9718 175.049 57.2898 175.049C58.6093 175.049 59.6774 176.121 59.6774 177.443Z" fill="#375A7F" fill-opacity="0.6"/>
<path fill-rule="evenodd" clip-rule="evenodd" d="M4.77419 190.607C4.77419 191.929 3.70561 193 2.38607 193C1.06859 193 0 191.929 0 190.607C0 189.285 1.06859 188.213 2.38607 188.213C3.70561 188.213 4.77419 189.285 4.77419 190.607Z" fill="#375A7F" fill-opacity="0.6"/>
<path fill-rule="evenodd" clip-rule="evenodd" d="M19.0968 190.607C19.0968 191.929 18.0282 193 16.7092 193C15.3912 193 14.3226 191.929 14.3226 190.607C14.3226 189.285 15.3912 188.213 16.7092 188.213C18.0282 188.213 19.0968 189.285 19.0968 190.607Z" fill="#375A7F" fill-opacity="0.6"/>
<path fill-rule="evenodd" clip-rule="evenodd" d="M32.2258 190.607C32.2258 191.929 31.157 193 29.8387 193C28.5199 193 27.4516 191.929 27.4516 190.607C27.4516 189.285 28.5199 188.213 29.8387 188.213C31.157 188.213 32.2258 189.285 32.2258 190.607Z" fill="#375A7F" fill-opacity="0.6"/>
<path fill-rule="evenodd" clip-rule="evenodd" d="M46.5484 190.607C46.5484 191.929 45.4796 193 44.1603 193C42.842 193 41.7742 191.929 41.7742 190.607C41.7742 189.285 42.842 188.213 44.1603 188.213C45.4796 188.213 46.5484 189.285 46.5484 190.607Z" fill="#375A7F" fill-opacity="0.6"/>
<path fill-rule="evenodd" clip-rule="evenodd" d="M59.6774 190.607C59.6774 191.929 58.6093 193 57.2898 193C55.9718 193 54.9032 191.929 54.9032 190.607C54.9032 189.285 55.9718 188.213 57.2898 188.213C58.6093 188.213 59.6774 189.285 59.6774 190.607Z" fill="#375A7F" fill-opacity="0.6"/>
<path fill-rule="evenodd" clip-rule="evenodd" d="M74 122.393C74 123.715 72.9319 124.787 71.6124 124.787C70.2944 124.787 69.2258 123.715 69.2258 122.393C69.2258 121.071 70.2944 120 71.6124 120C72.9319 120 74 121.071 74 122.393Z" fill="#375A7F" fill-opacity="0.6"/>
<path fill-rule="evenodd" clip-rule="evenodd" d="M74 135.557C74 136.879 72.9319 137.951 71.6124 137.951C70.2944 137.951 69.2258 136.879 69.2258 135.557C69.2258 134.236 70.2944 133.164 71.6124 133.164C72.9319 133.164 74 134.236 74 135.557Z" fill="#375A7F" fill-opacity="0.6"/>
<path fill-rule="evenodd" clip-rule="evenodd" d="M74 150.517C74 152.168 72.9319 153.508 71.6124 153.508C70.2944 153.508 69.2258 152.168 69.2258 150.517C69.2258 148.864 70.2944 147.525 71.6124 147.525C72.9319 147.525 74 148.864 74 150.517Z" fill="#375A7F" fill-opacity="0.6"/>
<path fill-rule="evenodd" clip-rule="evenodd" d="M74 163.68C74 165.332 72.9319 166.672 71.6124 166.672C70.2944 166.672 69.2258 165.332 69.2258 163.68C69.2258 162.028 70.2944 160.689 71.6124 160.689C72.9319 160.689 74 162.028 74 163.68Z" fill="#375A7F" fill-opacity="0.6"/>
<path fill-rule="evenodd" clip-rule="evenodd" d="M74 177.443C74 178.764 72.9319 179.836 71.6124 179.836C70.2944 179.836 69.2258 178.764 69.2258 177.443C69.2258 176.121 70.2944 175.049 71.6124 175.049C72.9319 175.049 74 176.121 74 177.443Z" fill="#375A7F" fill-opacity="0.6"/>
<path fill-rule="evenodd" clip-rule="evenodd" d="M74 190.607C74 191.929 72.9319 193 71.6124 193C70.2944 193 69.2258 191.929 69.2258 190.607C69.2258 189.285 70.2944 188.213 71.6124 188.213C72.9319 188.213 74 189.285 74 190.607Z" fill="#375A7F" fill-opacity="0.6"/>
<path fill-rule="evenodd" clip-rule="evenodd" d="M88.7742 42.3934C88.7742 43.7155 87.7056 44.7869 86.3861 44.7869C85.0686 44.7869 84 43.7155 84 42.3934C84 41.0714 85.0686 40 86.3861 40C87.7056 40 88.7742 41.0714 88.7742 42.3934Z" fill="#375A7F" fill-opacity="0.6"/>
<path fill-rule="evenodd" clip-rule="evenodd" d="M103.097 42.3934C103.097 43.7155 102.028 44.7869 100.709 44.7869C99.3912 44.7869 98.3226 43.7155 98.3226 42.3934C98.3226 41.0714 99.3912 40 100.709 40C102.028 40 103.097 41.0714 103.097 42.3934Z" fill="#375A7F" fill-opacity="0.6"/>
<path fill-rule="evenodd" clip-rule="evenodd" d="M116.226 42.3934C116.226 43.7155 115.157 44.7869 113.839 44.7869C112.52 44.7869 111.452 43.7155 111.452 42.3934C111.452 41.0714 112.52 40 113.839 40C115.157 40 116.226 41.0714 116.226 42.3934Z" fill="#375A7F" fill-opacity="0.6"/>
<path fill-rule="evenodd" clip-rule="evenodd" d="M130.548 42.3934C130.548 43.7155 129.48 44.7869 128.16 44.7869C126.842 44.7869 125.774 43.7155 125.774 42.3934C125.774 41.0714 126.842 40 128.16 40C129.48 40 130.548 41.0714 130.548 42.3934Z" fill="#375A7F" fill-opacity="0.6"/>
<path fill-rule="evenodd" clip-rule="evenodd" d="M143.677 42.3934C143.677 43.7155 142.609 44.7869 141.29 44.7869C139.972 44.7869 138.903 43.7155 138.903 42.3934C138.903 41.0714 139.972 40 141.29 40C142.609 40 143.677 41.0714 143.677 42.3934Z" fill="#375A7F" fill-opacity="0.6"/>
<path fill-rule="evenodd" clip-rule="evenodd" d="M88.7742 55.5574C88.7742 56.8794 87.7056 57.9508 86.3861 57.9508C85.0686 57.9508 84 56.8794 84 55.5574C84 54.2359 85.0686 53.1639 86.3861 53.1639C87.7056 53.1639 88.7742 54.2359 88.7742 55.5574Z" fill="#375A7F" fill-opacity="0.6"/>
<path fill-rule="evenodd" clip-rule="evenodd" d="M103.097 55.5574C103.097 56.8794 102.028 57.9508 100.709 57.9508C99.3912 57.9508 98.3226 56.8794 98.3226 55.5574C98.3226 54.2359 99.3912 53.1639 100.709 53.1639C102.028 53.1639 103.097 54.2359 103.097 55.5574Z" fill="#375A7F" fill-opacity="0.6"/>
<path fill-rule="evenodd" clip-rule="evenodd" d="M116.226 55.5574C116.226 56.8794 115.157 57.9508 113.839 57.9508C112.52 57.9508 111.452 56.8794 111.452 55.5574C111.452 54.2359 112.52 53.1639 113.839 53.1639C115.157 53.1639 116.226 54.2359 116.226 55.5574Z" fill="#375A7F" fill-opacity="0.6"/>
<path fill-rule="evenodd" clip-rule="evenodd" d="M130.548 55.5574C130.548 56.8794 129.48 57.9508 128.16 57.9508C126.842 57.9508 125.774 56.8794 125.774 55.5574C125.774 54.2359 126.842 53.1639 128.16 53.1639C129.48 53.1639 130.548 54.2359 130.548 55.5574Z" fill="#375A7F" fill-opacity="0.6"/>
<path fill-rule="evenodd" clip-rule="evenodd" d="M143.677 55.5574C143.677 56.8794 142.609 57.9508 141.29 57.9508C139.972 57.9508 138.903 56.8794 138.903 55.5574C138.903 54.2359 139.972 53.1639 141.29 53.1639C142.609 53.1639 143.677 54.2359 143.677 55.5574Z" fill="#375A7F" fill-opacity="0.6"/>
<path fill-rule="evenodd" clip-rule="evenodd" d="M88.7742 70.5167C88.7742 72.1684 87.7056 73.5082 86.3861 73.5082C85.0686 73.5082 84 72.1684 84 70.5167C84 68.8644 85.0686 67.5246 86.3861 67.5246C87.7056 67.5246 88.7742 68.8644 88.7742 70.5167Z" fill="#375A7F" fill-opacity="0.6"/>
<path fill-rule="evenodd" clip-rule="evenodd" d="M103.097 70.5167C103.097 72.1684 102.028 73.5082 100.709 73.5082C99.3912 73.5082 98.3226 72.1684 98.3226 70.5167C98.3226 68.8644 99.3912 67.5246 100.709 67.5246C102.028 67.5246 103.097 68.8644 103.097 70.5167Z" fill="#375A7F" fill-opacity="0.6"/>
<path fill-rule="evenodd" clip-rule="evenodd" d="M116.226 70.5167C116.226 72.1684 115.157 73.5082 113.839 73.5082C112.52 73.5082 111.452 72.1684 111.452 70.5167C111.452 68.8644 112.52 67.5246 113.839 67.5246C115.157 67.5246 116.226 68.8644 116.226 70.5167Z" fill="#375A7F" fill-opacity="0.6"/>
<path fill-rule="evenodd" clip-rule="evenodd" d="M130.548 70.5167C130.548 72.1684 129.48 73.5082 128.16 73.5082C126.842 73.5082 125.774 72.1684 125.774 70.5167C125.774 68.8644 126.842 67.5246 128.16 67.5246C129.48 67.5246 130.548 68.8644 130.548 70.5167Z" fill="#375A7F" fill-opacity="0.6"/>
<path fill-rule="evenodd" clip-rule="evenodd" d="M143.677 70.5167C143.677 72.1684 142.609 73.5082 141.29 73.5082C139.972 73.5082 138.903 72.1684 138.903 70.5167C138.903 68.8644 139.972 67.5246 141.29 67.5246C142.609 67.5246 143.677 68.8644 143.677 70.5167Z" fill="#375A7F" fill-opacity="0.6"/>
<path fill-rule="evenodd" clip-rule="evenodd" d="M88.7742 83.68C88.7742 85.3324 87.7056 86.6721 86.3861 86.6721C85.0686 86.6721 84 85.3324 84 83.68C84 82.0283 85.0686 80.6885 86.3861 80.6885C87.7056 80.6885 88.7742 82.0283 88.7742 83.68Z" fill="#375A7F" fill-opacity="0.6"/>
<path fill-rule="evenodd" clip-rule="evenodd" d="M103.097 83.68C103.097 85.3324 102.028 86.6721 100.709 86.6721C99.3912 86.6721 98.3226 85.3324 98.3226 83.68C98.3226 82.0283 99.3912 80.6885 100.709 80.6885C102.028 80.6885 103.097 82.0283 103.097 83.68Z" fill="#375A7F" fill-opacity="0.6"/>
<path fill-rule="evenodd" clip-rule="evenodd" d="M116.226 83.68C116.226 85.3324 115.157 86.6721 113.839 86.6721C112.52 86.6721 111.452 85.3324 111.452 83.68C111.452 82.0283 112.52 80.6885 113.839 80.6885C115.157 80.6885 116.226 82.0283 116.226 83.68Z" fill="#375A7F" fill-opacity="0.6"/>
<path fill-rule="evenodd" clip-rule="evenodd" d="M130.548 83.68C130.548 85.3324 129.48 86.6721 128.16 86.6721C126.842 86.6721 125.774 85.3324 125.774 83.68C125.774 82.0283 126.842 80.6885 128.16 80.6885C129.48 80.6885 130.548 82.0283 130.548 83.68Z" fill="#375A7F" fill-opacity="0.6"/>
<path fill-rule="evenodd" clip-rule="evenodd" d="M143.677 83.68C143.677 85.3324 142.609 86.6721 141.29 86.6721C139.972 86.6721 138.903 85.3324 138.903 83.68C138.903 82.0283 139.972 80.6885 141.29 80.6885C142.609 80.6885 143.677 82.0283 143.677 83.68Z" fill="#375A7F" fill-opacity="0.6"/>
<path fill-rule="evenodd" clip-rule="evenodd" d="M88.7742 97.4426C88.7742 98.7641 87.7056 99.8361 86.3861 99.8361C85.0686 99.8361 84 98.7641 84 97.4426C84 96.1206 85.0686 95.0492 86.3861 95.0492C87.7056 95.0492 88.7742 96.1206 88.7742 97.4426Z" fill="#375A7F" fill-opacity="0.6"/>
<path fill-rule="evenodd" clip-rule="evenodd" d="M103.097 97.4426C103.097 98.7641 102.028 99.8361 100.709 99.8361C99.3912 99.8361 98.3226 98.7641 98.3226 97.4426C98.3226 96.1206 99.3912 95.0492 100.709 95.0492C102.028 95.0492 103.097 96.1206 103.097 97.4426Z" fill="#375A7F" fill-opacity="0.6"/>
<path fill-rule="evenodd" clip-rule="evenodd" d="M116.226 97.4426C116.226 98.7641 115.157 99.8361 113.839 99.8361C112.52 99.8361 111.452 98.7641 111.452 97.4426C111.452 96.1206 112.52 95.0492 113.839 95.0492C115.157 95.0492 116.226 96.1206 116.226 97.4426Z" fill="#375A7F" fill-opacity="0.6"/>
<path fill-rule="evenodd" clip-rule="evenodd" d="M130.548 97.4426C130.548 98.7641 129.48 99.8361 128.16 99.8361C126.842 99.8361 125.774 98.7641 125.774 97.4426C125.774 96.1206 126.842 95.0492 128.16 95.0492C129.48 95.0492 130.548 96.1206 130.548 97.4426Z" fill="#375A7F" fill-opacity="0.6"/>
<path fill-rule="evenodd" clip-rule="evenodd" d="M143.677 97.4426C143.677 98.7641 142.609 99.8361 141.29 99.8361C139.972 99.8361 138.903 98.7641 138.903 97.4426C138.903 96.1206 139.972 95.0492 141.29 95.0492C142.609 95.0492 143.677 96.1206 143.677 97.4426Z" fill="#375A7F" fill-opacity="0.6"/>
<path fill-rule="evenodd" clip-rule="evenodd" d="M88.7742 110.607C88.7742 111.929 87.7056 113 86.3861 113C85.0686 113 84 111.929 84 110.607C84 109.285 85.0686 108.213 86.3861 108.213C87.7056 108.213 88.7742 109.285 88.7742 110.607Z" fill="#375A7F" fill-opacity="0.6"/>
<path fill-rule="evenodd" clip-rule="evenodd" d="M103.097 110.607C103.097 111.929 102.028 113 100.709 113C99.3912 113 98.3226 111.929 98.3226 110.607C98.3226 109.285 99.3912 108.213 100.709 108.213C102.028 108.213 103.097 109.285 103.097 110.607Z" fill="#375A7F" fill-opacity="0.6"/>
<path fill-rule="evenodd" clip-rule="evenodd" d="M116.226 110.607C116.226 111.929 115.157 113 113.839 113C112.52 113 111.452 111.929 111.452 110.607C111.452 109.285 112.52 108.213 113.839 108.213C115.157 108.213 116.226 109.285 116.226 110.607Z" fill="#375A7F" fill-opacity="0.6"/>
<path fill-rule="evenodd" clip-rule="evenodd" d="M130.548 110.607C130.548 111.929 129.48 113 128.16 113C126.842 113 125.774 111.929 125.774 110.607C125.774 109.285 126.842 108.213 128.16 108.213C129.48 108.213 130.548 109.285 130.548 110.607Z" fill="#375A7F" fill-opacity="0.6"/>
<path fill-rule="evenodd" clip-rule="evenodd" d="M143.677 110.607C143.677 111.929 142.609 113 141.29 113C139.972 113 138.903 111.929 138.903 110.607C138.903 109.285 139.972 108.213 141.29 108.213C142.609 108.213 143.677 109.285 143.677 110.607Z" fill="#375A7F" fill-opacity="0.6"/>
<path fill-rule="evenodd" clip-rule="evenodd" d="M158 42.3934C158 43.7155 156.932 44.7869 155.612 44.7869C154.294 44.7869 153.226 43.7155 153.226 42.3934C153.226 41.0714 154.294 40 155.612 40C156.932 40 158 41.0714 158 42.3934Z" fill="#375A7F" fill-opacity="0.6"/>
<path fill-rule="evenodd" clip-rule="evenodd" d="M158 55.5574C158 56.8794 156.932 57.9508 155.612 57.9508C154.294 57.9508 153.226 56.8794 153.226 55.5574C153.226 54.2359 154.294 53.1639 155.612 53.1639C156.932 53.1639 158 54.2359 158 55.5574Z" fill="#375A7F" fill-opacity="0.6"/>
<path fill-rule="evenodd" clip-rule="evenodd" d="M158 70.5167C158 72.1684 156.932 73.5082 155.612 73.5082C154.294 73.5082 153.226 72.1684 153.226 70.5167C153.226 68.8644 154.294 67.5246 155.612 67.5246C156.932 67.5246 158 68.8644 158 70.5167Z" fill="#375A7F" fill-opacity="0.6"/>
<path fill-rule="evenodd" clip-rule="evenodd" d="M158 83.68C158 85.3324 156.932 86.6721 155.612 86.6721C154.294 86.6721 153.226 85.3324 153.226 83.68C153.226 82.0283 154.294 80.6885 155.612 80.6885C156.932 80.6885 158 82.0283 158 83.68Z" fill="#375A7F" fill-opacity="0.6"/>
<path fill-rule="evenodd" clip-rule="evenodd" d="M158 97.4426C158 98.7641 156.932 99.8361 155.612 99.8361C154.294 99.8361 153.226 98.7641 153.226 97.4426C153.226 96.1206 154.294 95.0492 155.612 95.0492C156.932 95.0492 158 96.1206 158 97.4426Z" fill="#375A7F" fill-opacity="0.6"/>
<path fill-rule="evenodd" clip-rule="evenodd" d="M158 110.607C158 111.929 156.932 113 155.612 113C154.294 113 153.226 111.929 153.226 110.607C153.226 109.285 154.294 108.213 155.612 108.213C156.932 108.213 158 109.285 158 110.607Z" fill="#375A7F" fill-opacity="0.6"/>
<path fill-rule="evenodd" clip-rule="evenodd" d="M88.7742 122.393C88.7742 123.715 87.7056 124.787 86.3861 124.787C85.0686 124.787 84 123.715 84 122.393C84 121.071 85.0686 120 86.3861 120C87.7056 120 88.7742 121.071 88.7742 122.393Z" fill="#375A7F" fill-opacity="0.6"/>
<path fill-rule="evenodd" clip-rule="evenodd" d="M103.097 122.393C103.097 123.715 102.028 124.787 100.709 124.787C99.3912 124.787 98.3226 123.715 98.3226 122.393C98.3226 121.071 99.3912 120 100.709 120C102.028 120 103.097 121.071 103.097 122.393Z" fill="#375A7F" fill-opacity="0.6"/>
<path fill-rule="evenodd" clip-rule="evenodd" d="M116.226 122.393C116.226 123.715 115.157 124.787 113.839 124.787C112.52 124.787 111.452 123.715 111.452 122.393C111.452 121.071 112.52 120 113.839 120C115.157 120 116.226 121.071 116.226 122.393Z" fill="#375A7F" fill-opacity="0.6"/>
<path fill-rule="evenodd" clip-rule="evenodd" d="M130.548 122.393C130.548 123.715 129.48 124.787 128.16 124.787C126.842 124.787 125.774 123.715 125.774 122.393C125.774 121.071 126.842 120 128.16 120C129.48 120 130.548 121.071 130.548 122.393Z" fill="#375A7F" fill-opacity="0.6"/>
<path fill-rule="evenodd" clip-rule="evenodd" d="M143.677 122.393C143.677 123.715 142.609 124.787 141.29 124.787C139.972 124.787 138.903 123.715 138.903 122.393C138.903 121.071 139.972 120 141.29 120C142.609 120 143.677 121.071 143.677 122.393Z" fill="#375A7F" fill-opacity="0.6"/>
<path fill-rule="evenodd" clip-rule="evenodd" d="M88.7742 135.557C88.7742 136.879 87.7056 137.951 86.3861 137.951C85.0686 137.951 84 136.879 84 135.557C84 134.236 85.0686 133.164 86.3861 133.164C87.7056 133.164 88.7742 134.236 88.7742 135.557Z" fill="#375A7F" fill-opacity="0.6"/>
<path fill-rule="evenodd" clip-rule="evenodd" d="M103.097 135.557C103.097 136.879 102.028 137.951 100.709 137.951C99.3912 137.951 98.3226 136.879 98.3226 135.557C98.3226 134.236 99.3912 133.164 100.709 133.164C102.028 133.164 103.097 134.236 103.097 135.557Z" fill="#375A7F" fill-opacity="0.6"/>
<path fill-rule="evenodd" clip-rule="evenodd" d="M116.226 135.557C116.226 136.879 115.157 137.951 113.839 137.951C112.52 137.951 111.452 136.879 111.452 135.557C111.452 134.236 112.52 133.164 113.839 133.164C115.157 133.164 116.226 134.236 116.226 135.557Z" fill="#375A7F" fill-opacity="0.6"/>
<path fill-rule="evenodd" clip-rule="evenodd" d="M130.548 135.557C130.548 136.879 129.48 137.951 128.16 137.951C126.842 137.951 125.774 136.879 125.774 135.557C125.774 134.236 126.842 133.164 128.16 133.164C129.48 133.164 130.548 134.236 130.548 135.557Z" fill="#375A7F" fill-opacity="0.6"/>
<path fill-rule="evenodd" clip-rule="evenodd" d="M143.677 135.557C143.677 136.879 142.609 137.951 141.29 137.951C139.972 137.951 138.903 136.879 138.903 135.557C138.903 134.236 139.972 133.164 141.29 133.164C142.609 133.164 143.677 134.236 143.677 135.557Z" fill="#375A7F" fill-opacity="0.6"/>
<path fill-rule="evenodd" clip-rule="evenodd" d="M88.7742 150.517C88.7742 152.168 87.7056 153.508 86.3861 153.508C85.0686 153.508 84 152.168 84 150.517C84 148.864 85.0686 147.525 86.3861 147.525C87.7056 147.525 88.7742 148.864 88.7742 150.517Z" fill="#375A7F" fill-opacity="0.6"/>
<path fill-rule="evenodd" clip-rule="evenodd" d="M103.097 150.517C103.097 152.168 102.028 153.508 100.709 153.508C99.3912 153.508 98.3226 152.168 98.3226 150.517C98.3226 148.864 99.3912 147.525 100.709 147.525C102.028 147.525 103.097 148.864 103.097 150.517Z" fill="#375A7F" fill-opacity="0.6"/>
<path fill-rule="evenodd" clip-rule="evenodd" d="M116.226 150.517C116.226 152.168 115.157 153.508 113.839 153.508C112.52 153.508 111.452 152.168 111.452 150.517C111.452 148.864 112.52 147.525 113.839 147.525C115.157 147.525 116.226 148.864 116.226 150.517Z" fill="#375A7F" fill-opacity="0.6"/>
<path fill-rule="evenodd" clip-rule="evenodd" d="M130.548 150.517C130.548 152.168 129.48 153.508 128.16 153.508C126.842 153.508 125.774 152.168 125.774 150.517C125.774 148.864 126.842 147.525 128.16 147.525C129.48 147.525 130.548 148.864 130.548 150.517Z" fill="#375A7F" fill-opacity="0.6"/>
<path fill-rule="evenodd" clip-rule="evenodd" d="M143.677 150.517C143.677 152.168 142.609 153.508 141.29 153.508C139.972 153.508 138.903 152.168 138.903 150.517C138.903 148.864 139.972 147.525 141.29 147.525C142.609 147.525 143.677 148.864 143.677 150.517Z" fill="#375A7F" fill-opacity="0.6"/>
<path fill-rule="evenodd" clip-rule="evenodd" d="M88.7742 163.68C88.7742 165.332 87.7056 166.672 86.3861 166.672C85.0686 166.672 84 165.332 84 163.68C84 162.028 85.0686 160.689 86.3861 160.689C87.7056 160.689 88.7742 162.028 88.7742 163.68Z" fill="#375A7F" fill-opacity="0.6"/>
<path fill-rule="evenodd" clip-rule="evenodd" d="M103.097 163.68C103.097 165.332 102.028 166.672 100.709 166.672C99.3912 166.672 98.3226 165.332 98.3226 163.68C98.3226 162.028 99.3912 160.689 100.709 160.689C102.028 160.689 103.097 162.028 103.097 163.68Z" fill="#375A7F" fill-opacity="0.6"/>
<path fill-rule="evenodd" clip-rule="evenodd" d="M116.226 163.68C116.226 165.332 115.157 166.672 113.839 166.672C112.52 166.672 111.452 165.332 111.452 163.68C111.452 162.028 112.52 160.689 113.839 160.689C115.157 160.689 116.226 162.028 116.226 163.68Z" fill="#375A7F" fill-opacity="0.6"/>
<path fill-rule="evenodd" clip-rule="evenodd" d="M130.548 163.68C130.548 165.332 129.48 166.672 128.16 166.672C126.842 166.672 125.774 165.332 125.774 163.68C125.774 162.028 126.842 160.689 128.16 160.689C129.48 160.689 130.548 162.028 130.548 163.68Z" fill="#375A7F" fill-opacity="0.6"/>
<path fill-rule="evenodd" clip-rule="evenodd" d="M143.677 163.68C143.677 165.332 142.609 166.672 141.29 166.672C139.972 166.672 138.903 165.332 138.903 163.68C138.903 162.028 139.972 160.689 141.29 160.689C142.609 160.689 143.677 162.028 143.677 163.68Z" fill="#375A7F" fill-opacity="0.6"/>
<path fill-rule="evenodd" clip-rule="evenodd" d="M88.7742 177.443C88.7742 178.764 87.7056 179.836 86.3861 179.836C85.0686 179.836 84 178.764 84 177.443C84 176.121 85.0686 175.049 86.3861 175.049C87.7056 175.049 88.7742 176.121 88.7742 177.443Z" fill="#375A7F" fill-opacity="0.6"/>
<path fill-rule="evenodd" clip-rule="evenodd" d="M103.097 177.443C103.097 178.764 102.028 179.836 100.709 179.836C99.3912 179.836 98.3226 178.764 98.3226 177.443C98.3226 176.121 99.3912 175.049 100.709 175.049C102.028 175.049 103.097 176.121 103.097 177.443Z" fill="#375A7F" fill-opacity="0.6"/>
<path fill-rule="evenodd" clip-rule="evenodd" d="M116.226 177.443C116.226 178.764 115.157 179.836 113.839 179.836C112.52 179.836 111.452 178.764 111.452 177.443C111.452 176.121 112.52 175.049 113.839 175.049C115.157 175.049 116.226 176.121 116.226 177.443Z" fill="#375A7F" fill-opacity="0.6"/>
<path fill-rule="evenodd" clip-rule="evenodd" d="M130.548 177.443C130.548 178.764 129.48 179.836 128.16 179.836C126.842 179.836 125.774 178.764 125.774 177.443C125.774 176.121 126.842 175.049 128.16 175.049C129.48 175.049 130.548 176.121 130.548 177.443Z" fill="#375A7F" fill-opacity="0.6"/>
<path fill-rule="evenodd" clip-rule="evenodd" d="M143.677 177.443C143.677 178.764 142.609 179.836 141.29 179.836C139.972 179.836 138.903 178.764 138.903 177.443C138.903 176.121 139.972 175.049 141.29 175.049C142.609 175.049 143.677 176.121 143.677 177.443Z" fill="#375A7F" fill-opacity="0.6"/>
<path fill-rule="evenodd" clip-rule="evenodd" d="M88.7742 190.607C88.7742 191.929 87.7056 193 86.3861 193C85.0686 193 84 191.929 84 190.607C84 189.285 85.0686 188.213 86.3861 188.213C87.7056 188.213 88.7742 189.285 88.7742 190.607Z" fill="#375A7F" fill-opacity="0.6"/>
<path fill-rule="evenodd" clip-rule="evenodd" d="M103.097 190.607C103.097 191.929 102.028 193 100.709 193C99.3912 193 98.3226 191.929 98.3226 190.607C98.3226 189.285 99.3912 188.213 100.709 188.213C102.028 188.213 103.097 189.285 103.097 190.607Z" fill="#375A7F" fill-opacity="0.6"/>
<path fill-rule="evenodd" clip-rule="evenodd" d="M116.226 190.607C116.226 191.929 115.157 193 113.839 193C112.52 193 111.452 191.929 111.452 190.607C111.452 189.285 112.52 188.213 113.839 188.213C115.157 188.213 116.226 189.285 116.226 190.607Z" fill="#375A7F" fill-opacity="0.6"/>
<path fill-rule="evenodd" clip-rule="evenodd" d="M130.548 190.607C130.548 191.929 129.48 193 128.16 193C126.842 193 125.774 191.929 125.774 190.607C125.774 189.285 126.842 188.213 128.16 188.213C129.48 188.213 130.548 189.285 130.548 190.607Z" fill="#375A7F" fill-opacity="0.6"/>
<path fill-rule="evenodd" clip-rule="evenodd" d="M143.677 190.607C143.677 191.929 142.609 193 141.29 193C139.972 193 138.903 191.929 138.903 190.607C138.903 189.285 139.972 188.213 141.29 188.213C142.609 188.213 143.677 189.285 143.677 190.607Z" fill="#375A7F" fill-opacity="0.6"/>
<path fill-rule="evenodd" clip-rule="evenodd" d="M158 122.393C158 123.715 156.932 124.787 155.612 124.787C154.294 124.787 153.226 123.715 153.226 122.393C153.226 121.071 154.294 120 155.612 120C156.932 120 158 121.071 158 122.393Z" fill="#375A7F" fill-opacity="0.6"/>
<path fill-rule="evenodd" clip-rule="evenodd" d="M158 135.557C158 136.879 156.932 137.951 155.612 137.951C154.294 137.951 153.226 136.879 153.226 135.557C153.226 134.236 154.294 133.164 155.612 133.164C156.932 133.164 158 134.236 158 135.557Z" fill="#375A7F" fill-opacity="0.6"/>
<path fill-rule="evenodd" clip-rule="evenodd" d="M158 150.517C158 152.168 156.932 153.508 155.612 153.508C154.294 153.508 153.226 152.168 153.226 150.517C153.226 148.864 154.294 147.525 155.612 147.525C156.932 147.525 158 148.864 158 150.517Z" fill="#375A7F" fill-opacity="0.6"/>
<path fill-rule="evenodd" clip-rule="evenodd" d="M158 163.68C158 165.332 156.932 166.672 155.612 166.672C154.294 166.672 153.226 165.332 153.226 163.68C153.226 162.028 154.294 160.689 155.612 160.689C156.932 160.689 158 162.028 158 163.68Z" fill="#375A7F" fill-opacity="0.6"/>
<path fill-rule="evenodd" clip-rule="evenodd" d="M158 177.443C158 178.764 156.932 179.836 155.612 179.836C154.294 179.836 153.226 178.764 153.226 177.443C153.226 176.121 154.294 175.049 155.612 175.049C156.932 175.049 158 176.121 158 177.443Z" fill="#375A7F" fill-opacity="0.6"/>
<path fill-rule="evenodd" clip-rule="evenodd" d="M158 190.607C158 191.929 156.932 193 155.612 193C154.294 193 153.226 191.929 153.226 190.607C153.226 189.285 154.294 188.213 155.612 188.213C156.932 188.213 158 189.285 158 190.607Z" fill="#375A7F" fill-opacity="0.6"/>
<path fill-rule="evenodd" clip-rule="evenodd" d="M496.411 498.788L505.739 535.452L470 525.876L496.411 498.788Z" stroke="#459E80" stroke-width="3"/>
<path fill-rule="evenodd" clip-rule="evenodd" d="M432 563H227C227 563 264.961 549.262 264.961 456H394.074C394.074 462.206 394.253 468.087 394.578 473.612C398.959 551.019 432 563 432 563Z" fill="#C1C4D3"/>
<path fill-rule="evenodd" clip-rule="evenodd" d="M431.747 566H226.253C225.563 566 225 565.531 225 564.95V564.05C225 563.469 225.563 563 226.253 563H431.747C432.437 563 433 563.469 433 564.05V564.95C433 565.531 432.437 566 431.747 566Z" fill="#C1C4D3"/>
<path fill-rule="evenodd" clip-rule="evenodd" d="M547 195.85V454.116C547 466.778 536.738 477 524.062 477H136.972C124.261 477 114 466.778 114 454.116V195.85C114 185.878 120.41 177.412 129.339 174.327C131.717 173.467 134.272 173 136.972 173H524.062C536.738 173 547 183.222 547 195.85Z" fill="#DADCEA"/>
<path fill-rule="evenodd" clip-rule="evenodd" d="M547 195.886V436H114V195.886C114 195.572 114 195.256 114.017 194.96C114.034 194.646 114.051 194.33 114.069 194.034C114.106 193.72 114.123 193.424 114.157 193.124C114.246 192.515 114.331 191.919 114.454 191.326C114.632 190.451 114.857 189.579 115.137 188.742C115.226 188.462 115.332 188.18 115.437 187.901C115.523 187.622 115.629 187.342 115.752 187.08C116.435 185.456 117.309 183.937 118.326 182.521C119.009 181.578 119.764 180.706 120.57 179.865C123.004 177.403 125.999 175.479 129.345 174.328C130.24 174.014 131.151 173.732 132.08 173.524C132.692 173.402 133.323 173.279 133.955 173.191C134.549 173.123 135.146 173.051 135.741 173.034C136.109 173.017 136.475 173 136.844 173H524.016C525.608 173 527.185 173.157 528.691 173.47C529.429 173.613 530.146 173.804 530.866 174.032C531.215 174.134 531.583 174.257 531.935 174.379C534.404 175.271 536.664 176.582 538.644 178.223C539.222 178.694 539.764 179.184 540.273 179.708C544.425 183.832 547 189.562 547 195.886Z" fill="#375A7F"/>
<path fill-rule="evenodd" clip-rule="evenodd" d="M427 563H222C222 563 259.961 549.262 259.961 456H389.074C389.074 462.206 389.253 468.087 389.578 473.612C393.959 551.019 427 563 427 563Z" fill="#D4D6DA"/>
<path fill-rule="evenodd" clip-rule="evenodd" d="M426.747 566H221.253C220.563 566 220 565.531 220 564.95V564.05C220 563.469 220.563 563 221.253 563H426.747C427.437 563 428 563.469 428 564.05V564.95C428 565.531 427.437 566 426.747 566Z" fill="#C1C4D3"/>
<path fill-rule="evenodd" clip-rule="evenodd" d="M389 477.569C387.163 478.107 384.931 478.394 382.231 478.394C323.471 478.394 315.153 527.127 295.818 547.54C286.998 556.794 277.637 561.061 270.04 563H221C221 563 259.059 549.26 259.059 456H388.497C388.497 462.203 388.677 472.043 389 477.569Z" fill="#E5E6E9"/>
<path fill-rule="evenodd" clip-rule="evenodd" d="M541 195.85V454.116C541 466.778 530.738 477 518.062 477H130.972C118.261 477 108 466.778 108 454.116V195.85C108 185.878 114.41 177.412 123.339 174.327C125.717 173.467 128.272 173 130.972 173H518.062C530.738 173 541 183.222 541 195.85Z" fill="#F3F4FA"/>
<path fill-rule="evenodd" clip-rule="evenodd" d="M541 195.886V436H108V195.886C108 195.572 108 195.256 108.017 194.96C108.034 194.646 108.051 194.33 108.069 194.034C108.106 193.72 108.123 193.424 108.157 193.124C108.246 192.515 108.331 191.919 108.454 191.326C108.632 190.451 108.857 189.579 109.137 188.742C109.226 188.462 109.332 188.18 109.437 187.901C109.523 187.622 109.629 187.342 109.752 187.08C110.435 185.456 111.309 183.937 112.326 182.521C113.009 181.578 113.764 180.706 114.57 179.865C117.004 177.403 119.999 175.479 123.345 174.328C124.24 174.014 125.151 173.732 126.08 173.524C126.692 173.402 127.323 173.279 127.955 173.191C128.549 173.123 129.146 173.051 129.741 173.034C130.109 173.017 130.475 173 130.844 173H518.016C519.608 173 521.185 173.157 522.691 173.47C523.429 173.613 524.146 173.804 524.866 174.032C525.215 174.134 525.583 174.257 525.935 174.379C528.404 175.271 530.664 176.582 532.644 178.223C533.222 178.694 533.764 179.184 534.273 179.708C538.425 183.832 541 189.562 541 195.886Z" fill="#4983C0"/>
<path fill-rule="evenodd" clip-rule="evenodd" d="M333 456C333 462.626 327.629 468 320.999 468C314.371 468 309 462.626 309 456C309 449.374 314.371 444 320.999 444C327.629 444 333 449.374 333 456Z" fill="#DADCEA"/>
<path fill-rule="evenodd" clip-rule="evenodd" d="M522.992 413.533H126.008V195.886C126.008 193.196 128.234 190.962 130.931 190.962H518.017C520.749 190.962 522.992 193.196 522.992 195.886V413.533ZM534.273 179.708C533.765 179.184 533.222 178.697 532.645 178.223C530.664 176.582 528.387 175.288 525.935 174.379C525.584 174.26 525.218 174.137 524.867 174.032C524.149 173.804 523.429 173.63 522.695 173.473C521.189 173.157 519.612 173 518.017 173H130.86C130.494 173 130.126 173.017 129.757 173.034C129.163 173.054 128.565 173.123 127.971 173.194C127.34 173.279 126.711 173.402 126.097 173.524C122.525 174.282 119.256 175.895 116.515 178.124C116.515 178.124 116.515 178.124 116.512 178.127C115.841 178.674 115.192 179.247 114.587 179.868C113.764 180.688 113.009 181.578 112.343 182.521C111.312 183.92 110.435 185.456 109.769 187.083C109.646 187.342 109.543 187.625 109.454 187.904C109.349 188.183 109.243 188.462 109.157 188.742C108.857 189.579 108.632 190.437 108.474 191.326C108.351 191.922 108.263 192.515 108.174 193.127C108.14 193.424 108.123 193.72 108.089 194.036C108.071 194.333 108.051 194.646 108.034 194.96C108 195.259 108 195.572 108 195.886V436H541V195.886C541 189.562 538.425 183.832 534.273 179.708Z" fill="#375A7F"/>
<path fill-rule="evenodd" clip-rule="evenodd" d="M515 173V357.818C515 366.2 508.212 373 499.852 373H158.15C149.771 373 143 366.2 143 357.818V173H515Z" fill="#D7CDCD"/>
<path fill-rule="evenodd" clip-rule="evenodd" d="M505 77.1157V335.884C505 344.235 498.221 351 489.853 351H148.147C139.779 351 133 344.235 133 335.884V77.1157C133 68.7649 139.779 62 148.147 62H489.853C498.221 62 505 68.7649 505 77.1157Z" fill="#E8E6E6"/>
<path fill-rule="evenodd" clip-rule="evenodd" d="M505 77.4075V130H133V77.4075C133 68.8955 139.779 62 148.147 62H489.853C498.221 62 505 68.8955 505 77.4075Z" fill="#459E80"/>
<path fill-rule="evenodd" clip-rule="evenodd" d="M473.142 107H281.858C275.86 107 271 102.077 271 96C271 89.9264 275.86 85 281.858 85H473.142C479.137 85 484 89.9264 484 96C484 102.077 479.137 107 473.142 107Z" fill="white"/>
<path fill-rule="evenodd" clip-rule="evenodd" d="M180 95.5C180 101.298 175.299 106 169.501 106C163.701 106 159 101.298 159 95.5C159 89.7016 163.701 85 169.501 85C175.299 85 180 89.7016 180 95.5Z" fill="#76CFB1"/>
<path fill-rule="evenodd" clip-rule="evenodd" d="M207 95.5C207 101.298 202.299 106 196.501 106C190.701 106 186 101.298 186 95.5C186 89.7016 190.701 85 196.501 85C202.299 85 207 89.7016 207 95.5Z" fill="#84B6E5"/>
<path fill-rule="evenodd" clip-rule="evenodd" d="M233 95.5C233 101.298 228.299 106 222.501 106C216.701 106 212 101.298 212 95.5C212 89.7016 216.701 85 222.501 85C228.299 85 233 89.7016 233 95.5Z" fill="#63CD63"/>
<path fill-rule="evenodd" clip-rule="evenodd" d="M305.535 305H172.465C164.475 305 158 298.565 158 290.624V181.376C158 173.435 164.475 167 172.465 167H305.535C313.525 167 320 173.435 320 181.376V290.624C320 298.565 313.525 305 305.535 305Z" fill="#D7CDCD"/>
<path fill-rule="evenodd" clip-rule="evenodd" d="M301.535 300H168.465C160.475 300 154 293.565 154 285.624V176.376C154 168.435 160.475 162 168.465 162H301.535C309.522 162 316 168.435 316 176.376V285.624C316 293.565 309.522 300 301.535 300Z" fill="white"/>
<path fill-rule="evenodd" clip-rule="evenodd" d="M486.45 181H331.55C329.589 181 328 179.479 328 177.602V176.396C328 174.521 329.589 173 331.55 173H486.45C488.411 173 490 174.521 490 176.396V177.602C490 179.479 488.411 181 486.45 181Z" fill="white"/>
<path fill-rule="evenodd" clip-rule="evenodd" d="M486.45 201H331.55C329.589 201 328 199.479 328 197.602V196.396C328 194.521 329.589 193 331.55 193H486.45C488.411 193 490 194.521 490 196.396V197.602C490 199.479 488.411 201 486.45 201Z" fill="white"/>
<path fill-rule="evenodd" clip-rule="evenodd" d="M486.45 222H331.55C329.589 222 328 220.479 328 218.602V217.396C328 215.521 329.589 214 331.55 214H486.45C488.411 214 490 215.521 490 217.396V218.602C490 220.479 488.411 222 486.45 222Z" fill="white"/>
<path fill-rule="evenodd" clip-rule="evenodd" d="M486.45 242H331.55C329.589 242 328 240.479 328 238.602V237.396C328 235.521 329.589 234 331.55 234H486.45C488.411 234 490 235.521 490 237.396V238.602C490 240.479 488.411 242 486.45 242Z" fill="white"/>
<path fill-rule="evenodd" clip-rule="evenodd" d="M486.45 261H331.55C329.589 261 328 259.479 328 257.602V256.396C328 254.521 329.589 253 331.55 253H486.45C488.411 253 490 254.521 490 256.396V257.602C490 259.479 488.411 261 486.45 261Z" fill="white"/>
<path fill-rule="evenodd" clip-rule="evenodd" d="M486.45 320H331.55C329.589 320 328 318.479 328 316.602V315.396C328 313.521 329.589 312 331.55 312H486.45C488.411 312 490 313.521 490 315.396V316.602C490 318.479 488.411 320 486.45 320Z" fill="white"/>
<path fill-rule="evenodd" clip-rule="evenodd" d="M485.829 340H159.169C156.866 340 155 338.208 155 335.999C155 333.79 156.866 332 159.169 332H485.829C488.131 332 490 333.79 490 335.999C490 338.208 488.131 340 485.829 340Z" fill="white"/>
<path fill-rule="evenodd" clip-rule="evenodd" d="M359 286.5C359 293.956 352.957 300 345.501 300C338.046 300 332 293.956 332 286.5C332 279.044 338.046 273 345.501 273C352.957 273 359 279.044 359 286.5Z" fill="#76CFB1"/>
<path fill-rule="evenodd" clip-rule="evenodd" d="M426 286.5C426 293.956 419.956 300 412.5 300C405.044 300 399 293.956 399 286.5C399 279.044 405.044 273 412.5 273C419.956 273 426 279.044 426 286.5Z" fill="white"/>
<path fill-rule="evenodd" clip-rule="evenodd" d="M490 286.5C490 293.956 483.957 300 476.501 300C469.046 300 463 293.956 463 286.5C463 279.044 469.046 273 476.501 273C483.957 273 490 279.044 490 286.5Z" fill="#76CFB1"/>
<mask id="mask0" mask-type="alpha" maskUnits="userSpaceOnUse" x="37" y="0" width="542" height="566">
<path fill-rule="evenodd" clip-rule="evenodd" d="M37 566H579V0H37V566Z" fill="white"/>
</mask>
<g mask="url(#mask0)">
<path fill-rule="evenodd" clip-rule="evenodd" d="M133 136H505V130H133V136Z" fill="#D7CDCD"/>
<path fill-rule="evenodd" clip-rule="evenodd" d="M569 44.5C569 47.5387 566.539 50 563.5 50C560.461 50 558 47.5387 558 44.5C558 41.4613 560.461 39 563.5 39C566.539 39 569 41.4613 569 44.5Z" stroke="white"/>
<path fill-rule="evenodd" clip-rule="evenodd" d="M49 116.5C49 119.539 46.5387 122 43.5 122C40.4613 122 38 119.539 38 116.5C38 113.461 40.4613 111 43.5 111C46.5387 111 49 113.461 49 116.5Z" stroke="white"/>
<path fill-rule="evenodd" clip-rule="evenodd" d="M193 380.5C193 383.539 190.539 386 187.5 386C184.461 386 182 383.539 182 380.5C182 377.461 184.461 375 187.5 375C190.539 375 193 377.461 193 380.5Z" stroke="white"/>
<path fill-rule="evenodd" clip-rule="evenodd" d="M578 203.5C578 206.539 575.539 209 572.5 209C569.461 209 567 206.539 567 203.5C567 200.461 569.461 198 572.5 198C575.539 198 578 200.461 578 203.5Z" stroke="white"/>
<path d="M409 10L424 25" stroke="white" stroke-linecap="round" stroke-linejoin="round"/>
<path d="M424 10L409 25" stroke="white" stroke-linecap="round" stroke-linejoin="round"/>
<path d="M187 1L197 11" stroke="white" stroke-linecap="round" stroke-linejoin="round"/>
<path d="M197 1L187 11" stroke="white" stroke-linecap="round" stroke-linejoin="round"/>
<path d="M53 304L63 314" stroke="white" stroke-linecap="round" stroke-linejoin="round"/>
<path d="M63 304L53 314" stroke="white" stroke-linecap="round" stroke-linejoin="round"/>
<path d="M528 329L538 339" stroke="white" stroke-linecap="round" stroke-linejoin="round"/>
<path d="M538 329L528 339" stroke="white" stroke-linecap="round" stroke-linejoin="round"/>
</g>
</svg>
