<svg width="116" height="116" viewBox="0 0 116 116" fill="none" xmlns="http://www.w3.org/2000/svg">
<path fill-rule="evenodd" clip-rule="evenodd" d="M58 114C88.9279 114 114 88.9279 114 58C114 27.0721 88.9279 2 58 2C27.0721 2 2 27.0721 2 58C2 88.9279 27.0721 114 58 114Z" stroke="#C0C6D3" stroke-width="3" stroke-linecap="round" stroke-dasharray="0 11"/>
<path fill-rule="evenodd" clip-rule="evenodd" d="M58 107C85.062 107 107 85.062 107 58C107 30.938 85.062 9 58 9C30.938 9 9 30.938 9 58C9 85.062 30.938 107 58 107Z" fill="#459E80"/>
<path d="M42.5 47V53" stroke="white" stroke-width="2"/>
<path d="M47 58.5H52" stroke="white" stroke-width="2"/>
<path d="M60 61L68 70" stroke="white" stroke-width="2"/>
<path d="M67 73.5H62" stroke="white" stroke-width="2"/>
<path fill-rule="evenodd" clip-rule="evenodd" d="M42.5 47C44.9853 47 47 44.9853 47 42.5C47 40.0147 44.9853 38 42.5 38C40.0147 38 38 40.0147 38 42.5C38 44.9853 40.0147 47 42.5 47Z" stroke="white" stroke-width="2" stroke-linecap="square"/>
<path fill-rule="evenodd" clip-rule="evenodd" d="M57.5 47C59.9853 47 62 44.9853 62 42.5C62 40.0147 59.9853 38 57.5 38C55.0147 38 53 40.0147 53 42.5C53 44.9853 55.0147 47 57.5 47Z" stroke="white" stroke-width="2" stroke-linecap="square"/>
<path fill-rule="evenodd" clip-rule="evenodd" d="M71.5 47C73.9853 47 76 44.9853 76 42.5C76 40.0147 73.9853 38 71.5 38C69.0147 38 67 40.0147 67 42.5C67 44.9853 69.0147 47 71.5 47Z" stroke="white" stroke-width="2" stroke-linecap="square"/>
<path fill-rule="evenodd" clip-rule="evenodd" d="M42.5 63C44.9853 63 47 60.9853 47 58.5C47 56.0147 44.9853 54 42.5 54C40.0147 54 38 56.0147 38 58.5C38 60.9853 40.0147 63 42.5 63Z" stroke="white" stroke-width="2" stroke-linecap="square"/>
<path fill-rule="evenodd" clip-rule="evenodd" d="M57.5 63C59.9853 63 62 60.9853 62 58.5C62 56.0147 59.9853 54 57.5 54C55.0147 54 53 56.0147 53 58.5C53 60.9853 55.0147 63 57.5 63Z" stroke="white" stroke-width="2" stroke-linecap="square"/>
<path fill-rule="evenodd" clip-rule="evenodd" d="M71.5 63C73.9853 63 76 60.9853 76 58.5C76 56.0147 73.9853 54 71.5 54C69.0147 54 67 56.0147 67 58.5C67 60.9853 69.0147 63 71.5 63Z" stroke="white" stroke-width="2" stroke-linecap="square"/>
<path fill-rule="evenodd" clip-rule="evenodd" d="M42.5 78C44.9853 78 47 75.9853 47 73.5C47 71.0147 44.9853 69 42.5 69C40.0147 69 38 71.0147 38 73.5C38 75.9853 40.0147 78 42.5 78Z" stroke="white" stroke-width="2" stroke-linecap="square"/>
<path fill-rule="evenodd" clip-rule="evenodd" d="M57.5 78C59.9853 78 62 75.9853 62 73.5C62 71.0147 59.9853 69 57.5 69C55.0147 69 53 71.0147 53 73.5C53 75.9853 55.0147 78 57.5 78Z" stroke="white" stroke-width="2" stroke-linecap="square"/>
<path fill-rule="evenodd" clip-rule="evenodd" d="M71.5 78C73.9853 78 76 75.9853 76 73.5C76 71.0147 73.9853 69 71.5 69C69.0147 69 67 71.0147 67 73.5C67 75.9853 69.0147 78 71.5 78Z" stroke="white" stroke-width="2" stroke-linecap="square"/>
</svg>
