<svg width="40" height="40" viewBox="0 0 40 40" fill="none" xmlns="http://www.w3.org/2000/svg">
<path d="M20 0C8.95429 0 0 8.95429 0 20C0 31.0457 8.95429 40 20 40C31.0457 40 40 31.0457 40 20C40 8.95429 31.0457 0 20 0ZM31.1569 26.761C30.5658 26.7997 29.9731 26.7736 29.0402 26.7736C27.2434 27.2013 25.7271 26.2642 24.5298 24.5837C24.1627 24.065 23.6878 23.5725 22.957 23.7796C22.2834 23.9699 22.11 24.6308 22.0847 25.2008C22.0325 26.2592 21.4928 26.6136 20.5161 26.6658C17.7688 26.83 15.3793 26.0226 13.474 24.0137C10.8251 21.2225 9.20518 17.8092 7.77131 14.2974C7.54651 13.7358 7.81509 13.5842 8.31185 13.5842C9.29274 13.5935 10.2778 13.6019 11.2672 13.58C11.9289 13.5632 12.2438 13.9817 12.5065 14.491C13.3106 16.0765 14.1913 17.6105 15.2884 19.0149C15.6083 19.4123 15.9241 19.8965 16.5244 19.7449C17.1373 19.5933 17.2502 18.993 17.2721 18.5139C17.3403 16.9934 17.8934 15.3473 16.3433 14.1509C15.9847 13.8697 16.2398 13.6541 16.5244 13.5548C18.0921 13.0016 19.6826 13.0016 21.2722 13.4377C21.8986 13.6154 22.0325 14.2023 22.0191 14.7773C21.9972 15.7228 21.9542 16.665 21.8818 17.6114C21.8506 18.0475 21.8641 18.4794 21.9896 18.8945C22.2741 19.8022 22.7196 19.9487 23.458 19.3349C24.5727 18.4188 25.2252 17.1365 25.951 15.9224C26.2575 15.4164 26.5084 14.8767 26.7374 14.337C26.9445 13.8225 27.299 13.628 27.8353 13.6331C29.0149 13.6499 30.1979 13.6676 31.3775 13.6331C32.0948 13.6205 32.3112 13.8621 32.0426 14.5491C31.5501 15.7978 31.0272 17.0245 30.1204 18.0483C29.8392 18.3725 29.5538 18.6967 29.2953 19.0461C28.0854 20.7098 28.1511 21.3834 29.6801 22.7793C30.4926 23.5262 31.3817 24.1871 31.9786 25.1385C32.6126 26.1556 32.3356 26.6919 31.1569 26.761Z" fill="#459E80"/>
</svg>
